<?xml version="1.0" encoding="UTF-8" standalone="no"?>
<svg
   xmlns:dc="http://purl.org/dc/elements/1.1/"
   xmlns:cc="http://creativecommons.org/ns#"
   xmlns:rdf="http://www.w3.org/1999/02/22-rdf-syntax-ns#"
   xmlns:svg="http://www.w3.org/2000/svg"
   xmlns="http://www.w3.org/2000/svg"
   id="svg2775"
   version="1.1"
   viewBox="0 0 500 500">
  <metadata
     id="metadata2781">
    <rdf:RDF>
      <cc:Work
         rdf:about="">
        <dc:format>image/svg+xml</dc:format>
        <dc:type
           rdf:resource="http://purl.org/dc/dcmitype/StillImage" />
        <dc:title />
      </cc:Work>
    </rdf:RDF>
  </metadata>
  <defs
     id="defs2779" />
  <g
     id="text2773"
     style="font-style:normal;font-variant:normal;font-weight:normal;font-stretch:normal;font-size:475.89556885px;font-family:'衡山毛筆フォント OTF';-inkscape-font-specification:'衡山毛筆フォント OTF, Normal';font-variant-ligatures:normal;font-variant-caps:normal;font-variant-numeric:normal;font-feature-settings:normal;text-align:start;writing-mode:lr-tb;text-anchor:start;white-space:pre;fill:#333333;stroke-width:20.69117546"
     transform="scale(0.99717021,1.0028378)"
     aria-label="歩">
    <path
       id="path7"
       style="font-style:normal;font-variant:normal;font-weight:normal;font-stretch:normal;font-size:475.89556885px;font-family:'衡山毛筆フォント OTF';-inkscape-font-specification:'衡山毛筆フォント OTF, Normal';font-variant-ligatures:normal;font-variant-caps:normal;font-variant-numeric:normal;font-feature-settings:normal;text-align:start;writing-mode:lr-tb;text-anchor:start;white-space:pre;fill:#333333;stroke-width:20.69117546"
       d="m 137.04418,478.64167 14.75277,-7.61432 4.75895,1.42768 24.27068,-13.80097 1.90358,-4.75895 14.75276,-9.99381 v -3.33127 l 15.22866,-10.4697 12.37328,-7.61433 13.32508,-7.61433 c 14.27687,-11.89739 26.65015,-25.22247 36.64396,-40.45112 9.99381,-14.27687 21.4153,-27.60195 34.26448,-39.97523 10.4697,-9.99381 18.08403,-21.4153 23.31888,-32.8368 5.23485,-11.42149 10.46971,-22.84298 16.18045,-33.78858 l 18.08403,9.04201 8.09023,-1.42768 19.51172,4.28306 h 1.42768 l -9.04201,-19.51172 c -5.71075,-6.18664 -12.37329,-11.42149 -19.03582,-16.18045 -6.18665,-4.28306 -13.32508,-8.56612 -20.46351,-12.37329 l -39.49934,2.85538 9.51791,9.04201 c -3.33126,19.03583 -9.9938,37.11986 -20.4635,53.7762 -10.9456,16.65635 -22.3671,32.8368 -35.69217,48.06546 h -2.85538 l -1.90358,-16.65635 4.75896,-60.91463 -1.42769,-25.69836 c -0.95179,-8.09023 -0.47589,-15.22866 1.90358,-21.4153 1.90359,-6.18665 3.33127,-12.37329 3.80717,-19.51172 8.09022,-2.37948 17.13224,-3.80717 26.65015,-4.28306 9.99381,-0.4759 18.55993,-1.42769 26.65015,-3.33127 l 44.25829,2.85537 5.71075,-1.42768 16.65634,1.42768 h 27.12605 v -4.28306 h 3.33127 l 1.42768,-2.85537 -4.75895,-12.37329 c -7.13843,-6.66253 -16.65635,-10.4697 -28.55374,-10.4697 -12.37328,0 -23.31888,-1.42769 -33.31269,-4.75895 h -6.18664 v 3.33126 l -6.18664,4.28307 v 3.33126 c -13.32508,0 -25.22247,0.9518 -36.64396,3.33127 -11.89739,2.37948 -23.79478,4.75896 -36.16806,7.13844 h -7.13844 l -1.90358,-4.75896 1.90358,-39.49933 7.13844,1.42769 c 10.4697,-0.9518 19.98761,-2.85538 29.98142,-5.23486 9.51791,-1.90358 17.60813,-7.13843 24.74657,-14.27686 l -1.42769,-7.13844 -16.65634,-9.51791 -6.18665,1.42769 -6.18664,-1.42769 -10.4697,3.33127 -1.42769,4.28306 H 274.578 l -1.42768,2.85537 -6.18665,2.85538 h -5.71074 c -1.90358,-5.71075 -3.33127,-12.37329 -4.28306,-19.51172 -1.42769,-6.662538 -3.33127,-13.325076 -6.66254,-19.511719 -4.28306,-3.331269 -8.56612,-4.28306 -14.27687,-4.28306 -5.71074,0.475896 -9.9938,0 -14.27686,-3.331269 h -2.85538 v 19.987614 h -3.33127 v 16.656344 l 6.18665,4.28306 9.04201,11.89739 -3.33127,36.64396 c 0,5.23485 1.42769,9.51791 4.28306,12.84918 2.37948,3.33127 5.23485,7.13843 8.09023,11.42149 v 2.85538 l -61.86643,15.22865 h -3.33127 c 3.33127,-4.28306 6.66254,-8.09022 10.46971,-11.42149 2.85537,-3.33127 6.66253,-7.61433 10.94559,-12.84918 0,-5.71075 -0.95179,-11.42149 -2.85537,-16.65634 -2.37948,-5.23486 -4.75895,-9.99381 -7.61433,-15.22866 -7.13843,-4.28306 -15.22866,-8.09023 -22.84298,-11.4215 -8.09023,-2.85537 -16.18045,-5.71074 -24.27068,-8.09022 h -3.33127 c 1.42769,4.28306 3.80717,7.61433 7.61433,10.9456 3.33127,3.80716 6.66254,6.66254 10.9456,8.56612 5.23485,5.23485 8.56612,10.4697 9.99381,16.65634 1.42768,6.18665 2.85537,11.89739 4.75895,18.08403 v 24.74657 l -19.51172,4.28306 -7.61433,-1.42768 h -24.27067 l -2.85537,5.71074 -11.89739,4.75896 v 4.75896 l -15.22866,4.75895 34.74038,18.08403 c 16.18045,-5.23485 32.36089,-11.42149 48.54134,-17.13224 16.18045,-6.18664 32.3609,-10.9456 48.54135,-15.22866 h 7.13844 l 1.42768,12.37329 3.33127,1.90358 9.04202,46.63777 -1.42769,31.885 h -7.61433 l -3.33127,11.89739 c -0.95179,6.18664 0,11.42149 2.37948,15.22866 2.37948,4.28306 4.75896,8.09022 7.13843,12.37328 l 13.32508,7.13844 c -16.18045,22.36709 -33.78859,44.25828 -52.82441,65.19769 -19.03582,21.4153 -39.49933,40.45112 -60.43874,57.58336 z m 10.46971,-139.4374 10.4697,-3.33127 15.22866,-34.74037 c 0,-4.28306 0,-8.09023 0,-11.4215 0,-3.33126 -1.42769,-6.66253 -4.75896,-9.9938 -3.80716,-5.23485 -8.09022,-8.56612 -13.32507,-10.9456 -5.23486,-2.37948 -10.46971,-4.28306 -16.65635,-5.23485 h -1.42769 l 4.28306,14.75276 -2.85537,32.3609 v 19.51172 z" />
  </g>
</svg>
