<?xml version="1.0" encoding="UTF-8" standalone="no"?>
<svg
   xmlns:dc="http://purl.org/dc/elements/1.1/"
   xmlns:cc="http://creativecommons.org/ns#"
   xmlns:rdf="http://www.w3.org/1999/02/22-rdf-syntax-ns#"
   xmlns:svg="http://www.w3.org/2000/svg"
   xmlns="http://www.w3.org/2000/svg"
   viewBox="0 0 500 500"
   version="1.1"
   id="svg735">
  <metadata
     id="metadata741">
    <rdf:RDF>
      <cc:Work
         rdf:about="">
        <dc:format>image/svg+xml</dc:format>
        <dc:type
           rdf:resource="http://purl.org/dc/dcmitype/StillImage" />
        <dc:title />
      </cc:Work>
    </rdf:RDF>
  </metadata>
  <defs
     id="defs739" />
  <g
     aria-label="銀"
     transform="matrix(0.94680786,0,0,0.95218974,12.416319,24.242408)"
     style="font-style:normal;font-variant:normal;font-weight:normal;font-stretch:normal;font-size:589.37207031px;font-family:'衡山毛筆フォント OTF';-inkscape-font-specification:'衡山毛筆フォント OTF, Normal';font-variant-ligatures:normal;font-variant-caps:normal;font-variant-numeric:normal;font-feature-settings:normal;text-align:start;writing-mode:lr-tb;text-anchor:start;white-space:pre;fill:#333333;stroke-width:25.62495232"
     id="text733">
    <path
       d="m 200.89285,478.64155 44.20291,-38.30918 c 9.42995,-8.84058 17.68116,-19.44928 25.343,-31.82609 7.66183,-11.19807 13.55555,-23.57488 18.8599,-35.36233 v -1.76811 h -1.76811 l 3.53623,-9.42996 v -4.71497 h -8.25121 l 1.17874,-5.89372 -5.89372,5.89372 v 2.94686 l -27.70048,24.16425 h -2.94686 l 12.96618,-70.13527 -1.76811,-8.25121 v -4.12561 l 8.84058,9.42996 15.32367,2.94686 56.57972,75.43962 c 15.91305,14.7343 33.00484,25.93237 50.686,34.77295 17.68116,8.84059 36.54107,15.91305 55.40097,22.39614 7.66184,0 14.14493,0 21.2174,0 6.48309,0 12.37681,-1.76811 18.8599,-4.71497 l -4.1256,-7.07247 c -15.91305,-12.96618 -33.00484,-24.16425 -52.45412,-31.82609 -18.8599,-7.66184 -36.54106,-17.68116 -53.63285,-28.28986 -10.01933,-8.84058 -19.44928,-17.68116 -27.70049,-28.28986 -8.84058,-10.6087 -17.09179,-21.21739 -25.343,-32.41546 l -17.09179,-8.25121 -8.84058,-18.27054 -3.53623,-2.35748 1.76811,-5.30435 c 6.48309,-2.35749 11.19807,-5.89372 16.50242,-11.19807 5.30435,-5.30435 11.19807,-7.66184 18.27053,-8.84058 4.12561,-22.39614 7.66184,-45.38165 10.6087,-68.95654 2.35749,-23.57488 8.25121,-45.38165 17.68116,-64.83092 l 20.03865,-5.30435 2.35749,-7.07247 -1.17874,-10.01932 c -5.89372,-0.58937 -11.78744,-2.35749 -17.68116,-4.125607 -5.89372,-1.768116 -10.6087,-4.714976 -14.73431,-8.840581 h -10.60869 v 1.768117 c -17.09179,5.304348 -34.18358,10.019321 -52.45412,13.555561 -17.68116,3.53623 -34.18358,10.01932 -50.686,20.03865 l 21.2174,11.19807 1.76812,5.30434 10.01932,5.30435 c 4.71498,-1.17874 9.42995,-2.35749 14.14493,-3.53623 4.1256,-1.17874 8.84058,-3.53623 12.96619,-7.07246 h 7.07246 l 1.76812,7.07246 -1.76812,36.54107 c -7.07246,2.94686 -14.14493,4.71498 -20.03865,5.89372 -7.07246,0.58937 -14.14493,2.94686 -21.21739,6.48309 l -8.25121,-1.17874 -5.30435,-14.7343 c -5.89372,-2.94686 -11.78744,-3.53624 -17.68116,-2.35749 -6.4831,1.76811 -12.37682,0 -16.50242,-5.30435 h -2.94686 l 2.94686,15.32367 -1.76812,8.25121 c 6.48309,20.03865 11.78744,40.66668 15.91305,60.70533 3.53623,20.62802 5.89372,41.84541 6.48309,64.24155 -0.58937,13.55556 -1.76812,27.11112 -2.35749,41.25605 -0.58937,14.14493 -2.94686,26.52174 -6.48309,38.89855 l -5.30435,2.35749 c -4.1256,7.66184 -8.84058,14.14493 -13.55556,21.80677 -5.30435,7.66183 -12.37681,12.37681 -20.62802,14.14493 l -1.17874,3.53623 18.8599,37.13044 z M 51.781719,447.99421 c 19.449278,-8.84058 38.309184,-17.68117 57.758461,-27.70049 18.85991,-10.01933 37.13044,-19.44928 54.8116,-30.64735 l 1.76812,-4.1256 v -12.37682 l -3.53623,-1.76811 -11.19807,1.76811 h -8.84058 l 5.30435,-9.42995 6.48309,1.76812 c 6.48309,-1.17875 12.96618,-3.53624 18.27053,-7.07247 5.30435,-3.53623 10.01933,-7.66183 14.14493,-12.96618 3.53624,-4.12561 5.89372,-8.84058 7.07247,-13.55556 1.17874,-5.30435 2.35749,-10.6087 3.53623,-15.91305 l -3.53623,-8.84058 -17.09179,-6.48309 h -20.62802 c 0,11.78744 -1.76812,22.98551 -5.89373,33.59421 -4.1256,10.01932 -8.2512,20.03865 -12.96618,29.4686 v 1.76812 h 3.53623 l -5.30435,9.42995 h -4.71497 c 0,-19.44928 0.58937,-38.89856 1.17874,-57.75846 0.58937,-18.85991 2.35749,-36.54107 5.30435,-54.22223 L 176.7286,243.4821 v -16.50242 l -5.30435,-2.35749 -18.85991,2.35749 h -17.09179 l 3.53624,-40.0773 12.37681,3.53623 12.96618,-2.35749 c 1.17875,-3.53623 1.76812,-7.07246 1.76812,-10.60869 0,-3.53624 1.76812,-6.4831 5.30435,-9.42996 v -15.91304 l -8.84058,-4.12561 -4.71498,1.76812 -17.09179,-1.76812 c -5.89372,-1.17874 -10.6087,0 -15.91304,2.94686 -5.30435,2.94686 -10.01933,5.89372 -15.32368,8.25121 l -4.71497,-1.76811 24.75362,-54.81161 h 4.71498 c 0.58937,5.89372 2.94686,11.19807 6.48309,14.73431 3.53623,4.71497 5.89372,10.01932 7.07247,16.50241 7.66183,0.58938 15.91304,2.35749 24.75362,4.71498 8.84058,2.94686 17.09179,5.89372 24.75363,9.42995 l 8.84058,-1.76811 1.76812,-3.53624 -1.76812,-10.60869 c -10.01932,-10.6087 -22.39614,-17.09179 -35.9517,-19.44928 -13.55555,-2.94686 -26.52174,-8.25121 -37.71981,-15.913047 l -1.76811,-7.072465 -29.46861,-5.89372 H 90.680275 v 5.89372 l -5.304348,1.178744 -7.072465,24.164258 h -4.125605 c -4.714976,23.57488 -12.376813,45.38165 -22.396138,66.59904 -10.608697,21.2174 -21.806767,41.84542 -34.772952,61.88407 v 3.53623 l 4.125604,-1.76812 h 4.714977 l 1.768116,3.53624 7.072465,-11.78744 25.932371,-21.2174 4.714976,-10.6087 7.661837,-1.76811 6.483093,-10.01933 4.714977,1.76812 1.178744,5.89372 h 1.768116 v 8.25121 l 5.304349,-4.12561 h 14.144928 c 0,4.71498 0,9.42996 0,15.91305 0,6.48309 1.17875,11.78744 2.94686,15.32367 l -1.17874,8.84058 c -8.25121,6.4831 -17.091792,10.01933 -25.343001,11.78745 -9.429954,1.76811 -18.859907,4.1256 -27.111116,8.25121 l -14.734301,11.19806 v 1.76812 l 8.840581,9.42995 25.932371,8.25121 c 5.304348,0 10.019325,-2.35749 14.734301,-7.66183 4.714977,-4.12561 10.019325,-7.66184 15.913045,-10.01933 h 2.94686 l 2.35749,17.68116 c 0,13.55556 0,27.11112 0.58937,40.66668 0.58937,14.7343 -1.76811,27.70048 -5.89372,40.0773 l -7.072463,2.35748 3.536233,5.30435 v 5.30435 c -11.787442,5.89372 -23.574884,9.42996 -37.130442,10.6087 -12.966185,1.76812 -24.753626,6.48309 -34.772952,14.7343 v 3.53623 l -14.734301,9.42996 v 1.76811 c 7.661837,-1.17874 13.555557,1.17875 18.270534,5.89372 4.125604,5.89372 10.019325,10.01933 17.09179,12.37682 z m 18.859906,-68.95654 h 5.304349 L 78.303462,369.60772 75.945974,353.1053 72.999113,339.54975 60.6223,347.80096 41.173022,338.371 h -5.304349 l 2.357488,11.19807 15.323674,20.03865 z M 325.83973,313.028 l 3.53623,-1.76811 2.94686,-5.30435 8.84059,2.94686 c 9.42995,-3.53623 18.27053,-7.66184 27.70048,-11.78744 9.42996,-4.12561 18.85991,-8.25121 28.87923,-11.78744 l 5.30435,-14.73431 v -5.30434 l -24.16425,-5.30435 -22.98551,7.07246 -0.58937,11.19807 -17.0918,15.91305 z m -63.65218,-44.2029 -1.76812,1.76811 h -3.53623 l 1.76812,-7.66183 -1.76812,-8.25121 1.76812,-9.42996 -1.76812,-8.2512 3.53623,-13.55556 34.18358,-17.09179 h 5.30435 l -1.17874,18.27053 h -5.89372 l 5.89372,16.50242 -2.35749,7.66184 -16.50242,3.53623 z"
       style="font-style:normal;font-variant:normal;font-weight:normal;font-stretch:normal;font-size:589.37207031px;font-family:'衡山毛筆フォント OTF';-inkscape-font-specification:'衡山毛筆フォント OTF, Normal';font-variant-ligatures:normal;font-variant-caps:normal;font-variant-numeric:normal;font-feature-settings:normal;text-align:start;writing-mode:lr-tb;text-anchor:start;white-space:pre;fill:#333333;stroke-width:25.62495232"
       id="path7" />
  </g>
</svg>
