<?xml version="1.0" encoding="UTF-8" standalone="no"?>
<svg
   xmlns:dc="http://purl.org/dc/elements/1.1/"
   xmlns:cc="http://creativecommons.org/ns#"
   xmlns:rdf="http://www.w3.org/1999/02/22-rdf-syntax-ns#"
   xmlns:svg="http://www.w3.org/2000/svg"
   xmlns="http://www.w3.org/2000/svg"
   id="svg2692"
   version="1.1"
   viewBox="0 0 500 500">
  <metadata
     id="metadata2698">
    <rdf:RDF>
      <cc:Work
         rdf:about="">
        <dc:format>image/svg+xml</dc:format>
        <dc:type
           rdf:resource="http://purl.org/dc/dcmitype/StillImage" />
        <dc:title />
      </cc:Work>
    </rdf:RDF>
  </metadata>
  <defs
     id="defs2696" />
  <g
     id="text2690"
     style="font-style:normal;font-variant:normal;font-weight:normal;font-stretch:normal;font-size:466.14691162px;font-family:'衡山毛筆フォント OTF';-inkscape-font-specification:'衡山毛筆フォント OTF, Normal';font-variant-ligatures:normal;font-variant-caps:normal;font-variant-numeric:normal;font-feature-settings:normal;text-align:start;writing-mode:lr-tb;text-anchor:start;white-space:pre;fill:#333333;stroke-width:20.26731873"
     transform="scale(0.99716942,1.0028386)"
     aria-label="飛">
    <path
       id="path7"
       style="font-style:normal;font-variant:normal;font-weight:normal;font-stretch:normal;font-size:466.14691162px;font-family:'衡山毛筆フォント OTF';-inkscape-font-specification:'衡山毛筆フォント OTF, Normal';font-variant-ligatures:normal;font-variant-caps:normal;font-variant-numeric:normal;font-feature-settings:normal;text-align:start;writing-mode:lr-tb;text-anchor:start;white-space:pre;fill:#333333;stroke-width:20.26731873"
       d="m 192.51885,478.64131 v -4.19532 h 3.26303 l 6.05991,-6.05991 1.39844,-6.05991 v -61.99754 l 1.86459,-1.39844 -1.86459,-10.25523 1.86459,-25.63808 -1.86459,-7.45835 1.86459,-60.13295 25.17193,-13.51826 6.05991,1.39844 -1.39844,4.19532 c -1.39844,23.30734 -0.93229,45.6824 1.39844,68.05745 2.33073,22.37505 6.9922,43.35166 13.51826,62.92983 14.45055,13.51826 29.8334,21.44276 46.61469,25.63808 16.78129,4.19532 34.49487,7.9245 52.6746,12.11982 12.11982,0.9323 22.8412,0.46615 32.63029,-2.33073 10.25523,-2.33074 20.04431,-5.12762 30.29955,-8.39065 l 6.52605,-6.05991 1.39844,-4.19532 h 5.59377 l -1.39844,-4.66147 c -4.66147,-3.26303 -10.25524,-5.59376 -15.849,-7.9245 -5.59376,-1.86458 -10.72138,-4.19532 -15.84899,-8.39064 v -1.39844 h -4.19533 v -3.26303 h -6.52605 l -13.05212,-18.17973 h -1.86458 l 3.26302,13.51826 c 0,5.12762 0,10.25523 0,14.9167 0,5.12762 -1.86458,9.32294 -6.05991,12.58597 -14.9167,-2.33074 -29.36725,-5.12762 -43.35166,-9.32294 -14.45055,-4.19532 -27.50267,-9.32294 -40.55478,-16.78129 -5.12762,-4.19532 -8.85679,-8.39064 -10.72138,-13.98441 -2.33073,-5.59376 -3.72917,-11.65367 -4.66147,-17.24743 v -68.05745 c 1.86459,-6.52606 3.26303,-13.98441 4.66147,-21.90891 0.93229,-6.9922 2.79688,-13.9844 6.05991,-20.04431 l 14.9167,-5.59377 v -10.72137 l -22.8412,-1.86459 v -2.79688 l -8.85679,-1.39844 c -4.19532,-0.9323 -7.45835,-0.9323 -10.72138,0 -2.79688,0.93229 -5.59376,2.79688 -8.39064,6.05991 v 2.79688 l -9.32294,1.39844 -1.86459,3.26303 -19.57817,10.25523 h -2.33073 l 0.93229,-19.57817 -0.93229,-6.99221 0.93229,-9.32293 c 0,-12.11982 0,-24.23964 0,-35.42717 0,-11.18752 -1.86459,-22.37505 -6.9922,-32.16414 -4.19532,-0.93229 -8.39065,-1.39844 -12.58597,-1.39844 -3.72917,0 -6.9922,-0.93229 -10.25523,-3.26303 h -1.39844 c 0,8.8568 0,18.17973 0,27.50267 0,9.78909 1.39844,18.64588 4.66147,26.57038 v 68.05745 l -1.86459,1.39844 -19.57817,8.85679 h -6.05991 c -3.26303,-4.19532 -5.59376,-8.39065 -8.39064,-12.11982 -3.26303,-4.19532 -6.99221,-7.45835 -11.18753,-10.25523 l 12.58597,-10.72138 c 5.59376,-6.99221 10.25523,-14.45056 12.58596,-23.30735 2.33074,-8.85679 4.66147,-17.24743 6.99221,-26.57037 l -1.86459,-16.31514 -28.43496,-11.65368 h -4.66147 l -4.19532,20.97661 2.33073,23.7735 c 0,8.85679 -0.93229,17.71358 -3.26303,26.10422 -2.33073,8.85679 -5.59376,16.78129 -9.78908,23.7735 v 2.79688 l 7.45835,-2.79688 c 3.26303,0 5.12761,1.86458 5.12761,5.12761 0.46615,3.26303 0.9323,6.05991 2.33074,7.9245 v 12.58597 l -31.697992,2.33073 -7.458351,7.9245 -4.195322,7.9245 h -4.661469 l -1.398441,5.59376 -9.322938,4.66147 c 3.263028,4.19532 7.458351,6.05991 12.585967,6.05991 5.127616,0 8.390644,1.86459 11.653672,6.05991 l 30.299554,-10.72138 h 4.19532 c 0,16.78129 -2.33074,33.09643 -6.52606,48.94542 -4.66147,15.38285 -10.72138,30.29955 -17.24743,44.28396 h -1.39845 v -4.66147 l -4.66146,6.05991 v 3.26303 h 14.9167 l 6.05991,-6.52606 c 10.72138,-14.9167 19.57817,-30.76569 25.63808,-48.47928 5.59376,-17.71358 9.32293,-35.89331 10.25523,-54.53918 l 18.17973,-9.32294 h 4.66147 v 121.66434 h -4.66147 v -1.39844 l -1.39844,6.05991 4.19532,10.25523 -1.39844,4.66147 4.66147,19.57817 z M 305.3264,378.41973 c 0.9323,-3.26303 3.26303,-5.12762 6.99221,-5.59377 3.26302,-0.46614 6.52605,-1.39844 9.78908,-2.33073 v -4.66147 h 2.79688 v -2.79688 h -2.79688 v -6.05991 h -2.79688 l -1.86459,-4.66147 c -6.05991,-2.79688 -12.58596,-5.12762 -18.64587,-6.52606 -6.52606,-1.39844 -13.05212,-3.26303 -18.64588,-5.12761 l 2.79688,0.93229 v 3.26303 l -6.05991,-1.39844 -4.66147,1.39844 7.9245,15.38285 z m -23.77349,-66.65901 c 6.52606,-6.05991 14.45055,-9.78909 22.37505,-11.18753 7.9245,-1.39844 15.849,-4.66147 22.37505,-9.78908 0.9323,-3.26303 0.9323,-6.05991 -0.46614,-8.39065 -1.39844,-1.86458 -2.79688,-4.66147 -3.72918,-7.92449 l -15.38285,-3.26303 h -2.79688 v 1.39844 l -10.72138,-1.39844 h -6.05991 l 3.26303,12.11982 -8.85679,27.03652 z m 64.32827,-71.78663 9.32294,-4.66146 4.66147,-6.05991 v -4.66147 l -13.98441,-8.85679 -4.19532,-9.32294 -6.05991,-2.79688 -9.32294,-13.51827 v -4.66146 l 13.98441,-5.59377 -4.66147,-13.9844 c -4.19532,-3.72918 -9.32294,-6.05991 -14.9167,-7.45836 -6.05991,-0.93229 -11.65367,-2.33073 -16.78129,-4.66146 l -14.9167,1.86458 4.19532,9.32294 c 4.19533,4.66147 9.32294,8.85679 13.98441,12.11982 5.12762,3.72918 9.78909,6.52606 14.9167,8.39065 0,4.19532 -0.46615,7.92449 -1.39844,11.18752 -0.93229,3.72918 -2.79688,6.99221 -6.05991,9.78909 L 275.493,191.49482 c -6.05991,-5.12762 -10.72138,-10.72138 -12.58597,-18.64588 -2.79688,-7.45835 -5.12761,-14.9167 -6.9922,-21.90891 l 6.05991,-20.97661 h 2.79688 l 2.79688,-6.05991 16.78129,-7.45835 2.79688,-6.05991 v -6.05991 c -4.66147,-1.86458 -9.78908,-3.72917 -15.38284,-5.127613 -6.05991,-1.398441 -10.72138,-3.729175 -15.849,-6.992204 -4.19532,-0.932293 -6.9922,-0.466146 -9.32294,1.398441 -1.86459,2.330735 -4.19532,3.729175 -6.9922,4.661469 l -1.86459,7.924497 -43.81781,14.9167 c -4.19532,0 -7.9245,0 -12.11982,0 -4.66147,0 -8.39064,-1.39844 -11.65367,-4.66147 h -7.45835 v 2.79688 l -4.66147,1.86459 -4.66147,8.85679 c -3.26303,1.86459 -6.05991,3.72918 -9.32294,5.59377 -3.72917,2.33073 -7.9245,3.26302 -13.05211,3.26302 v 3.26303 l 15.38285,8.85679 c 13.9844,0.9323 27.03652,0.46615 40.55478,-1.86458 13.05211,-1.86459 24.70578,-5.59377 35.89331,-11.65368 h 5.59376 c 1.39844,12.11982 3.26303,24.23964 6.52606,35.42717 3.26303,11.65367 8.85679,21.9089 16.31514,30.7657 13.98441,10.25523 28.90111,18.64587 44.7501,24.70578 15.38285,6.52606 32.16414,10.25523 49.87772,11.65367 z M 275.493,153.73692 c 7.9245,-5.12762 15.849,-8.39065 24.70579,-11.65368 8.39064,-3.26303 16.31514,-8.85679 23.30734,-16.31514 l -2.79688,-9.32294 -18.17973,-8.85679 h -4.66147 c -1.86459,7.45835 -4.66147,15.849 -7.9245,23.30735 -3.72917,8.39064 -8.39064,15.38285 -14.45055,21.44276 z" />
  </g>
</svg>
