<?xml version="1.0" encoding="UTF-8" standalone="no"?>
<svg
   xmlns:dc="http://purl.org/dc/elements/1.1/"
   xmlns:cc="http://creativecommons.org/ns#"
   xmlns:rdf="http://www.w3.org/1999/02/22-rdf-syntax-ns#"
   xmlns:svg="http://www.w3.org/2000/svg"
   xmlns="http://www.w3.org/2000/svg"
   id="svg654"
   version="1.1"
   viewBox="0 0 500 500">
  <metadata
     id="metadata660">
    <rdf:RDF>
      <cc:Work
         rdf:about="">
        <dc:format>image/svg+xml</dc:format>
        <dc:type
           rdf:resource="http://purl.org/dc/dcmitype/StillImage" />
        <dc:title />
      </cc:Work>
    </rdf:RDF>
  </metadata>
  <defs
     id="defs658" />
  <g
     id="text652"
     style="font-style:normal;font-variant:normal;font-weight:normal;font-stretch:normal;font-size:568.25024414px;font-family:'衡山毛筆フォント OTF';-inkscape-font-specification:'衡山毛筆フォント OTF, Normal';font-variant-ligatures:normal;font-variant-caps:normal;font-variant-numeric:normal;font-feature-settings:normal;text-align:start;writing-mode:lr-tb;text-anchor:start;white-space:pre;fill:#333333;stroke-width:24.70660782"
     transform="scale(0.99716994,1.0028381)"
     aria-label="角">
    <path
       id="path7"
       style="font-style:normal;font-variant:normal;font-weight:normal;font-stretch:normal;font-size:568.25024414px;font-family:'衡山毛筆フォント OTF';-inkscape-font-specification:'衡山毛筆フォント OTF, Normal';font-variant-ligatures:normal;font-variant-caps:normal;font-variant-numeric:normal;font-feature-settings:normal;text-align:start;writing-mode:lr-tb;text-anchor:start;white-space:pre;fill:#333333;stroke-width:24.70660782"
       d="m 142.74948,478.64156 2.273,-6.25075 h 6.25075 c 2.273,-18.75226 4.546,-38.07277 6.25075,-57.39328 1.70475,-19.32051 3.40951,-38.64102 6.25076,-57.39327 20.45701,-5.68251 40.34576,-11.36501 59.66627,-17.61576 19.88876,-6.25075 40.91402,-10.22851 62.50753,-13.06976 h 26.13951 l 6.25075,78.98679 v 10.2285 l -8.52375,-6.25075 h -2.273 v 2.273 h 2.273 c 0,5.6825 0,10.79675 0,17.04751 0,6.25075 1.70475,11.365 4.546,14.7745 l -2.273,12.50151 12.50151,19.88876 21.59351,-3.97775 v -4.54601 h 6.819 l -2.273,-28.98076 v -117.6278 l -2.273,-2.273 2.273,-36.93627 -4.546,-35.79976 4.546,-42.61877 6.819,-2.273 6.819,2.273 c 6.81901,1.70475 13.06976,1.1365 18.18401,-1.1365 5.11425,-1.70475 9.092,-5.11425 14.20626,-9.092 l -2.84125,-8.52376 c -12.50151,-4.546 -26.70777,-9.66025 -40.91402,-13.638 -14.20626,-3.97776 -28.98076,-7.95551 -43.18702,-10.79676 -21.59351,1.70475 -42.61877,4.546 -62.50753,7.9555 -21.02526,3.40951 -40.34576,9.09201 -59.09802,16.47926 h -6.81901 v -1.70475 h -5.6825 l -2.273,6.25075 -15.91101,3.97776 9.09201,20.457 v 7.95551 l -21.59351,-3.97775 -13.06976,2.273 -15.34275,-8.52376 c 1.1365,5.68251 1.70475,11.36501 1.70475,17.61576 0,5.6825 2.273,10.79676 7.38725,14.77451 l 6.25075,10.2285 c 7.38726,5.11425 10.22851,12.50151 9.66026,21.02526 -0.56825,8.52375 -0.56825,17.61576 1.1365,26.13951 v 11.36501 h -4.546 l -4.54601,12.5015 c 1.70475,3.4095 3.40951,7.95551 5.68251,11.93326 2.273,3.97775 3.4095,9.092 3.4095,14.20625 -4.546,14.77451 -6.81901,29.54902 -6.81901,44.89177 0,16.47926 -5.11425,30.11727 -14.7745,42.61877 l 8.52375,25.57126 z m 64.78053,-157.40532 -31.82202,7.38725 h -4.546 c 2.84125,-7.38725 5.11425,-16.47925 5.11425,-26.13951 0.56825,-9.092 1.1365,-18.75226 1.1365,-27.84426 l 32.39027,-3.97775 h 6.819 l -9.092,46.59652 z m 6.819,-2.273 h -4.546 v -6.25075 h 4.546 z m 93.19304,-19.88876 c -13.06976,2.273 -26.70776,4.546 -39.20927,7.38725 -13.06975,2.84126 -26.13951,5.68251 -39.20927,8.52376 h -7.9555 c 3.4095,-9.66026 9.09201,-18.18401 15.91101,-27.27601 6.25075,-9.09201 9.66025,-18.75226 9.66025,-29.54902 l 43.18702,-14.20625 h 10.79676 l 6.819,51.14252 z m -90.92004,-52.84727 -28.41251,9.66025 -10.79676,-1.70475 -6.25075,-18.18401 36.36802,-28.41251 h 4.546 l 6.819,22.73001 z m 62.50753,-18.18401 -28.41252,7.9555 h -3.97775 l -2.273,-30.11726 2.273,-10.2285 25.57126,-8.52376 h 13.63801 z m -86.37404,-52.84727 7.9555,-5.6825 6.81901,-2.27301 v -2.273 h 4.546 l 9.092,-9.66025 h 3.97775 v 1.70475 l 19.32051,-12.50151 10.79676,-5.6825 c 7.38725,-7.9555 15.911,-15.911 26.13951,-23.86651 10.2285,-6.819 17.61575,-15.342755 23.86651,-25.003009 l -2.273,-9.660254 -28.41252,-10.796755 -10.2285,2.273001 -13.63801,-3.977751 -6.25075,6.250752 -8.52375,6.250753 h -17.04751 l -2.273,-10.796755 -23.86651,-5.682502 h -23.86651 l -30.68551,63.07578 -21.59351,28.41251 4.546,1.70475 -2.84125,6.25075 v 3.97775 l 19.88876,-10.2285 c 8.52375,-5.11425 17.0475,-10.79675 26.13951,-16.47926 9.092,-4.546 15.911,-11.365 21.59351,-19.88876 l 8.52375,-4.546 6.25075,-15.911 h 4.546 l 2.27301,-7.955508 h 6.819 v 11.933258 h 10.79675 c 0,13.638 -3.4095,26.13951 -11.93325,36.36801 -8.52376,10.79676 -14.77451,21.59351 -20.45701,32.95852 z" />
  </g>
</svg>
