<?xml version="1.0" encoding="UTF-8" standalone="no"?>
<svg
   xmlns:dc="http://purl.org/dc/elements/1.1/"
   xmlns:cc="http://creativecommons.org/ns#"
   xmlns:rdf="http://www.w3.org/1999/02/22-rdf-syntax-ns#"
   xmlns:svg="http://www.w3.org/2000/svg"
   xmlns="http://www.w3.org/2000/svg"
   id="svg842"
   version="1.1"
   viewBox="0 0 500 500">
  <metadata
     id="metadata848">
    <rdf:RDF>
      <cc:Work
         rdf:about="">
        <dc:format>image/svg+xml</dc:format>
        <dc:type
           rdf:resource="http://purl.org/dc/dcmitype/StillImage" />
        <dc:title />
      </cc:Work>
    </rdf:RDF>
  </metadata>
  <defs
     id="defs846" />
  <g
     id="text840"
     style="font-style:normal;font-variant:normal;font-weight:normal;font-stretch:normal;font-size:516.95721436px;font-family:'衡山毛筆フォント OTF';-inkscape-font-specification:'衡山毛筆フォント OTF, Normal';font-variant-ligatures:normal;font-variant-caps:normal;font-variant-numeric:normal;font-feature-settings:normal;text-align:start;writing-mode:lr-tb;text-anchor:start;white-space:pre;fill:#333333;stroke-width:22.47646904"
     transform="scale(0.99716994,1.0028381)"
     aria-label="桂">
    <path
       id="path7"
       style="font-style:normal;font-variant:normal;font-weight:normal;font-stretch:normal;font-size:516.95721436px;font-family:'衡山毛筆フォント OTF';-inkscape-font-specification:'衡山毛筆フォント OTF, Normal';font-variant-ligatures:normal;font-variant-caps:normal;font-variant-numeric:normal;font-feature-settings:normal;text-align:start;writing-mode:lr-tb;text-anchor:start;white-space:pre;fill:#333333;stroke-width:22.47646904"
       d="m 160.79608,478.64156 c 3.6187,-2.06782 5.16957,-5.16957 5.16957,-9.82218 0,-4.65262 0.51696,-8.27132 1.55087,-11.37306 l -1.55087,-57.89921 1.55087,-9.82219 -6.72044,-72.37401 2.06783,-5.16957 -2.06783,-4.65261 v -29.98352 l 18.61046,11.37306 11.37306,-1.55088 1.55087,-3.10174 c -2.06783,-6.72044 -5.68653,-11.89001 -10.33914,-16.54263 -4.65262,-4.13566 -10.33915,-7.2374 -16.02568,-9.82219 l 3.6187,-49.62789 22.74612,-10.8561 2.06783,-6.72044 h 1.55087 v -2.06783 h -1.55087 l -2.06783,-8.27132 h -3.10174 v -2.58478 H 172.6861 c 0,-11.37306 0.51695,-21.71221 1.03391,-32.05135 0.51696,-9.82219 2.06783,-19.64438 4.13566,-29.46656 l -3.10175,-14.99176 -18.0935,-4.652617 -3.6187,-14.99176 -9.82219,-9.822187 h -3.6187 l 1.55088,5.169573 v 22.746117 h -3.10175 l -1.55087,5.169574 3.10174,23.26307 -4.65261,14.4748 4.65261,11.89002 -1.55087,34.11918 c -10.8561,6.72044 -23.26307,11.37306 -36.187,12.40697 -12.923933,1.55087 -25.847863,5.16957 -37.737879,10.8561 v 3.6187 l -18.093503,4.65262 v 3.10174 l 25.847861,8.27132 6.720444,-1.55088 14.991759,6.72045 c 4.652615,0 8.788268,0 13.440888,0 4.65261,0 7.75436,-1.55087 11.37306,-5.16957 l 8.27131,1.55087 c -3.6187,25.3309 -10.33914,49.11093 -20.67828,71.85705 -10.856106,22.74612 -22.229165,44.97528 -35.153096,66.68748 v 1.55087 c 13.957845,-6.20348 24.29699,-17.05959 31.017436,-30.50047 6.72044,-13.44089 16.02567,-26.36482 27.91569,-36.70397 l 3.6187,-5.16957 h 7.75436 l 2.06782,62.55183 c -2.58478,13.95784 -3.10174,28.9496 -1.55087,43.4244 1.03392,14.4748 -1.55087,28.43265 -6.72044,40.32266 l 16.54263,26.88178 z m 97.70491,-69.27226 c 12.92393,-4.65262 26.36482,-8.78828 39.28875,-13.44089 12.92393,-4.13566 26.88178,-7.2374 41.35658,-9.30523 16.54263,0 33.08526,0 48.59398,0 15.50871,0 30.50047,1.55087 45.49223,4.65261 5.16957,1.55088 9.82219,1.55088 14.4748,0 4.65262,-1.03391 8.27132,-3.10174 11.89002,-6.72044 l 2.58479,-4.65261 -2.58479,-8.27132 c -10.33914,-3.10174 -21.19525,-5.68653 -32.5683,-7.2374 -11.37306,-1.55087 -22.22917,-4.65262 -32.05135,-9.30523 l -11.37306,1.55087 -2.06783,8.27132 h -47.56006 l 8.27131,-22.74612 -1.55087,-11.89002 3.10174,-24.29699 5.16958,-1.55087 7.75435,-8.78827 h 5.16958 v 2.06783 h 5.16957 v -3.6187 h 7.75436 v -7.75436 h 5.16957 l 8.27131,-5.16957 v -8.27132 h -9.82218 v -2.06783 l -3.6187,-1.55087 -18.09351,3.6187 -17.57654,-2.06783 -5.16957,-17.57654 -11.37306,-5.16957 -6.72045,1.55087 -6.72044,-1.55087 h -9.82219 v 6.72044 h -3.10174 l -3.6187,5.16957 3.6187,9.30523 -1.55087,21.71221 -11.37306,3.10174 -8.78827,-1.55087 -10.8561,1.55087 v 1.55087 h -6.72045 l 17.57655,11.89002 v 3.10174 l 23.26307,6.72044 3.6187,24.81395 c 0,5.68653 -0.51696,10.33914 -1.55087,14.99176 -1.55087,5.16957 -3.10174,9.82219 -5.16957,14.4748 l -8.27132,3.10174 -8.27131,-3.10174 c -7.75436,0 -15.50872,1.03392 -23.26308,3.6187 -7.75436,3.10174 -14.99176,5.16957 -22.74611,6.20349 v 3.10174 l -18.09351,6.72044 1.55087,4.65262 c 7.23741,2.58479 14.99176,4.13566 22.22916,5.16957 6.72045,1.03392 13.95785,3.6187 20.67829,8.27132 z m 1.55087,-153.01934 c 15.50872,-6.72044 30.50048,-12.92393 46.52615,-18.0935 14.99176,-5.68653 31.01744,-8.27132 48.59398,-8.27132 l 36.70396,1.55088 h 16.54264 v -3.10175 h 8.27131 v -2.06783 h 1.03392 v -1.55087 h -1.03392 v -6.20348 l 4.65262,-1.55088 v -1.55087 c -9.82219,-2.58478 -20.16134,-4.65261 -29.46657,-6.20348 -9.82218,-1.55088 -19.12741,-4.13566 -27.91569,-7.75436 h 1.55088 v 5.16957 c -8.78828,1.03391 -16.54263,2.58479 -23.78004,5.16957 -7.75435,2.58479 -15.50871,3.6187 -24.29698,3.6187 h -5.16958 c 4.65262,-6.72044 8.27132,-14.4748 11.37306,-21.7122 2.58479,-7.75436 5.68653,-15.50872 8.78827,-23.26308 l 4.65262,-1.55087 h 3.6187 v 5.16957 h 1.55087 v -5.16957 h 3.6187 v 1.55087 c 1.03392,-3.10174 3.6187,-5.16957 7.2374,-6.72044 3.6187,-1.03391 7.2374,-1.55087 10.8561,-1.55087 v -6.20349 h 6.72045 v -3.10174 h -2.06783 v 3.10174 h -6.72044 v -6.72044 h 3.6187 v -3.10174 h 3.10174 v -2.06783 c -5.68653,-3.6187 -11.37306,-4.65262 -17.05959,-3.6187 -6.20348,1.55087 -11.89001,0.51695 -17.57654,-3.10175 l 1.55087,-25.84786 c 0,-4.65261 -0.51696,-8.27131 -1.55087,-11.890014 -1.03392,-3.618701 -2.58479,-6.720444 -4.65262,-9.30523 -3.6187,-4.652615 -7.2374,-7.237401 -10.8561,-7.754358 -4.13566,-0.516957 -8.27132,-1.033915 -12.40697,-1.033915 l -4.65262,-6.720443 h -2.06783 l -3.10174,11.890016 1.55087,7.754358 -1.55087,20.161336 3.10174,29.46656 v 16.54263 l -42.39049,11.89001 c 6.72045,3.6187 12.40697,7.2374 18.0935,11.89002 5.68653,5.16957 12.40698,7.2374 19.64438,6.20349 l -2.06783,12.92393 2.06783,6.72044 -2.06783,8.27132 c -13.95785,1.03391 -26.88178,3.10174 -39.80571,6.72044 -12.40697,4.13566 -24.81394,10.33914 -35.67004,17.57654 7.2374,1.03392 14.99176,3.10175 21.7122,6.72045 6.20349,3.6187 13.44089,5.68653 21.19524,6.72044 z" />
  </g>
</svg>
