<?xml version="1.0" encoding="UTF-8" standalone="no"?>
<svg
   xmlns:dc="http://purl.org/dc/elements/1.1/"
   xmlns:cc="http://creativecommons.org/ns#"
   xmlns:rdf="http://www.w3.org/1999/02/22-rdf-syntax-ns#"
   xmlns:svg="http://www.w3.org/2000/svg"
   xmlns="http://www.w3.org/2000/svg"
   viewBox="0 0 500 500"
   version="1.1"
   id="svg2609">
  <metadata
     id="metadata2615">
    <rdf:RDF>
      <cc:Work
         rdf:about="">
        <dc:format>image/svg+xml</dc:format>
        <dc:type
           rdf:resource="http://purl.org/dc/dcmitype/StillImage" />
        <dc:title />
      </cc:Work>
    </rdf:RDF>
  </metadata>
  <defs
     id="defs2613" />
  <g
     aria-label="金"
     transform="matrix(0.97722675,0,0,0.98278135,0.57760307,10.411071)"
     style="font-style:normal;font-variant:normal;font-weight:normal;font-stretch:normal;font-size:522.07849121px;font-family:'衡山毛筆フォント OTF';-inkscape-font-specification:'衡山毛筆フォント OTF, Normal';font-variant-ligatures:normal;font-variant-caps:normal;font-variant-numeric:normal;font-feature-settings:normal;text-align:start;writing-mode:lr-tb;text-anchor:start;white-space:pre;fill:#333333;stroke-width:22.69913483"
     id="text2607">
    <path
       d="m 145.90745,477.81628 c 19.83898,-7.83118 40.20004,-15.14028 61.08318,-20.88314 20.36106,-6.26494 42.28836,-9.39741 65.25981,-9.39741 l 78.83385,15.14027 c 6.26495,0 13.05197,-1.04415 18.79483,-2.61039 5.74286,-1.56623 9.91949,-3.65455 14.6182,-7.3091 l -3.65455,-12.0078 c -12.00781,-4.69871 -24.53769,-7.83118 -36.5455,-11.48573 -12.0078,-3.65455 -24.53769,-6.78702 -36.54549,-10.44157 h -6.78702 l 1.56623,2.08832 v 3.13247 c -12.52988,-1.04416 -24.01561,-0.52208 -34.97926,1.04415 -10.96364,1.56624 -21.92729,3.13247 -33.41302,4.17663 h -18.27275 l -1.56623,-8.35325 c 1.04416,-6.78703 1.56623,-14.09612 1.56623,-21.9273 0,-7.3091 1.04416,-14.6182 3.65455,-21.40522 l -2.08831,-6.78702 5.22078,-16.70651 -1.56623,-5.22079 4.69871,-16.70651 c 8.87533,-3.13247 18.79482,-5.22078 28.71431,-5.74286 9.91949,0 19.31691,-1.56624 28.19224,-3.65455 l 3.65455,-8.87534 h 6.26494 v -3.13247 h -3.13247 l -5.22078,-8.35325 -19.83899,-1.56624 c -4.6987,1.04416 -9.39741,1.56624 -15.14027,1.56624 -5.22079,0 -10.44157,1.04415 -15.14028,3.13247 h -8.35325 l -3.13248,-9.91949 v -18.27275 l 26.62601,-13.57404 4.6987,-11.48573 -4.6987,-9.91949 c -18.79483,-2.61039 -36.02342,0 -51.68577,7.3091 -16.18444,7.83118 -31.84679,12.52988 -48.5533,15.66235 l 2.08831,5.22079 21.40522,12.00781 13.05196,4.6987 8.87534,15.14028 v 11.48572 c -12.52989,4.69871 -25.05977,8.35326 -38.11173,10.96365 -14.09612,2.6104 -26.62601,7.3091 -39.15589,14.09612 7.83118,2.61039 15.66235,5.74287 21.9273,9.39742 6.78702,3.65454 14.09612,6.26494 21.40521,7.30909 5.74287,0 11.48573,-1.56623 16.70652,-4.17662 4.17662,-2.6104 8.87533,-4.69871 13.57404,-7.3091 h 6.78702 l 1.56623,15.14027 -3.13247,39.67797 -13.57404,3.65455 3.13247,9.91949 5.22079,3.13247 3.65455,10.44157 6.78702,4.69871 v 3.65455 c -16.18444,5.22078 -32.89095,8.35325 -51.1637,8.87533 -18.27274,0.52208 -34.97925,3.65455 -51.163688,9.39741 l 3.654548,6.26495 c 6.78702,4.6987 13.05196,8.35325 20.88314,10.96364 7.3091,2.6104 14.6182,5.22079 22.44938,7.83118 z m 0,-58.99487 5.22078,-1.56623 3.13247,-6.26495 4.69871,-1.56623 -1.04416,-23.49353 -13.57404,6.26494 -27.14808,-11.48573 h -4.69871 l 8.35326,23.49353 15.14028,8.35326 v 3.13247 z m 95.01828,-18.27275 c 4.69871,-4.6987 9.39741,-7.30909 15.66236,-8.35325 6.26494,-0.52208 12.0078,-1.56624 17.75067,-2.61039 3.65454,-2.6104 7.30909,-4.69871 12.0078,-6.26495 4.17663,-1.56623 7.3091,-4.6987 9.39741,-9.39741 l -3.13247,-11.48573 -18.27274,-6.78702 -25.05977,1.56624 3.13247,5.22078 c 0,6.78702 -1.04416,13.05197 -2.61039,19.31691 -1.56624,6.26494 -4.17663,11.48573 -8.87534,17.22859 z M 28.961864,334.2447 c 8.875335,-4.69871 18.272748,-8.35326 26.626003,-12.52989 8.875335,-3.65455 18.272748,-7.3091 28.714318,-10.96365 l 28.192235,-38.11173 9.91949,-5.22078 18.27275,-38.63381 5.22079,-1.56623 c 6.78702,-12.00781 13.05196,-24.01562 19.83898,-35.50134 6.78702,-12.00781 13.57404,-22.97146 19.83898,-34.45718 l 10.44157,-3.65455 3.13247,-9.39742 h 4.69871 l 43.33251,41.24421 20.36106,20.36106 c 27.67016,32.36886 60.03903,55.8624 96.06245,71.00267 36.02341,14.6182 74.13514,22.97146 114.33519,24.01561 l 9.39741,-1.56623 -1.56624,-6.78702 -6.26494,-6.78702 c -42.28836,-14.6182 -81.44424,-34.97926 -118.51182,-61.08319 -36.54549,-26.10392 -72.56891,-53.252 -108.59232,-82.4884 v -3.13247 l -14.6182,-11.48573 c -6.78702,-5.74286 -11.48573,-12.52988 -13.05196,-19.83898 -1.04416,-7.831177 -3.13247,-16.184433 -5.22079,-23.493531 l -33.9351,-5.220785 -9.39741,3.654549 c -4.69871,27.148077 -12.52988,53.774087 -24.01561,79.355927 -12.00781,26.10393 -25.58185,50.64162 -41.2442,74.13515 -12.529886,16.70651 -24.537692,33.41302 -37.067575,50.11953 -12.007806,17.75067 -26.626003,33.41303 -44.898751,48.03123 z"
       style="font-style:normal;font-variant:normal;font-weight:normal;font-stretch:normal;font-size:522.07849121px;font-family:'衡山毛筆フォント OTF';-inkscape-font-specification:'衡山毛筆フォント OTF, Normal';font-variant-ligatures:normal;font-variant-caps:normal;font-variant-numeric:normal;font-feature-settings:normal;text-align:start;writing-mode:lr-tb;text-anchor:start;white-space:pre;fill:#333333;stroke-width:22.69913483"
       id="path7" />
  </g>
</svg>
