<?xml version="1.0" encoding="UTF-8" standalone="no"?>
<svg
   xmlns:dc="http://purl.org/dc/elements/1.1/"
   xmlns:cc="http://creativecommons.org/ns#"
   xmlns:rdf="http://www.w3.org/1999/02/22-rdf-syntax-ns#"
   xmlns:svg="http://www.w3.org/2000/svg"
   xmlns="http://www.w3.org/2000/svg"
   id="svg573"
   version="1.1"
   viewBox="0 0 500 500">
  <metadata
     id="metadata579">
    <rdf:RDF>
      <cc:Work
         rdf:about="">
        <dc:format>image/svg+xml</dc:format>
        <dc:type
           rdf:resource="http://purl.org/dc/dcmitype/StillImage" />
        <dc:title />
      </cc:Work>
    </rdf:RDF>
  </metadata>
  <defs
     id="defs577" />
  <g
     id="text571"
     style="font-style:normal;font-variant:normal;font-weight:normal;font-stretch:normal;font-size:535.09918213px;font-family:'衡山毛筆フォント OTF';-inkscape-font-specification:'衡山毛筆フォント OTF, Normal';font-variant-ligatures:normal;font-variant-caps:normal;font-variant-numeric:normal;font-feature-settings:normal;text-align:start;writing-mode:lr-tb;text-anchor:start;white-space:pre;fill:#333333;stroke-width:23.26525307"
     transform="scale(0.99716994,1.0028381)"
     aria-label="香">
    <path
       id="path7"
       style="font-style:normal;font-variant:normal;font-weight:normal;font-stretch:normal;font-size:535.09918213px;font-family:'衡山毛筆フォント OTF';-inkscape-font-specification:'衡山毛筆フォント OTF, Normal';font-variant-ligatures:normal;font-variant-caps:normal;font-variant-numeric:normal;font-feature-settings:normal;text-align:start;writing-mode:lr-tb;text-anchor:start;white-space:pre;fill:#333333;stroke-width:23.26525307"
       d="m 281.87751,478.64156 c 2.6755,-2.1404 4.8159,-3.74569 6.95629,-5.35099 2.1404,-1.6053 4.2808,-1.6053 8.02649,-0.5351 8.02649,-22.47417 11.77218,-46.01853 11.77218,-70.63309 0,-24.61456 3.7457,-47.62383 10.70199,-70.098 l 18.72847,-6.95628 -3.7457,-12.30729 -6.42119,-6.42119 -40.66753,-13.91257 h -13.37748 v 1.60529 h -2.6755 v 3.7457 c -9.63179,0.5351 -19.79867,1.60529 -29.43046,3.21059 -10.16688,1.6053 -18.72847,4.2808 -27.82515,6.95629 h -4.2808 c 1.0702,-13.37748 2.1404,-27.82516 2.6755,-41.73773 0.5351,-13.91258 1.6053,-28.36026 3.74569,-41.73774 h 4.8159 l 16.05297,17.12317 c 23.54437,19.79867 48.69403,37.45695 75.44899,52.97482 26.21986,15.51788 55.65031,23.54437 87.75626,23.54437 5.35099,0 10.70199,0 16.58808,0.5351 5.35099,0.53509 10.16688,-1.0702 13.91258,-4.2808 l 2.14039,-6.42119 h 1.6053 c -16.05298,-6.95629 -32.10595,-13.91258 -48.69403,-20.86887 -16.05297,-6.95629 -33.17614,-11.77218 -51.36952,-15.51787 -19.26357,-8.56159 -37.99204,-18.72847 -54.58011,-31.03576 -16.58808,-11.77218 -31.03576,-26.75495 -42.80794,-44.41323 v -3.74569 c 13.91258,-1.0702 27.82516,-3.7457 40.66754,-7.49139 13.37748,-4.28079 26.21986,-6.42119 40.13244,-6.42119 l -2.6755,-13.91258 c -9.09668,-3.21059 -18.72847,-4.81589 -27.29006,-4.81589 -9.09668,0 -17.65827,-1.6053 -26.21986,-4.81589 h -8.56158 l -5.88609,8.02648 -24.07947,9.09669 h -3.74569 l 1.6053,-18.72847 -4.8159,-17.12318 -20.86886,-1.60529 1.60529,-4.8159 c 7.49139,-4.28079 14.98278,-7.49138 24.07947,-9.63178 8.56158,-1.6053 16.58807,-4.28079 24.07946,-8.02649 l -4.28079,-13.912578 c -6.95629,-3.210595 -13.91258,-5.886091 -21.40397,-8.026488 -8.02649,-2.140396 -14.44768,-6.42119 -19.26357,-13.377479 h -4.81589 c -3.7457,16.588075 -10.16689,30.500655 -19.26357,42.807935 -10.16689,11.77218 -19.26358,24.07946 -29.43046,36.92184 5.88609,-3.74569 11.23708,-7.49139 16.05298,-12.30728 5.35099,-4.28079 11.77218,-6.95629 19.26357,-8.02649 h 3.21059 c -1.0702,6.95629 -1.6053,14.98278 -1.6053,24.07947 0,8.56158 -1.60529,16.58807 -6.42119,23.54436 -13.91258,4.28079 -27.82515,8.56159 -42.27283,11.77218 -14.98278,3.7457 -28.89536,7.49139 -42.807936,11.77219 v 2.67549 l -21.403968,6.42119 c 4.280794,5.35099 9.096686,8.02649 14.982777,8.56159 5.350992,0.5351 10.166885,2.67549 15.517877,6.42119 l 45.48343,-8.56159 h 4.81589 l -3.21059,6.42119 3.21059,5.88609 c -9.09668,25.68476 -19.79867,49.76423 -33.17615,72.77349 -12.84238,23.54437 -28.895352,45.48343 -47.623824,66.3523 v 2.1404 c 6.42119,-2.6755 12.842381,-5.88609 19.263571,-9.63179 5.350992,-3.21059 11.237083,-7.49139 16.588073,-12.84238 h 4.81589 l 9.09669,12.30728 10.16688,6.42119 14.44768,36.92185 -1.60529,12.30728 c 1.07019,8.56158 3.21059,16.05297 6.95628,23.00926 3.2106,6.95629 7.49139,13.37748 12.30729,19.79867 l 11.77218,8.02649 52.43972,-6.95629 h 10.16688 l -11.23708,2.1404 h -8.02649 v -3.2106 l 25.68476,-5.35099 h 9.63179 l 1.60529,6.42119 3.2106,2.1404 2.1404,4.81589 6.42119,2.6755 h 1.60529 v -9.63179 c 3.2106,0 5.351,1.0702 6.95629,3.2106 1.6053,2.67549 4.2808,3.21059 6.95629,2.14039 l 2.1404,5.88609 z m -30.50065,-37.99204 -52.97482,2.1404 h -13.37748 c -2.1404,-9.09669 -3.74569,-17.12318 -5.88609,-25.14967 -2.1404,-7.49138 -5.35099,-14.98277 -10.16688,-22.47416 v -3.2106 c 12.84238,0 24.61456,-2.67549 35.31654,-6.95629 11.23708,-4.81589 21.40397,-9.63178 31.03575,-14.98277 v -4.2808 l -12.30728,-3.74569 c -11.23708,0 -20.86886,1.6053 -29.43045,3.74569 -9.09669,2.6755 -17.12318,5.88609 -26.21986,8.56159 l -4.81589,-1.6053 -4.8159,-12.30728 v -4.81589 c 2.1404,-5.35099 5.88609,-10.70198 10.70199,-14.98278 4.81589,-4.81589 10.16688,-8.02649 14.98277,-10.16688 l 8.56159,1.60529 1.6053,4.8159 8.02649,3.21059 v 3.2106 c 7.49138,-1.0702 14.98277,-2.6755 21.93906,-4.8159 6.42119,-2.14039 13.37748,-5.35099 19.79867,-9.63178 l 6.42119,1.6053 8.02649,52.43972 c 0,8.02648 0,16.58807 0,25.14966 0,8.02649 -1.0702,16.05297 -3.2106,24.07946 l -4.81589,0.5351 1.6053,5.35099 z m -108.09003,-86.68607 -1.6053,1.6053 -27.29006,-6.42119 5.88609,-13.91258 h 3.74569 c 13.37748,-15.51788 24.07947,-32.64105 33.17615,-50.29932 8.56159,-17.12318 18.19338,-34.24635 27.82516,-51.36952 h 4.81589 v 42.80793 h -6.42119 l -2.67549,27.29006 1.0702,8.02649 v 7.49138 h -2.6755 v 4.8159 z" />
  </g>
</svg>
