<?xml version="1.0" encoding="UTF-8" standalone="no"?>
<svg
   xmlns:dc="http://purl.org/dc/elements/1.1/"
   xmlns:cc="http://creativecommons.org/ns#"
   xmlns:rdf="http://www.w3.org/1999/02/22-rdf-syntax-ns#"
   xmlns:svg="http://www.w3.org/2000/svg"
   xmlns="http://www.w3.org/2000/svg"
   id="svg2526"
   version="1.1"
   viewBox="0 0 500 500">
  <metadata
     id="metadata2532">
    <rdf:RDF>
      <cc:Work
         rdf:about="">
        <dc:format>image/svg+xml</dc:format>
        <dc:type
           rdf:resource="http://purl.org/dc/dcmitype/StillImage" />
        <dc:title />
      </cc:Work>
    </rdf:RDF>
  </metadata>
  <defs
     id="defs2530" />
  <g
     id="text2524"
     style="font-style:normal;font-variant:normal;font-weight:normal;font-stretch:normal;font-size:498.58496094px;font-family:'衡山毛筆フォント OTF';-inkscape-font-specification:'衡山毛筆フォント OTF, Normal';font-variant-ligatures:normal;font-variant-caps:normal;font-variant-numeric:normal;font-feature-settings:normal;text-align:start;writing-mode:lr-tb;text-anchor:start;white-space:pre;fill:#ff0000;stroke-width:21.67767334"
     transform="scale(0.99716992,1.0028381)"
     aria-label="全">
    <path
       id="path7"
       style="font-style:normal;font-variant:normal;font-weight:normal;font-stretch:normal;font-size:498.58496094px;font-family:'衡山毛筆フォント OTF';-inkscape-font-specification:'衡山毛筆フォント OTF, Normal';font-variant-ligatures:normal;font-variant-caps:normal;font-variant-numeric:normal;font-feature-settings:normal;text-align:start;writing-mode:lr-tb;text-anchor:start;white-space:pre;fill:#ff0000;stroke-width:21.67767334"
       d="m 115.92087,478.64157 c 14.45896,-0.99717 28.91792,-2.99151 43.37689,-6.98019 13.96038,-3.49009 27.42217,-6.4816 41.38255,-9.47311 l 4.48726,0.99717 54.34576,-4.48727 c 13.4618,-2.49292 26.42501,-1.99434 37.39388,1.49576 11.46745,2.99151 22.43632,4.98585 33.40519,6.4816 l 32.40802,-3.49009 4.98585,-6.48161 -3.49009,-11.96604 -69.30331,-14.95755 v -3.49009 h -4.98585 v -3.4901 h -1.99434 v 4.98585 c -10.96887,5.48444 -22.93491,9.47312 -35.89812,10.96887 -12.96321,1.99434 -25.92642,2.99151 -38.39104,3.98868 h -26.92359 c 2.49292,-12.96321 4.98585,-25.92642 7.97736,-39.38821 2.49292,-12.96321 4.48726,-25.92642 5.98302,-39.8868 11.96604,-3.49009 24.92925,-4.98585 37.89246,-6.4816 12.9632,-0.99717 25.92641,-3.98868 37.89245,-8.47595 l -1.99434,-13.46179 -33.40519,-6.98019 c -4.48726,0 -9.47311,0.49859 -13.96038,0.99717 -3.98868,0.49859 -7.97736,2.49293 -11.46745,5.98302 l -6.98019,-3.49009 1.49575,-19.9434 -1.49575,-22.43633 v -6.4816 l 40.38538,-11.96604 12.46462,-11.96604 -3.49009,-7.97736 -32.40802,-6.98019 c -9.9717,3.4901 -20.44199,6.48161 -30.41369,9.47312 -10.47028,2.49292 -20.94056,4.98585 -31.90943,6.98019 l -20.44199,-4.98585 h -1.49575 v 3.49009 h -6.98019 l -4.98585,10.47029 -11.46745,3.49009 v 1.49576 l 19.94339,2.99151 c 2.49293,2.49292 3.98868,4.98584 4.98585,7.47877 0.99717,2.99151 1.49576,6.4816 1.49576,9.9717 l 23.93208,2.99151 c 0,3.49009 0,6.4816 0,9.9717 0,3.49009 1.49575,6.4816 4.98585,8.97453 l -1.49576,7.97736 4.98585,8.97453 v 9.9717 l -40.38538,6.4816 -13.96038,-2.99151 h -2.99151 v 6.4816 l 16.95189,16.95189 c 6.4816,0 12.96321,-0.49858 18.44764,-0.99717 5.48444,-0.49858 10.96887,-1.49575 16.95189,-3.98868 h 6.48161 l -6.48161,41.88114 h -3.49009 l -4.98585,12.46462 8.47594,19.9434 -1.99434,8.47595 c -2.49292,0 -4.98585,-0.49859 -6.98019,-0.99717 -2.99151,-0.49859 -4.98585,-1.99434 -6.4816,-4.48727 -13.4618,-0.99717 -25.92642,0.49859 -36.89529,4.48727 -11.46745,3.98868 -22.436323,6.98019 -33.903777,9.47311 z M 36.645857,335.0491 50.107651,323.08306 60.07935,309.62127 85.507183,292.66938 c 16.951887,-19.9434 32.906607,-40.88397 47.365567,-62.32312 14.45897,-21.43915 27.92076,-43.87548 38.88963,-67.80756 l 4.98585,3.4901 c 34.90095,34.90095 70.79907,66.81038 108.69152,95.22973 36.89529,28.91792 79.7736,46.3684 127.63775,51.85283 10.47029,1.49576 19.9434,0.99717 29.9151,-0.99717 9.47311,-1.49575 18.94623,-2.99151 29.41651,-3.98868 l -8.47594,-3.49009 v -3.4901 c -18.94623,-7.97736 -38.39104,-14.95755 -57.33727,-21.43915 -18.94623,-5.98302 -38.39104,-12.96321 -57.33727,-20.94057 -25.92642,-15.95472 -51.85284,-32.90661 -77.28067,-50.85566 -25.42783,-17.94906 -47.36557,-38.39105 -66.81039,-62.32312 l -7.97736,-8.47595 -12.46462,-4.98585 -0.99717,-9.9717 -6.98019,-3.49009 v -3.4901 l -11.96604,-13.46179 h -2.99151 v 3.49009 h -8.97453 l -4.98585,13.4618 -7.97736,1.49575 c -6.98019,39.38821 -19.94339,76.78209 -38.88962,111.68303 -19.444817,34.90095 -40.88397,68.80473 -64.317463,101.71134 z" />
  </g>
</svg>
