<?xml version="1.0" encoding="UTF-8" standalone="no"?>
<svg
   xmlns:dc="http://purl.org/dc/elements/1.1/"
   xmlns:cc="http://creativecommons.org/ns#"
   xmlns:rdf="http://www.w3.org/1999/02/22-rdf-syntax-ns#"
   xmlns:svg="http://www.w3.org/2000/svg"
   xmlns="http://www.w3.org/2000/svg"
   id="svg2443"
   version="1.1"
   viewBox="0 0 500 500">
  <metadata
     id="metadata2449">
    <rdf:RDF>
      <cc:Work
         rdf:about="">
        <dc:format>image/svg+xml</dc:format>
        <dc:type
           rdf:resource="http://purl.org/dc/dcmitype/StillImage" />
        <dc:title />
      </cc:Work>
    </rdf:RDF>
  </metadata>
  <defs
     id="defs2447" />
  <g
     id="text2441"
     style="font-style:normal;font-variant:normal;font-weight:normal;font-stretch:normal;font-size:513.81402588px;font-family:'衡山毛筆フォント OTF';-inkscape-font-specification:'衡山毛筆フォント OTF, Normal';font-variant-ligatures:normal;font-variant-caps:normal;font-variant-numeric:normal;font-feature-settings:normal;text-align:start;writing-mode:lr-tb;text-anchor:start;white-space:pre;fill:#ff0000;stroke-width:22.33980751"
     transform="scale(0.99716954,1.0028385)"
     aria-label="圭">
    <path
       id="path7"
       style="font-style:normal;font-variant:normal;font-weight:normal;font-stretch:normal;font-size:513.81402588px;font-family:'衡山毛筆フォント OTF';-inkscape-font-specification:'衡山毛筆フォント OTF, Normal';font-variant-ligatures:normal;font-variant-caps:normal;font-variant-numeric:normal;font-feature-settings:normal;text-align:start;writing-mode:lr-tb;text-anchor:start;white-space:pre;fill:#ff0000;stroke-width:22.33980751"
       d="m 100.75188,478.64139 c 22.094,-6.16576 43.67419,-13.35916 64.74057,-21.58019 21.06637,-7.19339 43.16037,-13.35916 66.282,-17.98349 l 43.6742,1.54145 7.70721,-1.54145 c 20.03874,-3.08288 38.53605,-1.54144 55.49191,5.13814 16.44205,6.67959 33.91173,10.7901 52.92285,11.81773 l 4.62432,-1.54145 8.73484,1.54145 h 16.44205 l 2.05526,-5.13814 c 4.11051,0 7.70721,-0.51382 11.3039,-1.02763 3.5967,-0.51382 6.16577,-2.05526 8.22103,-5.65196 l -1.54144,-9.76246 c -13.87298,-5.65196 -27.23215,-10.7901 -41.61894,-14.90061 -14.90061,-3.5967 -28.77358,-6.67958 -43.16038,-10.27628 l -3.5967,3.5967 -46.24326,-1.54144 -3.5967,1.54144 -51.3814,-1.54144 -10.27628,1.54144 h -9.76247 c 5.13814,-11.30391 9.24866,-22.60782 11.81773,-35.45317 2.05525,-11.81772 5.13814,-23.63544 9.76246,-34.42554 l 46.24327,-13.87298 2.05525,-4.62432 h 9.76247 l 2.05525,-5.13814 -2.05525,-8.22103 c -9.76247,-4.11051 -20.03875,-6.16577 -31.34266,-5.13814 -11.30391,1.54144 -22.60781,1.02763 -33.39791,-1.54144 l -1.54144,-9.76247 c -6.67958,-2.56907 -13.35917,-4.62432 -20.55256,-7.19339 -7.70721,-1.54145 -13.87298,-6.16577 -19.52493,-12.84535 v -3.5967 c 20.03874,-7.1934 41.61893,-11.30391 65.25438,-10.7901 23.12163,0.51382 44.70182,-3.08288 64.74056,-10.79009 v -11.30391 c -11.3039,-3.5967 -22.094,-5.65195 -33.39791,-7.1934 -11.30391,-1.02763 -22.60782,-2.56907 -33.39791,-4.62432 l -8.22102,3.08288 -6.67959,-1.54144 h -4.62432 v 3.5967 l -7.1934,1.54144 -1.54144,5.13814 -9.76247,1.54144 h -10.27628 c 3.5967,-7.70721 6.67958,-15.41442 10.27628,-22.60782 3.5967,-7.19339 6.16577,-14.9006 9.76247,-22.094 8.73484,-5.65195 17.98349,-10.79009 28.25977,-15.41442 9.76247,-4.11051 20.55256,-7.1934 31.34266,-9.76247 l 8.73483,-8.73483 1.54145,-6.16577 -1.54145,-10.27628 c -9.76246,0 -19.52493,0.51381 -28.25977,1.02762 -8.73484,0.51382 -17.98349,2.05526 -26.71833,4.11052 l -6.67958,-3.08289 3.5967,-23.63544 -3.5967,-8.22103 -26.71833,-9.76246 c -3.5967,-2.56907 -6.16577,-4.62433 -9.76246,-6.165772 -3.5967,-1.541442 -5.65196,-4.110512 -6.67959,-7.193396 h -1.54144 l -2.05526,11.303908 c 0,4.62433 0.51382,9.24865 1.02763,12.33154 0.51382,4.11051 2.05526,7.70721 4.11052,11.30391 v 41.61893 l -51.38141,12.84535 -4.62432,-1.54144 -31.85647,1.54144 1.54144,5.13814 c 7.70721,6.67959 16.44205,11.81773 26.20451,13.87298 9.24866,3.08289 19.01112,5.65196 28.25978,7.70721 l 7.19339,-1.54144 c 2.05526,0 4.62433,0 7.70721,0 2.56907,0 4.62433,1.02763 6.67958,3.5967 -1.02762,6.67958 -2.56907,12.84535 -3.59669,19.52493 -1.54145,6.67958 -4.11052,13.35917 -7.70721,18.49731 -10.27628,4.62432 -20.03875,7.19339 -30.82885,8.22102 -10.27628,1.54144 -21.06637,2.56907 -32.37028,3.5967 l -1.54144,4.62432 -23.121632,5.13814 c 6.679582,5.65196 13.872982,9.24866 22.607812,11.81773 8.22103,2.56907 15.41443,5.65195 22.09401,11.30391 l 43.16038,-14.90061 h 7.19339 l -3.5967,18.4973 v 6.67959 l 6.16577,1.54144 3.5967,11.81772 -2.05526,8.22103 -47.7847,9.76246 -14.90061,-5.13814 h -2.05525 l 3.5967,5.13814 v 3.5967 h -3.5967 l 2.05525,5.13814 c 4.62433,4.62433 8.73484,7.70721 13.35917,11.30391 4.11051,3.5967 9.24865,5.65195 14.9006,6.67958 l 8.22103,-1.54144 28.25977,1.54144 c -1.54144,10.27628 -2.05526,20.03875 -2.05526,30.82884 0,10.27628 -2.56907,20.03875 -7.70721,27.23215 -13.87297,4.62432 -27.23214,8.73483 -40.5913,12.84535 -14.3868,4.11051 -28.25978,6.67958 -42.64657,8.73484 l -10.276278,-3.08289 h -5.138141 l -6.165768,9.76247 -23.121631,3.5967 v 6.16576 h -2.055256 l 18.497305,15.41443 9.762466,-1.54145 h 6.679583 z" />
  </g>
</svg>
