<?xml version="1.0" encoding="UTF-8" standalone="no"?>
<svg
   xmlns:dc="http://purl.org/dc/elements/1.1/"
   xmlns:cc="http://creativecommons.org/ns#"
   xmlns:rdf="http://www.w3.org/1999/02/22-rdf-syntax-ns#"
   xmlns:svg="http://www.w3.org/2000/svg"
   xmlns="http://www.w3.org/2000/svg"
   viewBox="0 0 500 500"
   version="1.1"
   id="svg2360">
  <metadata
     id="metadata2366">
    <rdf:RDF>
      <cc:Work
         rdf:about="">
        <dc:format>image/svg+xml</dc:format>
        <dc:type
           rdf:resource="http://purl.org/dc/dcmitype/StillImage" />
        <dc:title />
      </cc:Work>
    </rdf:RDF>
  </metadata>
  <defs
     id="defs2364" />
  <g
     aria-label="杏"
     transform="matrix(0.94313569,0,0,0.94849708,11.983522,26.00996)"
     style="font-style:normal;font-variant:normal;font-weight:normal;font-stretch:normal;font-size:535.25170898px;font-family:'衡山毛筆フォント OTF';-inkscape-font-specification:'衡山毛筆フォント OTF, Normal';font-variant-ligatures:normal;font-variant-caps:normal;font-variant-numeric:normal;font-feature-settings:normal;text-align:start;writing-mode:lr-tb;text-anchor:start;white-space:pre;fill:#ff0000;stroke-width:23.27188301"
     id="text2358">
    <path
       d="m 224.40401,478.44076 c 10.16978,0.53525 20.33956,0 29.43884,-1.60575 9.63453,-1.60576 18.19856,-4.81727 26.76259,-9.09928 l 12.84604,8.56403 13.91654,-7.49353 c 5.88777,-11.24028 10.16979,-24.08632 12.84605,-37.46762 2.67625,-13.91654 4.81726,-26.76258 6.95827,-40.14388 l 7.49352,-8.02877 2.67626,-3.21151 c 4.28201,-6.95827 8.02878,-13.91655 11.24029,-20.87482 3.21151,-6.95827 6.42302,-13.91654 9.63453,-20.87481 l -2.67626,-10.16979 c -6.95827,-3.74676 -14.4518,-5.88777 -21.94532,-8.56402 -8.02878,-2.67626 -14.98705,-6.42302 -20.87482,-11.24029 l -2.141,3.21151 -5.35252,-3.21151 -7.49353,4.28201 -4.28201,-1.0705 h -2.14101 v 2.14101 l -29.43884,6.42302 c -2.67626,0.53525 -4.81727,0 -5.88777,-1.60576 -1.0705,-1.60575 -2.67626,-3.21151 -4.81726,-3.74676 v -2.14101 h -2.14101 v -2.141 l -3.74676,-3.21151 -6.42302,-3.21151 c 2.141,-10.70504 4.28201,-21.94532 6.42302,-32.65036 1.60575,-10.70503 3.21151,-21.41007 4.81726,-32.65035 l 13.91655,13.91654 h 2.141 l 18.73381,21.41007 c 24.62158,26.76259 52.98992,44.96114 86.17553,55.66618 32.1151,11.24028 65.30071,20.33956 98.48631,28.36834 h 13.3813 l 3.21151,-15.5223 -4.28202,-9.63453 -7.49352,-2.67626 -1.07051,-3.21151 c -21.41006,-8.56403 -43.89064,-15.5223 -66.90646,-19.80431 -23.55107,-4.28202 -45.49639,-11.77554 -65.83596,-23.01583 -5.88777,-4.81726 -12.31079,-9.09928 -18.73381,-13.38129 -6.42302,-3.74676 -11.77554,-8.56403 -16.5928,-13.91654 l -3.21151,-3.21151 -7.49353,-4.28202 -16.05755,-24.08633 -7.49352,-4.28201 v -2.14101 l -6.95827,-6.42302 -11.77554,-8.02877 8.56403,-14.4518 39.07337,1.07051 4.28201,-1.07051 21.94532,3.21151 31.57986,-1.0705 2.141,1.0705 11.77554,-3.21151 7.49352,1.07051 c 3.21151,0 6.42302,0 10.16979,0 3.74676,0 6.95827,-1.07051 9.63453,-2.67626 l 2.141,-4.28202 h 1.60576 v -4.28201 l -4.81727,-4.28201 v -2.14101 h 2.14101 v -4.28201 h 2.67626 l -2.67626,-1.60576 -2.14101,-5.35252 -9.63453,-4.28201 -3.21151,-4.28201 c -5.35251,-1.60576 -10.70503,-2.67626 -16.5928,-3.21151 -5.88777,-0.53526 -10.70503,-1.60576 -16.05755,-3.21151 l -5.35252,1.0705 c -4.28201,-0.53525 -8.56403,-1.60576 -12.31079,-2.67626 -4.28201,-0.53525 -8.02877,-1.60575 -11.77554,-3.21151 l -5.35251,1.0705 v 2.67626 h 1.0705 v 2.14101 l -13.38129,3.21151 v 7.49352 l -4.28202,2.14101 -3.21151,2.14101 -35.86186,4.81726 h -6.42302 c -1.60576,-3.21151 -2.14101,-6.95827 -2.14101,-11.77554 0,-4.81726 -0.53525,-9.09927 -1.0705,-12.84604 l 1.0705,-4.28201 -3.21151,-39.07338 c -3.74676,-2.141002 -6.95827,-4.282009 -10.70503,-5.887764 -3.74676,-1.605755 -8.56403,-2.141007 -13.3813,-1.605755 L 209.95221,75.931478 h -2.141 v -2.141007 h -2.14101 l 2.14101,13.381293 -1.07051,8.564027 1.07051,5.352519 -2.14101,11.24028 h -1.0705 l 1.0705,6.42302 h 1.0705 c 3.74677,6.42303 6.95828,13.91655 10.16979,20.87482 3.21151,6.95827 5.35251,14.4518 5.88776,22.48057 v 11.24029 c -13.38129,3.74676 -26.76258,7.49352 -40.14387,11.77554 -12.84604,4.28201 -25.69209,8.02877 -39.07338,12.31079 l -16.5928,-1.07051 -9.63453,1.07051 v 1.60575 c -5.88777,2.67626 -12.84604,4.81727 -19.804315,5.35252 -6.958272,0.53525 -13.916545,2.14101 -20.339565,4.28201 v 2.14101 l 41.21438,12.31079 c 8.56403,0 16.5928,-0.53525 24.08633,-1.60576 8.02877,-1.0705 14.98705,-2.141 22.48057,-3.74676 h 2.14101 c -6.42302,18.73381 -14.98705,36.39712 -26.76259,52.45467 -11.77554,16.05755 -24.08633,32.1151 -36.39711,48.7079 h -2.14101 L 85.773817,339.27532 H 83.63281 l -21.94532,23.01582 -39.073374,36.93237 1.070503,3.21151 19.269062,-3.21151 4.817265,1.0705 c 5.887769,-0.53525 10.705034,-2.67625 15.522299,-6.42302 4.817266,-3.21151 9.09928,-5.88777 13.916545,-8.56402 v -2.14101 l 9.634531,-6.42302 8.564027,-12.31079 3.21151,-1.0705 12.846042,-17.12806 2.67626,-0.53525 c 3.74676,-4.81727 7.49352,-9.63453 11.24028,-14.4518 3.74677,-4.28201 7.49353,-8.56402 9.63453,-13.38129 h 2.14101 l 29.9741,-39.60863 h 2.141 l 7.49353,-7.49352 8.02877,-9.09928 5.35252,-5.88777 3.21151,-3.21151 2.14101,-3.21151 2.141,-3.21151 h 2.14101 c 2.14101,-3.74676 3.74676,-6.95827 6.42302,-10.16978 2.67626,-2.67626 4.28202,-5.88777 5.88777,-9.63453 l 6.42302,-4.28202 h 3.21151 c -0.53525,14.98705 -1.0705,30.50935 -1.60575,45.4964 -0.53526,14.98705 -2.14101,29.9741 -4.81727,43.89064 l -8.56403,8.56403 -1.0705,2.141 1.0705,2.67626 v 3.21151 h -1.0705 c 1.60576,2.67626 2.14101,5.88777 2.14101,8.56403 0,3.21151 0.53525,6.42302 2.141,9.09928 l 5.35252,2.67626 9.09928,16.05755 2.67626,3.21151 h 2.14101 l 1.0705,-2.14101 c 8.56403,-2.141 16.5928,-5.35251 24.62158,-9.09928 8.02877,-3.74676 15.5223,-7.49352 23.55107,-10.70503 h 6.42302 c -0.53525,2.14101 0,4.81726 1.60576,6.95827 1.60575,2.14101 3.21151,4.28202 3.74676,6.42302 v 52.98992 c 0,7.49353 -1.0705,14.4518 -2.67626,20.87482 -1.60575,5.88777 -4.28201,12.31079 -6.95827,18.73381 l -38.53812,5.35251 c -4.28202,0 -8.56403,0 -12.31079,0 -3.74677,0 -6.95828,-0.53525 -10.16979,-2.141 -1.60575,-8.02878 -2.141,-16.05755 -2.67625,-24.08633 -0.53526,-8.56403 -2.67626,-16.5928 -6.95828,-23.01582 h -2.141 l -18.73381,-24.62158 -9.63453,-6.42302 v -2.14101 c -6.42302,-4.81726 -14.4518,-8.02877 -21.94532,-10.16978 -8.56403,-2.14101 -17.66331,-3.74676 -26.22734,-4.28201 h -2.141 v 1.0705 l 5.35251,2.14101 c 2.14101,3.74676 5.35252,6.95827 8.02878,10.70503 2.67626,3.74676 4.81726,8.02878 6.42302,12.31079 l 2.14101,1.0705 7.49352,13.91655 7.49352,9.63453 h 2.14101 l 2.14101,5.88777 7.49352,3.21151 c 2.14101,2.141 4.28201,4.28201 5.35252,6.42302 1.0705,2.141 2.14101,4.81726 2.67626,7.49352 l -1.07051,2.67626 c 2.67626,6.42302 5.88777,12.31079 9.09928,18.19856 3.21151,5.35252 7.49353,10.16978 11.77554,14.98705 2.14101,3.74676 4.81727,5.35251 8.56403,5.88776 3.74676,0.53526 6.95827,1.07051 10.16978,2.67626 z"
       style="font-style:normal;font-variant:normal;font-weight:normal;font-stretch:normal;font-size:535.25170898px;font-family:'衡山毛筆フォント OTF';-inkscape-font-specification:'衡山毛筆フォント OTF, Normal';font-variant-ligatures:normal;font-variant-caps:normal;font-variant-numeric:normal;font-feature-settings:normal;text-align:start;writing-mode:lr-tb;text-anchor:start;white-space:pre;fill:#ff0000;stroke-width:23.27188301"
       id="path7" />
  </g>
</svg>
