<?xml version="1.0" encoding="UTF-8" standalone="no"?>
<svg
   xmlns:dc="http://purl.org/dc/elements/1.1/"
   xmlns:cc="http://creativecommons.org/ns#"
   xmlns:rdf="http://www.w3.org/1999/02/22-rdf-syntax-ns#"
   xmlns:svg="http://www.w3.org/2000/svg"
   xmlns="http://www.w3.org/2000/svg"
   id="svg492"
   version="1.1"
   viewBox="0 0 500 500">
  <metadata
     id="metadata498">
    <rdf:RDF>
      <cc:Work
         rdf:about="">
        <dc:format>image/svg+xml</dc:format>
        <dc:type
           rdf:resource="http://purl.org/dc/dcmitype/StillImage" />
        <dc:title />
      </cc:Work>
    </rdf:RDF>
  </metadata>
  <defs
     id="defs496" />
  <g
     id="text490"
     style="font-style:normal;font-variant:normal;font-weight:normal;font-stretch:normal;font-size:547.96557617px;font-family:'衡山毛筆フォント OTF';-inkscape-font-specification:'衡山毛筆フォント OTF, Normal';font-variant-ligatures:normal;font-variant-caps:normal;font-variant-numeric:normal;font-feature-settings:normal;text-align:start;writing-mode:lr-tb;text-anchor:start;white-space:pre;fill:#333333;stroke-width:23.82466316"
     transform="scale(0.99716994,1.0028381)"
     aria-label="玉">
    <path
       id="path7"
       style="font-style:normal;font-variant:normal;font-weight:normal;font-stretch:normal;font-size:547.96557617px;font-family:'衡山毛筆フォント OTF';-inkscape-font-specification:'衡山毛筆フォント OTF, Normal';font-variant-ligatures:normal;font-variant-caps:normal;font-variant-numeric:normal;font-feature-settings:normal;text-align:start;writing-mode:lr-tb;text-anchor:start;white-space:pre;fill:#333333;stroke-width:23.82466316"
       d="m 81.340065,478.64162 20.274725,-2.73983 V 472.614 c 24.11049,-10.41135 49.3169,-18.63083 74.52332,-25.75438 25.20642,-7.12356 49.86487,-13.69914 75.61925,-19.1788 20.27473,0 40.00149,3.2878 58.08435,8.76745 17.5349,6.02762 36.16573,11.50728 55.89249,16.43897 l 40.00149,-7.12355 -1.09594,-13.15118 c -11.50727,-7.67152 -23.56252,-13.15117 -36.71369,-16.43896 -12.60321,-3.2878 -26.30235,-5.47966 -39.45352,-6.02763 l -7.67152,-8.76745 -5.47965,3.2878 -29.59015,-6.57559 c -10.41134,0 -19.72676,0 -29.59014,0.54797 -9.86338,0.54796 -19.72676,2.19186 -29.04217,4.38372 l -20.27473,-1.6439 17.5349,-82.19483 c 7.67152,-4.38373 16.98693,-7.12355 25.75438,-7.67152 9.31542,-0.54797 19.1788,-0.54797 29.04218,-0.54797 l 5.47965,-14.79507 9.31542,-2.19186 v -1.6439 l -4.93169,-3.28779 v -3.28779 l 3.28779,-1.6439 c -7.12355,-5.47965 -15.891,-8.76745 -24.65845,-10.41134 -9.31541,-0.54797 -18.63083,-1.09594 -29.04217,-1.09594 l 2.73982,-14.79507 c 0,-7.67151 -1.09593,-14.79507 -3.83576,-20.82269 -2.73982,-6.02762 -6.02762,-12.05524 -8.76745,-18.63083 -3.83575,0 -7.67151,-1.64389 -10.95931,-4.38372 -3.83576,-2.73983 -7.12355,-6.02762 -10.95931,-9.31542 l 2.19186,-4.38372 c 21.37066,-5.47966 43.28928,-10.95931 65.20791,-16.98693 21.91862,-4.93169 43.28928,-12.60321 64.11197,-23.01456 l -3.28779,-8.21948 c -6.02762,-3.2878 -12.60321,-6.02762 -19.1788,-8.21949 -7.12355,-2.19186 -14.2471,-3.83576 -21.37066,-4.93169 l -3.83576,1.6439 -15.891,-4.93169 c -18.63083,13.15117 -38.35759,22.46659 -59.72824,26.85031 -21.37066,4.93169 -43.28929,8.76745 -66.30384,10.95931 l -4.38372,-1.09593 -29.59015,3.2878 -1.64389,2.73983 -30.138109,8.21948 c 12.055243,3.83576 24.658449,8.21948 35.617759,14.2471 11.50728,5.47966 22.46659,10.41135 35.0698,13.69914 l 23.01455,-6.02762 h 4.38373 v 10.95931 h -4.38373 l 7.12356,26.85032 -1.09593,19.72676 -7.67152,1.64389 -4.38373,6.57559 -6.57558,8.21948 -18.63083,13.69914 -12.05525,-3.83576 c -2.73982,0 -4.93169,1.09594 -6.57558,3.2878 -1.6439,2.19186 -1.6439,4.93169 -1.09593,8.21948 h -1.09593 c 0,8.21949 0.54796,15.34304 2.19186,23.01456 1.64389,8.21948 2.19186,15.891 2.19186,25.20641 l 15.34304,-3.28779 4.38372,-7.12355 33.97387,-13.15118 h 3.28779 l -7.67152,64.65994 -10.95931,-5.47965 -18.63083,12.05524 -6.02762,11.50727 -26.30235,15.34304 v 2.73983 l -16.986931,4.93169 -10.411346,-1.6439 -4.93169,-6.02762 h -6.027622 v 2.73983 h -2.739828 l 6.027622,41.09742 z m 341.382555,-92.05822 1.6439,-1.09593 -1.6439,-2.19186 v -3.28779 l 8.21948,-3.2878 0.54797,-8.21948 8.21948,-3.83576 -8.76745,-20.82269 -54.24859,-26.30235 -13.15117,1.6439 -16.43897,-3.2878 h -7.12355 l -1.6439,4.38373 h -6.57559 l 4.93169,15.34304 h 7.12356 v 3.28779 l 3.28779,1.6439 1.6439,4.38372 c 4.38372,2.73983 8.76745,5.47966 12.6032,9.31542 3.2878,3.83575 8.21949,5.47965 13.69914,4.38372 l 1.6439,6.02762 h 12.05524 l 4.38373,13.69914 6.57558,3.28779 4.93169,-4.93169 h 3.2878 v 1.6439 h 3.83576 v 4.93169 h 1.09593 v -3.28779 h 6.57559 v 3.28779 h 3.28779 z" />
  </g>
</svg>
