<?xml version="1.0" encoding="UTF-8" standalone="no"?>
<svg
   xmlns:dc="http://purl.org/dc/elements/1.1/"
   xmlns:cc="http://creativecommons.org/ns#"
   xmlns:rdf="http://www.w3.org/1999/02/22-rdf-syntax-ns#"
   xmlns:svg="http://www.w3.org/2000/svg"
   xmlns="http://www.w3.org/2000/svg"
   id="svg2277"
   version="1.1"
   viewBox="0 0 500 500">
  <metadata
     id="metadata2283">
    <rdf:RDF>
      <cc:Work
         rdf:about="">
        <dc:format>image/svg+xml</dc:format>
        <dc:type
           rdf:resource="http://purl.org/dc/dcmitype/StillImage" />
        <dc:title />
      </cc:Work>
    </rdf:RDF>
  </metadata>
  <defs
     id="defs2281" />
  <g
     id="text2275"
     style="font-style:normal;font-variant:normal;font-weight:normal;font-stretch:normal;font-size:524.35162354px;font-family:'衡山毛筆フォント OTF';-inkscape-font-specification:'衡山毛筆フォント OTF, Normal';font-variant-ligatures:normal;font-variant-caps:normal;font-variant-numeric:normal;font-feature-settings:normal;text-align:start;writing-mode:lr-tb;text-anchor:start;white-space:pre;fill:#ff0000;stroke-width:22.797966"
     transform="scale(0.99716994,1.0028381)"
     aria-label="竜">
    <path
       id="path7"
       style="font-style:normal;font-variant:normal;font-weight:normal;font-stretch:normal;font-size:524.35162354px;font-family:'衡山毛筆フォント OTF';-inkscape-font-specification:'衡山毛筆フォント OTF, Normal';font-variant-ligatures:normal;font-variant-caps:normal;font-variant-numeric:normal;font-feature-settings:normal;text-align:start;writing-mode:lr-tb;text-anchor:start;white-space:pre;fill:#ff0000;stroke-width:22.797966"
       d="m 290.88346,478.64156 c 23.59582,0 46.66729,-2.09741 68.69006,-6.29222 22.02277,-4.71917 43.52119,-10.48703 65.0196,-17.30361 l 3.14611,-13.10879 3.14611,-5.24351 h 8.91398 c -6.81657,-3.67046 -13.63314,-6.29222 -20.97406,-8.38963 -7.86528,-2.0974 -14.68185,-4.71916 -21.49842,-8.38962 l -3.67046,-8.91398 h -1.57306 l -11.53573,25.69323 c -14.1575,7.86527 -28.31499,13.10879 -44.04554,14.68184 -16.2549,1.04871 -31.4611,2.62176 -47.19165,3.67046 -8.38962,-1.0487 -16.2549,-1.57305 -24.12017,-1.57305 -7.86527,0 -15.2062,-1.57306 -22.02277,-4.71917 l -6.81657,-27.26628 1.57306,-40.37507 32.5098,-16.77926 h 3.67046 v 2.62176 l 4.71916,2.09741 1.57306,8.38962 h 1.57305 v -1.57305 l 8.91398,1.57305 6.29222,-1.57305 v -3.67046 l 10.48703,-1.57306 c 4.71917,-15.73055 7.86528,-31.98545 10.48703,-49.8134 1.57306,-17.82796 7.34093,-33.55851 16.77926,-48.24035 l 14.68184,-6.81657 3.67046,-6.81657 v -4.71917 c -7.86527,-2.62176 -15.20619,-4.19481 -22.54712,-5.24351 -7.86527,-1.04871 -14.68184,-3.14611 -21.49841,-6.81657 -17.82796,1.0487 -34.60721,5.24351 -50.86211,12.06008 -15.73055,6.29222 -31.98545,12.06009 -49.28905,16.77925 l -4.71917,-1.57305 h -6.81657 l -1.57305,6.81657 h -5.24352 v 6.29222 l -31.98545,30.93675 -6.81657,-2.09741 -6.81657,2.09741 -18.87666,-5.24352 h -3.14611 l 12.06009,13.10879 c 5.76787,5.76787 10.48703,11.53574 15.20619,17.3036 4.71917,5.24352 7.34093,11.53574 8.38963,18.35231 h 3.67046 l 4.71917,9.96268 18.87666,14.1575 4.71916,6.29221 3.67046,1.57306 1.57306,5.24352 10.48703,-3.67047 4.71916,2.09741 c 3.67046,9.96268 5.24352,20.44971 5.24352,31.98545 0,11.53574 1.57305,22.02277 4.71916,30.41239 9.96268,8.91398 21.49842,15.2062 33.03416,17.82796 12.06008,2.62176 24.12017,4.71916 36.70461,5.76787 z m -78.12839,-108.01644 -4.71917,1.57306 -5.24351,-1.57306 -8.38963,-13.63314 v -6.81657 l 8.38963,-3.14611 9.96268,1.57305 z m 56.10562,-20.44971 -25.69323,10.48703 h -5.24351 l 7.34092,-28.83934 28.83934,-15.20619 h 2.62176 c -1.04871,4.19481 -1.57306,8.38962 -1.57306,13.10879 0,4.71916 -1.57305,8.38962 -6.29222,10.48703 l 1.57306,8.38962 z m -54.53257,-25.16888 -22.02277,8.38963 c -3.67046,0 -6.29221,0 -9.43832,0 -3.67047,0 -6.29222,-1.57306 -8.91398,-5.24352 v -3.14611 l 5.24351,-2.0974 3.14611,-6.29222 -1.57305,-10.48704 v -7.86527 l 16.77925,-19.40101 20.44971,12.58444 c 7.86528,0 15.2062,-2.09741 22.02277,-6.29222 6.81657,-4.19481 14.1575,-7.34092 22.02277,-8.91398 h 5.24352 l 9.43833,11.53574 v 27.26628 l -4.19482,1.57306 -29.36369,-1.57306 -8.38962,-16.77925 c -3.67047,0 -6.81658,0 -11.53574,0 -4.71916,0 -7.86527,1.0487 -10.48703,4.71916 l 1.57305,10.48704 z M 111.5552,289.35062 c 46.14295,-27.26628 94.90765,-45.09424 146.29411,-55.05692 51.38646,-9.43833 103.82162,-15.2062 156.25678,-17.82795 v -6.29222 l 5.24352,-3.67047 v -3.1461 l -59.25174,-6.81658 c -46.14294,8.91398 -92.28588,17.82796 -138.42882,27.79064 -46.6673,9.43833 -91.23719,24.12017 -134.23402,42.99683 -2.097407,1.57306 -4.719165,2.09741 -7.340923,2.09741 -2.621758,0 -4.719165,1.0487 -5.767868,3.14611 l -15.730548,6.29222 v 2.09741 l 19.40101,5.24351 7.865274,-2.0974 z m 60.82479,-58.72738 18.35231,-5.24352 6.81657,-16.77925 -1.57305,-8.91398 -44.04554,-15.20619 h -5.24352 l 6.81657,24.12017 15.2062,19.92536 z m 63.9709,-15.73055 c 6.81657,-3.14611 14.15749,-5.76787 20.44971,-7.34092 6.81658,-1.57306 14.68185,-2.62176 22.02277,-2.62176 4.71917,-3.67046 8.38963,-7.34092 11.01139,-11.53574 2.62175,-3.67046 5.24351,-7.34092 7.34092,-12.06008 l -1.0487,-8.91398 -34.08286,-16.77925 -7.34092,2.0974 c -1.04871,8.91398 -2.62176,17.30361 -6.29222,25.16888 -3.67046,7.34092 -7.34092,15.73055 -12.06009,23.59582 v 2.09741 h 1.57306 l -1.57306,4.71917 z m -58.72738,-48.7647 c 18.87666,-5.76787 38.27767,-12.06009 58.20303,-18.87666 19.40101,-6.29222 39.32637,-12.06009 60.30044,-16.77925 l 2.62175,-6.29222 -1.57305,-10.48703 -3.14611,-2.09741 h -48.7647 v 3.67046 h -3.67046 l -1.57306,3.67046 -37.22896,14.68185 -10.48704,-1.57306 c -11.01138,0 -21.49841,2.09741 -29.88804,6.81658 -9.43833,4.71916 -18.87666,7.34092 -28.83934,8.38962 v 3.14611 h -2.0974 c 6.81657,3.67046 14.15749,6.29222 23.07147,7.86528 8.91398,1.57305 16.2549,4.19481 23.07147,7.86527 z m 40.37507,-50.86211 5.24352,-1.57305 v -5.24352 h 9.96268 l -3.14611,-11.535735 c -8.91398,-5.767867 -18.87666,-10.487032 -29.36369,-14.157493 -11.01138,-3.14611 -21.49842,-6.29222 -31.98545,-9.962681 h -4.71916 l -1.57306,5.243516 h -3.67046 c 7.34092,7.340923 17.3036,14.681845 28.31499,20.449713 10.48703,5.24352 20.97406,11.01138 30.93674,16.77925 z" />
  </g>
</svg>
