<?xml version="1.0" encoding="UTF-8" standalone="no"?>
<svg
   xmlns:dc="http://purl.org/dc/elements/1.1/"
   xmlns:cc="http://creativecommons.org/ns#"
   xmlns:rdf="http://www.w3.org/1999/02/22-rdf-syntax-ns#"
   xmlns:svg="http://www.w3.org/2000/svg"
   xmlns="http://www.w3.org/2000/svg"
   id="svg411"
   version="1.1"
   viewBox="0 0 500 500">
  <metadata
     id="metadata417">
    <rdf:RDF>
      <cc:Work
         rdf:about="">
        <dc:format>image/svg+xml</dc:format>
        <dc:type
           rdf:resource="http://purl.org/dc/dcmitype/StillImage" />
        <dc:title />
      </cc:Work>
    </rdf:RDF>
  </metadata>
  <defs
     id="defs415" />
  <g
     id="text409"
     style="font-style:normal;font-variant:normal;font-weight:normal;font-stretch:normal;font-size:477.44793701px;font-family:'衡山毛筆フォント OTF';-inkscape-font-specification:'衡山毛筆フォント OTF, Normal';font-variant-ligatures:normal;font-variant-caps:normal;font-variant-numeric:normal;font-feature-settings:normal;text-align:start;writing-mode:lr-tb;text-anchor:start;white-space:pre;fill:#ff0000;stroke-width:20.75867081"
     transform="scale(0.99716994,1.0028381)"
     aria-label="馬">
    <path
       id="path7"
       style="font-style:normal;font-variant:normal;font-weight:normal;font-stretch:normal;font-size:477.44793701px;font-family:'衡山毛筆フォント OTF';-inkscape-font-specification:'衡山毛筆フォント OTF, Normal';font-variant-ligatures:normal;font-variant-caps:normal;font-variant-numeric:normal;font-feature-settings:normal;text-align:start;writing-mode:lr-tb;text-anchor:start;white-space:pre;fill:#ff0000;stroke-width:20.75867081"
       d="m 313.23121,478.64159 4.77448,-1.43234 v -3.34214 l 9.07151,-2.86469 c 16.71068,-27.21453 29.12433,-56.33885 36.28605,-86.41807 7.63916,-30.55667 16.71068,-60.15844 26.73708,-88.80532 l 19.09792,-7.63917 1.43234,-4.77448 v -12.89109 c -6.20682,-3.81958 -12.89109,-6.68427 -20.05281,-8.11662 -7.63917,-1.43234 -14.32344,-5.25192 -21.00771,-10.50385 -16.71068,0 -32.94391,0.9549 -49.17714,2.38724 -16.71067,1.43234 -31.98901,4.29703 -46.78989,8.59406 h -8.11662 l 3.34214,-34.37625 47.74479,-19.09792 v -9.54896 l -6.68427,-1.43234 c -6.20682,0 -11.9362,0 -17.66558,0.47745 -6.20682,0.47745 -11.45875,1.90979 -16.71067,4.29703 h -3.34214 l 3.34214,-21.96261 c 6.68427,-4.29703 14.80088,-7.63916 23.39495,-9.07151 8.11661,-1.43234 16.23323,-3.81958 23.39495,-8.11661 v -11.45875 h -1.43235 v -2.86469 l -26.73708,-3.34213 -12.8911,1.90979 h -4.29703 v -16.23323 l 52.04183,-12.41365 2.86468,-8.11661 -1.43234,-9.07151 -30.07922,-6.684276 c -9.54896,3.342135 -18.62047,6.206826 -26.73708,9.548956 -8.59407,3.34214 -17.18813,5.72938 -26.73709,7.63917 -4.29703,0 -8.11661,-0.47745 -12.41365,-0.9549 -4.29703,-0.47744 -8.11661,-1.90979 -11.45875,-4.77448 h -5.72937 v 2.86469 h -3.34214 v 6.20683 c -8.59406,0.95489 -16.23323,3.81958 -23.39495,8.59406 -7.63916,4.77448 -14.80088,9.07151 -22.44005,13.36854 -7.16172,0 -13.84599,-1.90979 -19.57536,-5.72937 -6.20683,-2.86469 -11.45875,-6.20683 -16.71068,-9.54896 h -1.43235 c 7.16172,13.36854 13.36855,27.69198 18.62047,43.44776 5.25193,15.27833 8.11662,31.03411 8.11662,47.74479 0,7.16172 0,14.80089 -0.47745,21.96261 -0.47745,7.63916 -1.90979,14.32344 -4.29703,20.53026 2.38724,9.54896 3.81958,18.62047 4.29703,28.16943 0.47745,9.54896 4.29703,18.14302 11.45875,25.30474 l 20.53026,6.20682 c 17.66558,0 33.89881,-3.34213 49.17714,-10.02641 14.32344,-7.16171 29.60177,-13.36854 45.35755,-18.14302 l 1.43235,-4.77448 39.15073,-9.54896 19.09792,1.43235 4.77448,12.89109 c -3.34214,23.8724 -6.20683,48.22224 -9.07152,73.04954 -3.34213,24.82729 -11.45875,47.74479 -23.87239,68.7525 l -6.20683,1.43234 -3.34213,14.32344 h -3.34214 c 0,2.38724 0,4.29703 0,6.68427 0,2.86469 -0.95489,5.25193 -2.86468,7.63917 l 1.43234,8.11661 h 3.34214 v 2.86469 l 4.77447,1.43235 v 3.34213 h 2.86469 z m -171.88125,-47.26735 4.77448,-5.72937 9.54896,-1.90979 3.34213,-9.54896 c 0.9549,-5.25193 0.47745,-10.02641 -1.43234,-14.32344 -2.38724,-4.29703 -5.25193,-8.59406 -8.59407,-12.41365 -10.0264,-5.25192 -20.53026,-10.50385 -30.07922,-15.27833 -10.50385,-4.29703 -21.007705,-7.63917 -32.943904,-10.02641 h -5.729375 l 1.432344,4.77448 v 2.86469 h -1.432344 c 11.45875,10.02641 22.440049,19.09792 33.898799,28.64688 10.50386,9.54895 20.05282,20.53026 27.21454,32.9439 z m 59.68099,-26.25963 1.43234,-1.90979 4.77448,1.90979 h 3.34214 v -6.68427 l 4.77448,-1.43235 c 1.43234,-6.68427 0.95489,-11.9362 -1.43235,-16.71068 -2.38724,-4.77447 -4.77448,-9.54895 -8.11661,-13.36854 -4.77448,-5.25193 -10.9813,-9.07151 -17.18813,-11.9362 -6.20682,-2.38724 -12.89109,-4.29703 -20.53026,-5.72937 h -6.68427 c 5.25193,8.59406 10.9813,16.71068 16.23323,24.34984 4.77448,8.11662 10.02641,16.23323 14.32344,24.8273 z m 47.26734,-16.23323 h 1.9098 v -2.86469 l 9.54896,-1.43234 0.95489,-5.25193 c 1.43234,-5.25193 0.47745,-10.02641 -1.43234,-13.84599 -2.86469,-4.29703 -5.25193,-8.59406 -7.63917,-12.8911 l -28.64688,-12.41364 h -9.07151 c 4.29703,9.07151 8.59407,17.66557 13.84599,25.78219 5.25193,7.63916 12.41365,15.75578 20.53026,22.9175 z m 45.83501,-28.16943 7.63916,-1.43234 v -1.9098 l 6.68427,-6.20682 -1.90979,-9.54896 -31.03411,-12.89109 h -10.02641 l 15.75578,28.64687 z M 185.27517,285.27517 h 1.43234 l 3.34214,-45.835 10.0264,2.86469 34.37625,-4.77448 h 6.20683 v 4.77448 h -2.86469 l 2.86469,19.09792 6.20682,4.77448 v 4.29703 l -56.8163,19.09792 -12.41365,-2.86469 v -6.20682 z m 56.8163,-71.13974 -39.62818,14.32344 -12.41364,-1.43234 1.90979,-4.77448 -1.90979,-28.64688 v -4.29703 l 27.21453,4.29703 24.82729,-3.34213 h 3.34214 z m 0,-50.13203 -52.04182,15.27833 h -4.77448 l -5.72938,-12.41364 2.38724,-10.98131 -0.95489,-6.20682 2.86468,-12.89109 20.53026,-12.41365 h 15.75579 l 10.9813,13.84599 6.68427,3.34214 5.72938,14.32343 z" />
  </g>
</svg>
