<?xml version="1.0" encoding="UTF-8" standalone="no"?>
<svg
   xmlns:dc="http://purl.org/dc/elements/1.1/"
   xmlns:cc="http://creativecommons.org/ns#"
   xmlns:rdf="http://www.w3.org/1999/02/22-rdf-syntax-ns#"
   xmlns:svg="http://www.w3.org/2000/svg"
   xmlns="http://www.w3.org/2000/svg"
   viewBox="0 0 500 500"
   version="1.1"
   id="svg2018">
  <metadata
     id="metadata2024">
    <rdf:RDF>
      <cc:Work
         rdf:about="">
        <dc:format>image/svg+xml</dc:format>
        <dc:type
           rdf:resource="http://purl.org/dc/dcmitype/StillImage" />
        <dc:title />
      </cc:Work>
    </rdf:RDF>
  </metadata>
  <defs
     id="defs2022" />
  <g
     aria-label="銀"
     transform="matrix(-0.92805785,0,0,-0.93333441,13.109536,1.3861648)"
     style="font-style:normal;font-variant:normal;font-weight:normal;font-stretch:normal;font-size:601.27862549px;font-family:'衡山毛筆フォント OTF';-inkscape-font-specification:'衡山毛筆フォント OTF, Normal';font-variant-ligatures:normal;font-variant-caps:normal;font-variant-numeric:normal;font-feature-settings:normal;text-align:start;writing-mode:lr-tb;text-anchor:start;white-space:pre;fill:#333333;stroke-width:26.14262772"
     id="text2016">
    <path
       d="m -300.4349,-19.943372 45.0959,-39.083111 c 9.62046,-9.019179 18.03836,-19.842194 25.85498,-32.469045 7.81662,-11.424292 13.82941,-24.051142 19.24092,-36.076722 v -1.80383 h -1.80384 l 3.60767,-9.62046 v -4.81023 h -8.4179 l 1.20256,-6.01279 -6.01279,6.01279 v 3.00639 l -28.26009,24.65243 h -3.00639 l 13.22813,-71.55216 -1.80384,-8.4179 v -4.20895 l 9.01918,9.62046 15.63324,3.00639 57.72275,76.96367 c 16.23452,15.031961 33.6716,26.456255 51.70996,35.475435 18.038362,9.019179 37.279278,16.234522 56.520194,22.848587 7.816622,0 14.430687,0 21.646031,0 6.614065,0 12.626851,-1.803836 19.240916,-4.810229 l -4.208951,-7.215343 c -16.234523,-13.22813 -33.671603,-24.652424 -53.513797,-32.469046 -19.240916,-7.816624 -37.279273,-18.038354 -54.716353,-28.861374 -10.22174,-9.01918 -19.8422,-18.03836 -28.2601,-28.86137 -9.01918,-10.82302 -17.43708,-21.64603 -25.85498,-33.07033 l -17.43708,-8.4179 -9.01918,-18.63964 -3.60767,-2.40511 1.80384,-5.41151 c 6.61406,-2.40511 11.42429,-6.01278 16.8358,-11.42429 5.41151,-5.41151 11.42429,-7.81662 18.63963,-9.01918 4.20896,-22.84859 7.81663,-46.29846 10.82302,-70.3496 2.40511,-24.05115 8.4179,-46.29846 18.03836,-66.14065 l 20.44347,-5.41151 2.40512,-7.21534 -1.20256,-10.22174 c -6.01279,-0.60128 -12.02557,-2.40511 -18.03836,-4.20895 -6.01279,-1.80383 -10.82301,-4.81023 -15.03196,-9.01918 h -10.82302 v 1.80384 c -17.43708,5.41151 -34.87416,10.22173 -53.5138,13.82941 -18.03836,3.60767 -34.87416,10.22173 -51.70996,20.44347 l 21.64603,11.42429 1.80384,5.41151 10.22173,5.41151 c 4.81023,-1.20256 9.62046,-2.40512 14.43069,-3.60767 4.20895,-1.20256 9.01918,-3.60767 13.22813,-7.21535 h 7.21534 l 1.80384,7.21535 -1.80384,37.27927 c -7.21534,3.0064 -14.43068,4.81023 -20.44347,6.01279 -7.21534,0.60128 -14.43069,3.00639 -21.64603,6.61406 l -8.4179,-1.20255 -5.41151,-15.03197 c -6.01278,-3.00639 -12.02557,-3.60767 -18.03836,-2.40511 -6.61406,1.80383 -12.62685,0 -16.8358,-5.41151 h -3.00639 l 3.00639,15.63324 -1.80383,8.4179 c 6.61406,20.44348 12.02557,41.48823 16.23452,61.9317 3.60767,21.04475 6.01278,42.69078 6.61406,65.53937 -0.60128,13.82941 -1.80383,27.65882 -2.40511,42.08951 -0.60128,14.43068 -3.00639,27.05753 -6.61407,39.68438 l -5.4115,2.405119 c -4.20895,7.816623 -9.01918,14.430687 -13.82941,22.24731 -5.41151,7.816622 -12.62685,12.626851 -21.04475,14.430687 l -1.20256,3.607671 19.24091,37.880554 z M -452.55839,-51.20986 c 19.8422,-9.01918 39.08311,-18.038359 58.92531,-28.260096 19.24091,-10.221737 37.88055,-19.842195 55.91891,-31.266484 l 1.80384,-4.20895 v -12.62686 l -3.60768,-1.80383 -11.42429,1.80383 h -9.01918 l 5.41151,-9.62045 6.61406,1.80383 c 6.61407,-1.20256 13.22813,-3.60767 18.63964,-7.21534 5.41151,-3.60767 10.22174,-7.81662 14.43069,-13.22813 3.60767,-4.20895 6.01278,-9.01918 7.21534,-13.82941 1.20256,-5.41151 2.40512,-10.82301 3.60767,-16.23452 l -3.60767,-9.01918 -17.43708,-6.61407 h -21.04475 c 0,12.02558 -1.80384,23.44987 -6.01279,34.27288 -4.20895,10.22174 -8.4179,20.44348 -13.22813,30.06394 v 1.80383 h 3.60767 l -5.4115,9.62046 h -4.81023 c 0,-19.84219 0.60128,-39.68439 1.20256,-58.92531 0.60127,-19.24091 2.40511,-37.27927 5.4115,-55.31763 l 40.28567,-19.84219 v -16.83581 l -5.41151,-2.40511 -19.24091,2.40511 h -17.43708 l 3.60767,-40.88694 12.62685,3.60767 13.22813,-2.40511 c 1.20256,-3.60768 1.80384,-7.21535 1.80384,-10.82302 0,-3.60767 1.80383,-6.61406 5.4115,-9.62046 v -16.23452 l -9.01918,-4.20895 -4.81023,1.80384 -17.43708,-1.80384 c -6.01278,-1.20256 -10.82301,0 -16.23452,3.00639 -5.41151,3.0064 -10.22173,6.01279 -15.63324,8.4179 l -4.81023,-1.80383 25.2537,-55.91892 h 4.81023 c 0.60128,6.01279 3.00639,11.4243 6.61406,15.03197 3.60768,4.81023 6.01279,10.22174 7.21535,16.8358 7.81662,0.60128 16.23452,2.40512 25.2537,4.81023 9.01918,3.00639 17.43708,6.01279 25.2537,9.62046 l 9.01918,-1.80384 1.80384,-3.60767 -1.80384,-10.82301 c -10.22173,-10.82302 -22.84859,-17.43708 -36.67799,-19.8422 -13.82941,-3.00639 -27.05754,-8.4179 -38.48184,-16.23452 l -1.80383,-7.21534 -30.06393,-6.01279 H -412.874 v 6.01279 l -5.41151,1.20255 -7.21534,24.65243 h -4.20895 c -4.81023,24.05114 -12.62685,46.29845 -22.84859,67.94448 -10.82301,21.64603 -22.24731,42.69078 -35.47544,63.13426 v 3.60767 l 4.20895,-1.80384 h 4.81023 l 1.80384,3.60767 7.21534,-12.02557 26.45626,-21.64603 4.81023,-10.82301 7.81662,-1.80384 6.61407,-10.22174 4.81023,1.80384 1.20255,6.01279 h 1.80384 v 8.4179 l 5.41151,-4.20895 h 14.43068 c 0,4.81022 0,9.62045 0,16.23452 0,6.61406 1.20256,12.02557 3.0064,15.63324 l -1.20256,9.01918 c -8.4179,6.61407 -17.43708,10.22174 -25.85498,12.02557 -9.62046,1.80384 -19.24092,4.20896 -27.65882,8.41791 l -15.03196,11.42429 v 1.80384 l 9.01918,9.62045 26.45626,8.4179 c 5.4115,0 10.22173,-2.40511 15.03196,-7.81662 4.81023,-4.20895 10.22174,-7.81662 16.23452,-10.22173 h 3.0064 l 2.40511,18.03835 c 0,13.82941 0,27.65882 0.60128,41.48823 0.60128,15.03196 -1.80384,28.26009 -6.01279,40.88695 l -7.21534,2.40511 3.60767,5.41151 v 5.41151 c -12.02557,6.01278 -24.05114,9.62045 -37.88055,10.823011 -13.22813,1.803836 -25.2537,6.614065 -35.47544,15.031965 v 3.607672 l -15.03197,9.620458 v 1.803836 c 7.81663,-1.202557 13.82941,1.202557 18.63964,6.012786 4.20895,6.012787 10.22174,10.221737 17.43708,12.626852 z m 19.24092,-70.3496 h 5.41151 l 2.40511,-9.62046 -2.40511,-16.8358 -3.0064,-13.82941 -12.62685,8.4179 -19.84219,-9.62045 h -5.41151 l 2.40511,11.42429 15.63325,20.44347 z m 260.35364,-67.34321 3.60767,-1.80383 3.0064,-5.41151 9.01918,3.00639 c 9.62046,-3.60767 18.63963,-7.81662 28.26009,-12.02557 9.62046,-4.20895 19.24092,-8.4179 29.462656,-12.02557 l 5.411507,-15.03197 v -5.4115 l -24.652423,-5.41151 -23.44987,7.21534 -0.60128,11.4243 -17.43708,16.23452 z m -64.93809,-45.09589 -1.80383,1.80383 h -3.60768 l 1.80384,-7.81662 -1.80384,-8.4179 1.80384,-9.62046 -1.80384,-8.4179 3.60768,-13.82941 34.87416,-17.43708 h 5.4115 l -1.20255,18.63964 h -6.01279 l 6.01279,16.8358 -2.40512,7.81662 -16.8358,3.60768 z"
       style="font-style:normal;font-variant:normal;font-weight:normal;font-stretch:normal;font-size:601.27862549px;font-family:'衡山毛筆フォント OTF';-inkscape-font-specification:'衡山毛筆フォント OTF, Normal';font-variant-ligatures:normal;font-variant-caps:normal;font-variant-numeric:normal;font-feature-settings:normal;text-align:start;writing-mode:lr-tb;text-anchor:start;white-space:pre;fill:#333333;stroke-width:26.14262772"
       id="path7" />
  </g>
</svg>
