<?xml version="1.0" encoding="UTF-8" standalone="no"?>
<svg
   xmlns:dc="http://purl.org/dc/elements/1.1/"
   xmlns:cc="http://creativecommons.org/ns#"
   xmlns:rdf="http://www.w3.org/1999/02/22-rdf-syntax-ns#"
   xmlns:svg="http://www.w3.org/2000/svg"
   xmlns="http://www.w3.org/2000/svg"
   id="svg1935"
   version="1.1"
   viewBox="0 0 500 500">
  <metadata
     id="metadata1941">
    <rdf:RDF>
      <cc:Work
         rdf:about="">
        <dc:format>image/svg+xml</dc:format>
        <dc:type
           rdf:resource="http://purl.org/dc/dcmitype/StillImage" />
        <dc:title />
      </cc:Work>
    </rdf:RDF>
  </metadata>
  <defs
     id="defs1939" />
  <g
     id="text1933"
     style="font-style:normal;font-variant:normal;font-weight:normal;font-stretch:normal;font-size:466.14691162px;font-family:'衡山毛筆フォント OTF';-inkscape-font-specification:'衡山毛筆フォント OTF, Normal';font-variant-ligatures:normal;font-variant-caps:normal;font-variant-numeric:normal;font-feature-settings:normal;text-align:start;writing-mode:lr-tb;text-anchor:start;white-space:pre;fill:#333333;stroke-width:20.26731873"
     transform="scale(-0.99716939,-1.0028386)"
     aria-label="飛">
    <path
       id="path7"
       style="font-style:normal;font-variant:normal;font-weight:normal;font-stretch:normal;font-size:466.14691162px;font-family:'衡山毛筆フォント OTF';-inkscape-font-specification:'衡山毛筆フォント OTF, Normal';font-variant-ligatures:normal;font-variant-caps:normal;font-variant-numeric:normal;font-feature-settings:normal;text-align:start;writing-mode:lr-tb;text-anchor:start;white-space:pre;fill:#333333;stroke-width:20.26731873"
       d="m -305.84995,-19.943379 v -4.195322 h 3.26303 l 6.05991,-6.05991 1.39844,-6.05991 V -98.25606 l 1.86459,-1.398441 -1.86459,-10.255229 1.86459,-25.63808 -1.86459,-7.45835 1.86459,-60.13296 25.17193,-13.51826 6.05991,1.39845 -1.39844,4.19532 c -1.39844,23.30734 -0.93229,45.68239 1.39844,68.05745 2.33074,22.37505 6.99221,43.351659 13.51826,62.92983 14.45056,13.51826 29.83341,21.442758 46.61469,25.63808 16.78129,4.195322 34.49488,7.924497 52.67461,12.119819 12.11981,0.932294 22.84119,0.466147 32.63028,-2.330734 10.25523,-2.330735 20.044316,-5.127616 30.299548,-8.390645 l 6.526057,-6.059909 1.398441,-4.195323 h 5.593763 l -1.398441,-4.661469 c -4.661469,-3.263028 -10.255232,-5.593763 -15.848995,-7.924497 -5.593763,-1.864588 -10.721383,-4.195322 -15.848993,-8.390645 v -1.39844 h -4.19532 v -3.263029 h -6.52606 l -13.05211,-18.179728 h -1.86459 l 3.26303,13.518259 c 0,5.127616 0,10.255232 0,14.916701 0,5.127616 -1.86459,9.322939 -6.05991,12.585967 -14.9167,-2.330735 -29.36726,-5.127616 -43.35167,-9.322938 -14.45055,-4.195323 -27.50266,-9.322939 -40.55478,-16.781289 -5.12761,-4.195322 -8.85679,-8.39064 -10.72138,-13.98441 -2.33073,-5.59376 -3.72917,-11.65367 -4.66147,-17.24743 v -68.05745 c 1.86459,-6.52606 3.26303,-13.98441 4.66147,-21.90891 0.9323,-6.9922 2.79688,-13.9844 6.05991,-20.04431 l 14.9167,-5.59377 v -10.72138 l -22.84119,-1.86458 v -2.79689 l -8.8568,-1.39844 c -4.19532,-0.93229 -7.45835,-0.93229 -10.72137,0 -2.79689,0.9323 -5.59377,2.79689 -8.39065,6.05991 v 2.79689 l -9.32294,1.39844 -1.86458,3.26302 -19.57818,10.25524 h -2.33073 l 0.93229,-19.57817 -0.93229,-6.99221 0.93229,-9.32294 c 0,-12.11982 0,-24.23964 0,-35.42716 0,-11.18753 -1.86458,-22.37505 -6.9922,-32.16414 -4.19532,-0.93229 -8.39064,-1.39844 -12.58597,-1.39844 -3.72917,0 -6.9922,-0.93229 -10.25523,-3.26303 h -1.39844 c 0,8.85679 0,18.17973 0,27.50267 0,9.78909 1.39844,18.64588 4.66147,26.57037 v 68.05745 l -1.86459,1.39844 -19.57817,8.8568 h -6.05991 c -3.26303,-4.19533 -5.59376,-8.39065 -8.39064,-12.11982 -3.26303,-4.19533 -6.99221,-7.45835 -11.18753,-10.25524 l 12.58597,-10.72137 c 5.59376,-6.99221 10.25523,-14.45056 12.58597,-23.30735 2.33073,-8.85679 4.66146,-17.24744 6.9922,-26.57037 l -1.86459,-16.31515 -28.43496,-11.65367 h -4.66147 l -4.19532,20.97661 2.33073,23.77349 c 0,8.8568 -0.93229,17.71359 -3.26303,26.10423 -2.33073,8.85679 -5.59376,16.78129 -9.78908,23.77349 v 2.79689 l 7.45835,-2.79689 c 3.26303,0 5.12762,1.86459 5.12762,5.12762 0.46614,3.26303 0.93229,6.05991 2.33073,7.9245 v 12.58596 l -31.69799,2.33074 -7.45835,7.9245 -4.19532,7.92449 h -4.66147 l -1.39844,5.59377 -9.32294,4.66147 c 3.26303,4.19532 7.45835,6.05991 12.58597,6.05991 5.12761,0 8.39064,1.86458 11.65367,6.05991 l 30.29955,-10.72138 h 4.19532 c 0,16.78129 -2.33073,33.09643 -6.52606,48.94542 -4.66147,15.38285 -10.72138,30.299551 -17.24743,44.283959 h -1.39844 v -4.661469 l -4.66147,6.059909 v 3.263029 h 14.9167 l 6.05991,-6.526057 c 10.72138,-14.916701 19.57817,-30.765701 25.63808,-48.479281 5.59376,-17.71358 9.32294,-35.89331 10.25523,-54.53919 l 18.17973,-9.32293 h 4.66147 v 121.664339 h -4.66147 v -1.39844 l -1.39844,6.059909 4.19532,10.255232 -1.39844,4.66147 4.66147,19.57817 z m 112.80756,-100.221581 c 0.93229,-3.26303 3.26302,-5.12762 6.9922,-5.59377 3.26303,-0.46614 6.52606,-1.39844 9.78908,-2.33073 v -4.66147 h 2.79689 v -2.79688 h -2.79689 v -6.05991 h -2.79688 l -1.86458,-4.66147 c -6.05991,-2.79688 -12.58597,-5.12762 -18.64588,-6.52606 -6.52606,-1.39844 -13.05211,-3.26303 -18.64588,-5.12761 l 2.79688,0.93229 v 3.26303 l -6.05991,-1.39844 -4.66147,1.39844 7.9245,15.38285 z m -23.7735,-66.65901 c 6.52606,-6.05991 14.45056,-9.78909 22.37505,-11.18753 7.9245,-1.39844 15.849,-4.66147 22.37506,-9.78908 0.93229,-3.26303 0.93229,-6.05991 -0.46615,-8.39065 -1.39844,-1.86459 -2.79688,-4.66147 -3.72918,-7.9245 l -15.38284,-3.26302 h -2.79689 v 1.39844 l -10.72137,-1.39844 h -6.05991 l 3.26302,12.11982 -8.85679,27.03652 z m 64.32828,-71.78663 9.32294,-4.66147 4.66146,-6.05991 v -4.66147 l -13.9844,-8.85679 -4.19533,-9.32294 -6.05991,-2.79688 -9.32293,-13.51826 v -4.66147 l 13.9844,-5.59376 -4.66147,-13.98441 c -4.19532,-3.72917 -9.32293,-6.05991 -14.9167,-7.45835 -6.05991,-0.93229 -11.65367,-2.33073 -16.78129,-4.66147 l -14.9167,1.86459 4.19533,9.32294 c 4.19532,4.66147 9.32293,8.85679 13.9844,12.11982 5.12762,3.72917 9.78909,6.52606 14.9167,8.39064 0,4.19533 -0.46614,7.9245 -1.39844,11.18753 -0.93229,3.72917 -2.79688,6.9922 -6.05991,9.78908 l -39.15634,-14.9167 c -6.05991,-5.12761 -10.72138,-10.72138 -12.58596,-18.64587 -2.79688,-7.45835 -5.12762,-14.9167 -6.99221,-21.90891 l 6.05991,-20.97661 h 2.79688 l 2.79689,-6.05991 16.78128,-7.45835 2.79689,-6.05991 v -6.05991 c -4.66147,-1.86459 -9.78909,-3.72917 -15.38285,-5.12761 -6.05991,-1.39845 -10.72138,-3.72918 -15.849,-6.99221 -4.19532,-0.93229 -6.9922,-0.46615 -9.32294,1.39844 -1.86458,2.33074 -4.19532,3.72918 -6.9922,4.66147 l -1.86459,7.9245 -43.81781,14.9167 c -4.19532,0 -7.92449,0 -12.11982,0 -4.66147,0 -8.39064,-1.39844 -11.65367,-4.66147 h -7.45835 v 2.79688 l -4.66147,1.86459 -4.66147,8.85679 c -3.26303,1.86459 -6.05991,3.72918 -9.32294,5.59376 -3.72917,2.33074 -7.92449,3.26303 -13.05211,3.26303 v 3.26303 l 15.38285,8.85679 c 13.98441,0.9323 27.03652,0.46615 40.55478,-1.86459 13.05211,-1.86458 24.70579,-5.59376 35.89331,-11.65367 h 5.59377 c 1.39844,12.11982 3.26302,24.23964 6.52605,35.42717 3.26303,11.65367 8.85679,21.9089 16.31514,30.76569 13.98441,10.25524 28.90111,18.64588 44.75011,24.70579 15.38285,6.52606 32.16413,10.25523 49.87772,11.65367 z m -70.38819,-86.23718 c 7.9245,-5.12761 15.849,-8.39064 24.70579,-11.65367 8.39064,-3.26303 16.31514,-8.85679 23.30735,-16.31514 l -2.79689,-9.32294 -18.17973,-8.85679 h -4.66147 c -1.86458,7.45835 -4.66146,15.84899 -7.92449,23.30735 -3.72918,8.39064 -8.39065,15.38284 -14.45056,21.44275 z" />
  </g>
</svg>
