<?xml version="1.0" encoding="UTF-8" standalone="no"?>
<svg
   xmlns:dc="http://purl.org/dc/elements/1.1/"
   xmlns:cc="http://creativecommons.org/ns#"
   xmlns:rdf="http://www.w3.org/1999/02/22-rdf-syntax-ns#"
   xmlns:svg="http://www.w3.org/2000/svg"
   xmlns="http://www.w3.org/2000/svg"
   id="svg1835"
   version="1.1"
   viewBox="0 0 500 500">
  <metadata
     id="metadata1841">
    <rdf:RDF>
      <cc:Work
         rdf:about="">
        <dc:format>image/svg+xml</dc:format>
        <dc:type
           rdf:resource="http://purl.org/dc/dcmitype/StillImage" />
        <dc:title />
      </cc:Work>
    </rdf:RDF>
  </metadata>
  <defs
     id="defs1839" />
  <g
     id="text1833"
     style="font-style:normal;font-variant:normal;font-weight:normal;font-stretch:normal;font-size:568.25115967px;font-family:'衡山毛筆フォント OTF';-inkscape-font-specification:'衡山毛筆フォント OTF, Normal';font-variant-ligatures:normal;font-variant-caps:normal;font-variant-numeric:normal;font-feature-settings:normal;text-align:start;writing-mode:lr-tb;text-anchor:start;white-space:pre;fill:#333333;stroke-width:24.70664978"
     transform="scale(-0.99716994,-1.0028381)"
     aria-label="角">
    <path
       id="path7"
       style="font-style:normal;font-variant:normal;font-weight:normal;font-stretch:normal;font-size:568.25115967px;font-family:'衡山毛筆フォント OTF';-inkscape-font-specification:'衡山毛筆フォント OTF, Normal';font-variant-ligatures:normal;font-variant-caps:normal;font-variant-numeric:normal;font-feature-settings:normal;text-align:start;writing-mode:lr-tb;text-anchor:start;white-space:pre;fill:#333333;stroke-width:24.70664978"
       d="m -357.5029,-19.942723 2.27301,-6.250763 h 6.25076 c 2.273,-18.752288 4.54601,-38.072827 6.25076,-57.393367 1.70475,-19.320537 3.40951,-38.641077 6.25076,-57.393367 20.45705,-5.68251 40.34584,-11.36502 59.66638,-17.61579 19.88879,-6.25076 40.91408,-10.22852 62.50762,-13.06977 h 26.13956 l 6.25076,78.986909 v 10.228521 l -8.52377,-6.250763 h -2.273 v 2.273004 h 2.273 c 0,5.682512 0,10.796773 0,17.047535 0,6.250763 1.70476,11.365023 4.54601,14.77453 l -2.273,12.501526 12.50152,19.888791 21.59355,-3.977759 v -4.546009 h 6.81901 l -2.273,-28.980809 V -177.34829 l -2.27301,-2.27301 2.27301,-36.93632 -4.54601,-35.79983 4.54601,-42.61883 6.81901,-2.27301 6.81901,2.27301 c 6.81902,1.70475 13.06978,1.1365 18.18404,-1.13651 5.11426,-1.70475 9.09202,-5.11426 14.20628,-9.09201 l -2.84126,-8.52377 c -12.50152,-4.54601 -26.7078,-9.66027 -40.91408,-13.63803 -14.20628,-3.97776 -28.98081,-7.95552 -43.18709,-10.79677 -21.59354,1.70475 -42.61884,4.54601 -62.50763,7.95551 -21.02529,3.40951 -40.34583,9.09202 -59.09812,16.47929 h -6.81901 v -1.70476 h -5.68251 l -2.27301,6.25077 -15.91103,3.97776 9.09202,20.45704 v 7.95551 l -21.59354,-3.97776 -13.06978,2.27301 -15.34278,-8.52377 c 1.1365,5.68251 1.70475,11.36503 1.70475,17.61579 0,5.68251 2.27301,10.79677 7.38727,14.77453 l 6.25076,10.22852 c 7.38726,5.11426 10.22852,12.50152 9.66027,21.02529 -0.56825,8.52377 -0.56825,17.61579 1.1365,26.13956 v 11.36502 h -4.54601 l -4.54601,12.50152 c 1.70476,3.40951 3.40951,7.95552 5.68251,11.93328 2.27301,3.97776 3.40951,9.09202 3.40951,14.20628 -4.54601,14.77453 -6.81901,29.54906 -6.81901,44.89184 0,16.479283 -5.11426,30.11731 -14.77453,42.618836 l 8.52376,25.571302 z m 64.78063,-157.405567 -31.82206,7.38726 h -4.54601 c 2.84125,-7.38726 5.11426,-16.47928 5.11426,-26.13955 0.56825,-9.09202 1.1365,-18.75229 1.1365,-27.84431 l 32.39032,-3.97776 h 6.81901 l -9.09202,46.5966 z m 6.81902,-2.27301 h -4.54601 v -6.25076 h 4.54601 z m 93.19319,-19.88879 c -13.06978,2.27301 -26.70781,4.54601 -39.20933,7.38727 -13.06978,2.84125 -26.13956,5.68251 -39.20933,8.52376 h -7.95552 c 3.40951,-9.66027 9.09202,-18.18403 15.91103,-27.27605 6.25077,-9.09202 9.66027,-18.75229 9.66027,-29.54906 l 43.18709,-14.20628 h 10.79677 l 6.81902,51.1426 z m -90.92019,-52.84736 -28.41256,9.66027 -10.79677,-1.70475 -6.25076,-18.18404 36.36807,-28.41256 h 4.54601 l 6.81902,22.73005 z m 62.50763,-18.18403 -28.41256,7.95551 h -3.97776 l -2.273,-30.11731 2.273,-10.22852 25.57131,-8.52377 h 13.63802 z m -86.37418,-52.84736 7.95552,-5.68251 6.81901,-2.27301 v -2.273 h 4.54601 l 9.09202,-9.66027 h 3.97776 v 1.70475 l 19.32054,-12.50152 10.79677,-5.68252 c 7.38727,-7.95551 15.91103,-15.91103 26.13955,-23.86655 10.22852,-6.81901 17.61579,-15.34278 23.86655,-25.00305 l -2.273,-9.66027 -28.41256,-10.79677 -10.22852,2.27301 -13.63803,-3.97776 -6.25076,6.25076 -8.52377,6.25076 h -17.04753 l -2.27301,-10.79677 -23.86655,-5.68251 h -23.86655 l -30.68556,63.07588 -21.59354,28.41256 4.54601,1.70475 -2.84126,6.25076 v 3.97776 l 19.88879,-10.22852 c 8.52377,-5.11426 17.04754,-10.79677 26.13955,-16.47928 9.09202,-4.54601 15.91104,-11.36503 21.59355,-19.88879 l 8.52377,-4.54601 6.25076,-15.91104 h 4.54601 l 2.273,-7.95551 h 6.81902 v 11.93327 h 10.79677 c 0,13.63803 -3.40951,26.13956 -11.93328,36.36808 -8.52376,10.79677 -14.77453,21.59354 -20.45704,32.95856 z" />
  </g>
</svg>
