<?xml version="1.0" encoding="UTF-8" standalone="no"?>
<svg
   xmlns:dc="http://purl.org/dc/elements/1.1/"
   xmlns:cc="http://creativecommons.org/ns#"
   xmlns:rdf="http://www.w3.org/1999/02/22-rdf-syntax-ns#"
   xmlns:svg="http://www.w3.org/2000/svg"
   xmlns="http://www.w3.org/2000/svg"
   id="svg1742"
   version="1.1"
   viewBox="0 0 500 500">
  <metadata
     id="metadata1748">
    <rdf:RDF>
      <cc:Work
         rdf:about="">
        <dc:format>image/svg+xml</dc:format>
        <dc:type
           rdf:resource="http://purl.org/dc/dcmitype/StillImage" />
        <dc:title />
      </cc:Work>
    </rdf:RDF>
  </metadata>
  <defs
     id="defs1746" />
  <g
     id="text1740"
     style="font-style:normal;font-variant:normal;font-weight:normal;font-stretch:normal;font-size:516.95721436px;font-family:'衡山毛筆フォント OTF';-inkscape-font-specification:'衡山毛筆フォント OTF, Normal';font-variant-ligatures:normal;font-variant-caps:normal;font-variant-numeric:normal;font-feature-settings:normal;text-align:start;writing-mode:lr-tb;text-anchor:start;white-space:pre;fill:#333333;stroke-width:22.47646904"
     transform="scale(-0.99717014,-1.0028379)"
     aria-label="桂">
    <path
       id="path7"
       style="font-style:normal;font-variant:normal;font-weight:normal;font-stretch:normal;font-size:516.95721436px;font-family:'衡山毛筆フォント OTF';-inkscape-font-specification:'衡山毛筆フォント OTF, Normal';font-variant-ligatures:normal;font-variant-caps:normal;font-variant-numeric:normal;font-feature-settings:normal;text-align:start;writing-mode:lr-tb;text-anchor:start;white-space:pre;fill:#333333;stroke-width:22.47646904"
       d="m -344.104,-19.94349 c 3.6187,-2.067829 5.16957,-5.169572 5.16957,-9.822187 0,-4.652615 0.51695,-8.271316 1.55087,-11.373059 l -1.55087,-57.899208 1.55087,-9.822186 -6.72044,-72.37401 2.06782,-5.16957 -2.06782,-4.65262 v -29.98352 l 18.61045,11.37306 11.37306,-1.55087 1.55088,-3.10174 c -2.06783,-6.72045 -5.68653,-11.89002 -10.33915,-16.54263 -4.65261,-4.13566 -10.33914,-7.2374 -16.02567,-9.82219 l 3.6187,-49.62789 22.74612,-10.8561 2.06782,-6.72045 h 1.55088 v -2.06783 h -1.55088 l -2.06782,-8.27131 h -3.10175 v -2.58479 h -16.54263 c 0,-11.37306 0.51696,-21.7122 1.03392,-32.05135 0.51695,-9.82218 2.06782,-19.64437 4.13565,-29.46656 l -3.10174,-14.99176 -18.0935,-4.65261 -3.6187,-14.99176 -9.82219,-9.82219 h -3.6187 l 1.55087,5.16957 v 22.74612 h -3.10174 l -1.55087,5.16957 3.10174,23.26308 -4.65262,14.4748 4.65262,11.89002 -1.55087,34.11917 c -10.8561,6.72045 -23.26308,11.37306 -36.18701,12.40698 -12.92393,1.55087 -25.84786,5.16957 -37.73787,10.8561 v 3.6187 l -18.09351,4.65261 v 3.10175 l 25.84786,8.27131 6.72045,-1.55087 14.99176,6.72044 c 4.65261,0 8.78827,0 13.44088,0 4.65262,0 7.75436,-1.55087 11.37306,-5.16957 l 8.27132,1.55087 c -3.6187,25.33091 -10.33915,49.11094 -20.67829,71.85706 -10.8561,22.74611 -22.22916,44.97527 -35.15309,66.68748 v 1.55087 c 13.95784,-6.20349 24.29699,-17.05959 31.01743,-30.50048 6.72045,-13.44089 16.02568,-26.36482 27.91569,-36.70396 l 3.6187,-5.16957 h 7.75436 l 2.06783,62.55182 c -2.58479,13.95785 -3.10174,28.9496 -1.55087,43.424407 1.03391,14.474802 -1.55087,28.432647 -6.72045,40.322663 l 16.54264,26.881775 z m 97.70491,-69.272267 c 12.92393,-4.652615 26.36482,-8.788273 39.28875,-13.440883 12.92393,-4.13566 26.88177,-7.23741 41.35657,-9.30523 16.54264,0 33.08527,0 48.59398,0 15.50872,0 30.500478,1.55087 45.492237,4.65261 5.169572,1.55087 9.822187,1.55087 14.474802,0 4.652615,-1.03391 8.271316,-3.10174 11.890016,-6.72044 l 2.584786,-4.65262 -2.584786,-8.27131 c -10.339144,-3.10175 -21.195246,-5.68653 -32.568304,-7.2374 -11.373059,-1.55088 -22.229161,-4.65262 -32.051351,-9.30523 l -11.37306,1.55087 -2.06782,8.27131 h -47.56007 l 8.27132,-22.74611 -1.55087,-11.89002 3.10174,-24.29699 5.16957,-1.55087 7.75436,-8.78827 h 5.16957 v 2.06782 h 5.16957 v -3.6187 h 7.75436 v -7.75435 h 5.16957 l 8.27132,-5.16958 v -8.27131 h -9.82219 v -2.06783 l -3.6187,-1.55087 -18.0935,3.6187 -17.57655,-2.06783 -5.16957,-17.57655 -11.37306,-5.16957 -6.72044,1.55087 -6.72044,-1.55087 h -9.82219 v 6.72045 h -3.10174 l -3.61871,5.16957 3.61871,9.30523 -1.55088,21.7122 -11.37305,3.10174 -8.78828,-1.55087 -10.8561,1.55087 v 1.55088 h -6.72044 l 17.57654,11.89001 v 3.10175 l 23.26308,6.72044 3.6187,24.81395 c 0,5.68652 -0.51696,10.33914 -1.55087,14.99175 -1.55088,5.16958 -3.10175,9.82219 -5.16958,14.47481 l -8.27131,3.10174 -8.27132,-3.10174 c -7.75436,0 -15.50871,1.03391 -23.26307,3.6187 -7.75436,3.10174 -14.99176,5.16957 -22.74612,6.20348 v 3.10175 l -18.0935,6.72044 1.55087,4.65262 c 7.2374,2.58478 14.99176,4.135653 22.22916,5.169568 6.72044,1.033914 13.95784,3.6187 20.67829,8.271315 z m 1.55087,-153.019333 c 15.50872,-6.72045 30.50048,-12.92393 46.52615,-18.0935 14.99176,-5.68653 31.01743,-8.27132 48.59398,-8.27132 l 36.70396,1.55087 h 16.542631 v -3.10174 h 8.271315 v -2.06783 h 1.033915 v -1.55087 h -1.033915 v -6.20349 l 4.652615,-1.55087 v -1.55087 c -9.822187,-2.58479 -20.161331,-4.65262 -29.466561,-6.20349 -9.82219,-1.55087 -19.12742,-4.13566 -27.91569,-7.75436 h 1.55087 v 5.16957 c -8.78827,1.03392 -16.54263,2.58479 -23.78003,5.16958 -7.75436,2.58478 -15.50872,3.6187 -24.29699,3.6187 h -5.16957 c 4.65261,-6.72045 8.27131,-14.4748 11.37306,-21.71221 2.58478,-7.75435 5.68653,-15.50871 8.78827,-23.26307 l 4.65262,-1.55087 h 3.6187 v 5.16957 h 1.55087 v -5.16957 h 3.6187 v 1.55087 c 1.03391,-3.10174 3.6187,-5.16957 7.2374,-6.72044 3.6187,-1.03392 7.2374,-1.55088 10.8561,-1.55088 v -6.20348 h 6.72044 v -3.10175 h -2.06782 v 3.10175 h -6.72045 v -6.72045 h 3.6187 v -3.10174 h 3.10175 v -2.06783 c -5.68653,-3.6187 -11.37306,-4.65261 -17.05959,-3.6187 -6.20349,1.55087 -11.89002,0.51696 -17.57655,-3.10174 l 1.55087,-25.84786 c 0,-4.65262 -0.51695,-8.27132 -1.55087,-11.89002 -1.03391,-3.6187 -2.58478,-6.72044 -4.65261,-9.30523 -3.6187,-4.65261 -7.2374,-7.2374 -10.8561,-7.75436 -4.13566,-0.51695 -8.27132,-1.03391 -12.40698,-1.03391 l -4.65261,-6.72044 h -2.06783 l -3.10174,11.89001 1.55087,7.75436 -1.55087,20.16133 3.10174,29.46656 v 16.54263 l -42.39049,11.89002 c 6.72044,3.6187 12.40697,7.2374 18.0935,11.89001 5.68653,5.16958 12.40697,7.23741 19.64437,6.20349 l -2.06783,12.92393 2.06783,6.72045 -2.06783,8.27131 c -13.95784,1.03392 -26.88177,3.10174 -39.8057,6.72044 -12.40697,4.13566 -24.81395,10.33915 -35.67005,17.57655 7.2374,1.03391 14.99176,3.10174 21.7122,6.72044 6.20349,3.6187 13.44089,5.68653 21.19525,6.72045 z" />
  </g>
</svg>
