<?xml version="1.0" encoding="UTF-8" standalone="no"?>
<svg
   xmlns:dc="http://purl.org/dc/elements/1.1/"
   xmlns:cc="http://creativecommons.org/ns#"
   xmlns:rdf="http://www.w3.org/1999/02/22-rdf-syntax-ns#"
   xmlns:svg="http://www.w3.org/2000/svg"
   xmlns="http://www.w3.org/2000/svg"
   viewBox="0 0 500 500"
   version="1.1"
   id="svg1649">
  <metadata
     id="metadata1655">
    <rdf:RDF>
      <cc:Work
         rdf:about="">
        <dc:format>image/svg+xml</dc:format>
        <dc:type
           rdf:resource="http://purl.org/dc/dcmitype/StillImage" />
        <dc:title />
      </cc:Work>
    </rdf:RDF>
  </metadata>
  <defs
     id="defs1653" />
  <g
     aria-label="金"
     transform="matrix(-0.97722732,0,0,-0.98278136,2.929731,0.39998238)"
     style="font-style:normal;font-variant:normal;font-weight:normal;font-stretch:normal;font-size:522.07849121px;font-family:'衡山毛筆フォント OTF';-inkscape-font-specification:'衡山毛筆フォント OTF, Normal';font-variant-ligatures:normal;font-variant-caps:normal;font-variant-numeric:normal;font-feature-settings:normal;text-align:start;writing-mode:lr-tb;text-anchor:start;white-space:pre;fill:#333333;stroke-width:22.69913483"
     id="text1647">
    <path
       d="m -363.81748,-19.943416 c 19.83898,-7.831177 40.20004,-15.140276 61.08318,-20.88314 20.36106,-6.264942 42.28836,-9.397413 65.25981,-9.397413 l 78.83386,15.140277 c 6.26494,0 13.05196,-1.044157 18.79482,-2.610393 5.74287,-1.566235 9.91949,-3.654549 14.6182,-7.309099 l -3.65455,-12.007805 c -12.00781,-4.698706 -24.53769,-7.831177 -36.54549,-11.485727 -12.00781,-3.654549 -24.53769,-6.78702 -36.5455,-10.44157 h -6.78702 l 1.56624,2.088314 v 3.132471 c -12.52989,-1.044157 -24.01561,-0.522078 -34.97926,1.044157 -10.96365,1.566236 -21.9273,3.132471 -33.41303,4.176628 h -18.27274 l -1.56624,-8.353256 c 1.04416,-6.78702 1.56624,-14.096119 1.56624,-21.927296 0,-7.309102 1.04415,-14.618202 3.65455,-21.405222 l -2.08832,-6.78702 5.22079,-16.70651 -1.56624,-5.22078 4.69871,-16.70652 c 8.87533,-3.13247 18.79482,-5.22078 28.71432,-5.74286 9.91949,0 19.3169,-1.56623 28.19223,-3.65455 l 3.65455,-8.87533 h 6.26495 v -3.13247 h -3.13248 l -5.22078,-8.35326 -19.83898,-1.56623 c -4.69871,1.04415 -9.39742,1.56623 -15.14028,1.56623 -5.22078,0 -10.44157,1.04416 -15.14028,3.13247 h -8.35325 l -3.13247,-9.91949 v -18.27275 l 26.626,-13.57404 4.69871,-11.48572 -4.69871,-9.9195 c -18.79483,-2.61039 -36.02342,0 -51.68577,7.3091 -16.18443,7.83118 -31.84679,12.52989 -48.5533,15.66236 l 2.08831,5.22078 21.40522,12.00781 13.05196,4.6987 8.87534,15.14028 v 11.48573 c -12.52989,4.6987 -25.05977,8.35325 -38.11173,10.96365 -14.09612,2.61039 -26.626,7.30909 -39.15589,14.09612 7.83118,2.61039 15.66236,5.74286 21.9273,9.39741 6.78702,3.65455 14.09612,6.26494 21.40522,7.3091 5.74286,0 11.48572,-1.56624 16.70651,-4.17663 4.17663,-2.61039 8.87533,-4.69871 13.57404,-7.3091 h 6.78702 l 1.56624,15.14028 -3.13248,39.677962 -13.57404,3.654549 3.13247,9.919492 5.22079,3.13247 3.65455,10.44157 6.78702,4.698707 v 3.654549 c -16.18443,5.220785 -32.89095,8.353256 -51.16369,8.875335 -18.27275,0.522078 -34.97926,3.654549 -51.1637,9.397412 l 3.65455,6.264942 c 6.78702,4.698707 13.05197,8.353256 20.88314,10.963649 7.3091,2.610392 14.6182,5.220784 22.44938,7.831177 z m 0,-58.99487 5.22078,-1.566235 3.13247,-6.264942 4.69871,-1.566235 -1.04416,-23.493532 -13.57404,6.26494 -27.14808,-11.48573 h -4.6987 l 8.35325,23.493537 15.14028,8.353256 v 3.13247 z m 95.01828,-18.272747 c 4.69871,-4.698707 9.39742,-7.309097 15.66236,-8.353257 6.26494,-0.52208 12.0078,-1.56623 17.75067,-2.61039 3.65455,-2.61039 7.3091,-4.69871 12.0078,-6.26494 4.17663,-1.56624 7.3091,-4.69871 9.39742,-9.39742 l -3.13247,-11.48572 -18.27275,-6.78702 -25.05977,1.56623 3.13247,5.22079 c 0,6.78702 -1.04416,13.05196 -2.61039,19.3169 -1.56624,6.26494 -4.17663,11.48573 -8.87534,17.228592 z M -480.76306,-163.515 c 8.87533,-4.69871 18.27274,-8.35326 26.626,-12.52988 8.87533,-3.65455 18.27275,-7.3091 28.71432,-10.96365 l 28.19224,-38.11173 9.91949,-5.22079 18.27274,-38.63381 5.22079,-1.56623 c 6.78702,-12.00781 13.05196,-24.01561 19.83898,-35.50134 6.78702,-12.0078 13.57404,-22.97145 19.83898,-34.45718 l 10.44157,-3.65455 3.13248,-9.39741 h 4.6987 l 43.33252,41.2442 20.36106,20.36106 c 27.67016,32.36887 60.03902,55.8624 96.06244,71.00267 36.02342,14.6182 74.135146,22.97146 114.335189,24.01562 l 9.397413,-1.56624 -1.566235,-6.78702 -6.264942,-6.78702 c -42.288358,-14.6182 -81.444245,-34.97926 -118.511815,-61.08318 -36.5455,-26.10393 -72.56891,-53.25201 -108.59233,-82.48841 v -3.13247 l -14.6182,-11.48572 c -6.78702,-5.74287 -11.48572,-12.52989 -13.05196,-19.83899 -1.04416,-7.83117 -3.13247,-16.18443 -5.22078,-23.49353 l -33.93511,-5.22078 -9.39741,3.65455 c -4.6987,27.14808 -12.52988,53.77408 -24.01561,79.35593 -12.0078,26.10392 -25.58185,50.64161 -41.2442,74.13514 -12.52988,16.70651 -24.53769,33.41303 -37.06757,50.11954 -12.00781,17.75067 -26.62601,33.41302 -44.89875,48.03122 z"
       style="font-style:normal;font-variant:normal;font-weight:normal;font-stretch:normal;font-size:522.07849121px;font-family:'衡山毛筆フォント OTF';-inkscape-font-specification:'衡山毛筆フォント OTF, Normal';font-variant-ligatures:normal;font-variant-caps:normal;font-variant-numeric:normal;font-feature-settings:normal;text-align:start;writing-mode:lr-tb;text-anchor:start;white-space:pre;fill:#333333;stroke-width:22.69913483"
       id="path7" />
  </g>
</svg>
