<?xml version="1.0" encoding="UTF-8" standalone="no"?>
<svg
   xmlns:dc="http://purl.org/dc/elements/1.1/"
   xmlns:cc="http://creativecommons.org/ns#"
   xmlns:rdf="http://www.w3.org/1999/02/22-rdf-syntax-ns#"
   xmlns:svg="http://www.w3.org/2000/svg"
   xmlns="http://www.w3.org/2000/svg"
   id="svg1536"
   version="1.1"
   viewBox="0 0 500 500">
  <metadata
     id="metadata1542">
    <rdf:RDF>
      <cc:Work
         rdf:about="">
        <dc:format>image/svg+xml</dc:format>
        <dc:type
           rdf:resource="http://purl.org/dc/dcmitype/StillImage" />
        <dc:title />
      </cc:Work>
    </rdf:RDF>
  </metadata>
  <defs
     id="defs1540" />
  <g
     id="text1534"
     style="font-style:normal;font-variant:normal;font-weight:normal;font-stretch:normal;font-size:535.09918213px;font-family:'衡山毛筆フォント OTF';-inkscape-font-specification:'衡山毛筆フォント OTF, Normal';font-variant-ligatures:normal;font-variant-caps:normal;font-variant-numeric:normal;font-feature-settings:normal;text-align:start;writing-mode:lr-tb;text-anchor:start;white-space:pre;fill:#333333;stroke-width:23.26525307"
     transform="scale(-0.99716994,-1.0028381)"
     aria-label="香">
    <path
       id="path7"
       style="font-style:normal;font-variant:normal;font-weight:normal;font-stretch:normal;font-size:535.09918213px;font-family:'衡山毛筆フォント OTF';-inkscape-font-specification:'衡山毛筆フォント OTF, Normal';font-variant-ligatures:normal;font-variant-caps:normal;font-variant-numeric:normal;font-feature-settings:normal;text-align:start;writing-mode:lr-tb;text-anchor:start;white-space:pre;fill:#333333;stroke-width:23.26525307"
       d="m -221.0481,-19.943397 c 2.67549,-2.140397 4.81589,-3.745695 6.95629,-5.350992 2.14039,-1.605298 4.28079,-1.605298 8.02648,-0.535099 8.02649,-22.474166 11.77219,-46.01853 11.77219,-70.633092 0,-24.61456 3.74569,-47.62383 10.70198,-70.09799 l 18.72847,-6.95629 -3.74569,-12.30728 -6.42119,-6.42119 -40.66754,-13.91258 h -13.37748 v 1.60529 h -2.6755 v 3.7457 c -9.63178,0.5351 -19.79867,1.6053 -29.43045,3.21059 -10.16689,1.6053 -18.72847,4.2808 -27.82516,6.95629 h -4.28079 c 1.0702,-13.37748 2.1404,-27.82515 2.67549,-41.73773 0.5351,-13.91258 1.6053,-28.36026 3.7457,-41.73774 h 4.81589 l 16.05298,17.12317 c 23.54436,19.79867 48.69402,37.45695 75.44898,52.97482 26.21986,15.51788 55.65032,23.54437 87.75627,23.54437 5.350989,0 10.701981,0 16.588072,0.5351 5.350992,0.5351 10.166884,-1.0702 13.912579,-4.2808 l 2.140396,-6.42119 h 1.605298 c -16.052976,-6.95629 -32.105955,-13.91258 -48.694025,-20.86886 -16.05298,-6.95629 -33.17615,-11.77219 -51.36952,-15.51788 -19.26357,-8.56159 -37.99204,-18.72847 -54.58012,-31.03575 -16.58807,-11.77219 -31.03575,-26.75496 -42.80793,-44.41324 v -3.74569 c 13.91258,-1.0702 27.82515,-3.74569 40.66753,-7.49139 13.37748,-4.28079 26.21986,-6.42119 40.13244,-6.42119 l -2.67549,-13.91258 c -9.09669,-3.21059 -18.72847,-4.81589 -27.29006,-4.81589 -9.09669,0 -17.65827,-1.6053 -26.21986,-4.81589 h -8.56159 l -5.88609,8.02649 -24.07946,9.09668 h -3.7457 l 1.6053,-18.72847 -4.81589,-17.12317 -20.86887,-1.6053 1.6053,-4.81589 c 7.49139,-4.2808 14.98278,-7.49139 24.07946,-9.63179 8.56159,-1.6053 16.58808,-4.28079 24.07946,-8.02649 l -4.28079,-13.91258 c -6.95629,-3.21059 -13.91258,-5.88609 -21.40397,-8.02648 -8.02648,-2.1404 -14.44767,-6.42119 -19.26357,-13.37748 h -4.81589 c -3.74569,16.58807 -10.16688,30.50065 -19.26357,42.80793 -10.16688,11.77218 -19.26357,24.07946 -29.43046,36.92184 5.8861,-3.74569 11.23709,-7.49138 16.05298,-12.30728 5.35099,-4.28079 11.77218,-6.95629 19.26357,-8.02648 h 3.2106 c -1.0702,6.95629 -1.6053,14.98277 -1.6053,24.07946 0,8.56159 -1.6053,16.58807 -6.42119,23.54436 -13.91258,4.2808 -27.82516,8.56159 -42.27284,11.77219 -14.98277,3.74569 -28.89535,7.49138 -42.80793,11.77218 v 2.67549 l -21.40397,6.42119 c 4.28079,5.351 9.09669,8.02649 14.98278,8.56159 5.35099,0.5351 10.16688,2.6755 15.51787,6.42119 l 45.48343,-8.56159 h 4.8159 l -3.2106,6.42119 3.2106,5.88609 c -9.09669,25.68477 -19.79867,49.76423 -33.17615,72.77349 -12.84238,23.54437 -28.89536,45.48343 -47.62383,66.3523 v 2.1404 c 6.42119,-2.6755 12.84238,-5.88609 19.26357,-9.63179 5.35099,-3.21059 11.23708,-7.49139 16.58808,-12.84238 h 4.81589 l 9.09668,12.30728 10.16689,6.42119 14.44768,36.921848 -1.6053,12.307281 c 1.0702,8.561587 3.21059,16.052976 6.95629,23.009265 3.21059,6.956289 7.49139,13.37748 12.30728,19.79867 l 11.77218,8.026488 52.43972,-6.95629 h 10.16689 l -11.23709,2.140397 H -285.26 v -3.210595 l 25.68476,-5.350992 h 9.63178 l 1.6053,6.42119 3.21059,2.140397 2.1404,4.815893 6.42119,2.675495 h 1.6053 v -9.631785 c 3.21059,0 5.35099,1.070199 6.95629,3.210595 1.6053,2.675496 4.28079,3.210595 6.95629,2.140397 l 2.14039,5.886091 z m -30.50066,-37.992042 -52.97481,2.140396 h -13.37748 c -2.1404,-9.096686 -3.7457,-17.123173 -5.8861,-25.149661 -2.14039,-7.491389 -5.35099,-14.982777 -10.16688,-22.474166 v -3.21059 c 12.84238,0 24.61456,-2.6755 35.31655,-6.95629 11.23708,-4.8159 21.40396,-9.63179 31.03575,-14.98278 v -4.28079 l -12.30728,-3.7457 c -11.23708,0 -20.86887,1.6053 -29.43046,3.7457 -9.09668,2.67549 -17.12317,5.88609 -26.21986,8.56158 l -4.81589,-1.6053 -4.81589,-12.30728 v -4.81589 c 2.14039,-5.35099 5.88609,-10.70198 10.70198,-14.98278 4.81589,-4.81589 10.16689,-8.02648 14.98278,-10.16688 l 8.56159,1.6053 1.60529,4.81589 8.02649,3.21059 v 3.2106 c 7.49139,-1.0702 14.98278,-2.6755 21.93907,-4.81589 6.42119,-2.1404 13.37748,-5.35099 19.79867,-9.63179 l 6.42119,1.6053 8.02648,52.43972 c 0,8.02649 0,16.588074 0,25.149661 0,8.026487 -1.07019,16.052975 -3.21059,24.079463 l -4.81589,0.535099 1.60529,5.350992 z m -108.09003,-86.686071 -1.6053,1.6053 -27.29006,-6.42119 5.88609,-13.91258 h 3.7457 c 13.37748,-15.51787 24.07946,-32.64105 33.17615,-50.29932 8.56159,-17.12318 18.19337,-34.24635 27.82516,-51.36952 h 4.81589 v 42.80793 h -6.42119 l -2.6755,27.29006 1.0702,8.02649 v 7.49139 h -2.6755 v 4.81589 z" />
  </g>
</svg>
