<?xml version="1.0" encoding="UTF-8" standalone="no"?>
<svg
   xmlns:dc="http://purl.org/dc/elements/1.1/"
   xmlns:cc="http://creativecommons.org/ns#"
   xmlns:rdf="http://www.w3.org/1999/02/22-rdf-syntax-ns#"
   xmlns:svg="http://www.w3.org/2000/svg"
   xmlns="http://www.w3.org/2000/svg"
   id="svg1443"
   version="1.1"
   viewBox="0 0 500 500">
  <metadata
     id="metadata1449">
    <rdf:RDF>
      <cc:Work
         rdf:about="">
        <dc:format>image/svg+xml</dc:format>
        <dc:type
           rdf:resource="http://purl.org/dc/dcmitype/StillImage" />
        <dc:title />
      </cc:Work>
    </rdf:RDF>
  </metadata>
  <defs
     id="defs1447" />
  <g
     id="text1441"
     style="font-style:normal;font-variant:normal;font-weight:normal;font-stretch:normal;font-size:498.58496094px;font-family:'衡山毛筆フォント OTF';-inkscape-font-specification:'衡山毛筆フォント OTF, Normal';font-variant-ligatures:normal;font-variant-caps:normal;font-variant-numeric:normal;font-feature-settings:normal;text-align:start;writing-mode:lr-tb;text-anchor:start;white-space:pre;fill:#ff0000;stroke-width:21.67767334"
     transform="scale(-0.99716992,-1.0028381)"
     aria-label="全">
    <path
       id="path7"
       style="font-style:normal;font-variant:normal;font-weight:normal;font-stretch:normal;font-size:498.58496094px;font-family:'衡山毛筆フォント OTF';-inkscape-font-specification:'衡山毛筆フォント OTF, Normal';font-variant-ligatures:normal;font-variant-caps:normal;font-variant-numeric:normal;font-feature-settings:normal;text-align:start;writing-mode:lr-tb;text-anchor:start;white-space:pre;fill:#ff0000;stroke-width:21.67767334"
       d="m -390.43809,-19.943403 c 14.45897,-0.99717 28.91793,-2.99151 43.37689,-6.980189 13.96038,-3.490095 27.42218,-6.481605 41.38256,-9.473115 l 4.48726,0.99717 54.34576,-4.487264 c 13.4618,-2.492925 26.42501,-1.99434 37.39387,1.495755 11.46746,2.991509 22.43633,4.985849 33.4052,6.481604 l 32.40802,-3.490095 4.98585,-6.481604 -3.4901,-11.966039 -69.30331,-14.957549 v -3.490095 h -4.98585 v -3.490094 h -1.99434 v 4.985849 c -10.96886,5.484435 -22.9349,9.473114 -35.89811,10.968869 -12.96321,1.99434 -25.92642,2.99151 -38.39104,3.98868 h -26.92359 c 2.49292,-12.963209 4.98585,-25.926418 7.97736,-39.388212 2.49292,-12.963208 4.48726,-25.926418 5.98302,-39.886798 11.96604,-3.49009 24.92924,-4.98585 37.89245,-6.4816 12.96321,-0.99717 25.92642,-3.98868 37.89246,-8.47595 l -1.99434,-13.46179 -33.40519,-6.98019 c -4.48727,0 -9.47312,0.49858 -13.96038,0.99717 -3.98868,0.49858 -7.97736,2.49292 -11.46745,5.98302 l -6.98019,-3.4901 1.49575,-19.94339 -1.49575,-22.43633 v -6.4816 l 40.38538,-11.96604 12.46462,-11.96604 -3.49009,-7.97736 -32.40803,-6.98019 c -9.97169,3.4901 -20.44198,6.48161 -30.41368,9.47311 -10.47028,2.49293 -20.94057,4.98585 -31.90944,6.98019 l -20.44198,-4.98585 h -1.49575 v 3.4901 h -6.98019 l -4.98585,10.47028 -11.46746,3.4901 v 1.49575 l 19.9434,2.99151 c 2.49293,2.49293 3.98868,4.98585 4.98585,7.47878 0.99717,2.99151 1.49576,6.4816 1.49576,9.9717 l 23.93207,2.99151 c 0,3.49009 0,6.4816 0,9.9717 0,3.49009 1.49576,6.4816 4.98585,8.97452 l -1.49575,7.97736 4.98585,8.97453 v 9.9717 l -40.38538,6.48161 -13.96038,-2.99151 h -2.99151 v 6.4816 l 16.95189,16.95189 c 6.4816,0 12.96321,-0.49858 18.44764,-0.99717 5.48443,-0.49858 10.96887,-1.49575 16.95189,-3.98868 h 6.4816 l -6.4816,41.881138 h -3.4901 l -4.98585,12.464624 8.47595,19.943398 -1.99434,8.475945 c -2.49293,0 -4.98585,-0.498585 -6.98019,-0.99717 -2.99151,-0.498585 -4.98585,-1.99434 -6.4816,-4.487265 -13.4618,-0.99717 -25.92642,0.498585 -36.89529,4.487265 -11.46746,3.988679 -22.43633,6.980189 -33.90378,9.473114 z m -79.27501,-143.592467 13.4618,-11.96604 9.9717,-13.46179 25.42783,-16.95189 c 16.95189,-19.9434 32.90661,-40.88397 47.36557,-62.32312 14.45897,-21.43916 27.92076,-43.87548 38.88963,-67.80756 l 4.98585,3.4901 c 34.90095,34.90094 70.79906,66.81038 108.69152,95.22972 36.89529,28.91793 79.77359,46.36841 127.63775,51.85284 10.470284,1.49576 19.943398,0.99717 29.915098,-0.99717 9.473114,-1.49575 18.946228,-2.99151 29.416512,-3.98868 l -8.475944,-3.49009 v -3.4901 c -18.946228,-7.97736 -38.391042,-14.95755 -57.33727,-21.43915 -18.946226,-5.98302 -38.391046,-12.96321 -57.337266,-20.94057 -25.92642,-15.95472 -51.85284,-32.90661 -77.28067,-50.85567 -25.42784,-17.94906 -47.36558,-38.39104 -66.81039,-62.32312 l -7.97736,-8.47594 -12.46462,-4.98585 -0.99717,-9.9717 -6.98019,-3.49009 v -3.4901 l -11.96604,-13.46179 h -2.99151 v 3.49009 h -8.97453 l -4.98585,13.4618 -7.97736,1.49575 c -6.98019,39.38821 -19.9434,76.78208 -38.88963,111.68303 -19.44481,34.90095 -40.88396,68.80473 -64.31746,101.71133 z" />
  </g>
</svg>
