<?xml version="1.0" encoding="UTF-8" standalone="no"?>
<svg
   xmlns:dc="http://purl.org/dc/elements/1.1/"
   xmlns:cc="http://creativecommons.org/ns#"
   xmlns:rdf="http://www.w3.org/1999/02/22-rdf-syntax-ns#"
   xmlns:svg="http://www.w3.org/2000/svg"
   xmlns="http://www.w3.org/2000/svg"
   id="svg1350"
   version="1.1"
   viewBox="0 0 500 500">
  <metadata
     id="metadata1356">
    <rdf:RDF>
      <cc:Work
         rdf:about="">
        <dc:format>image/svg+xml</dc:format>
        <dc:type
           rdf:resource="http://purl.org/dc/dcmitype/StillImage" />
        <dc:title />
      </cc:Work>
    </rdf:RDF>
  </metadata>
  <defs
     id="defs1354" />
  <g
     id="text1348"
     style="font-style:normal;font-variant:normal;font-weight:normal;font-stretch:normal;font-size:513.81402588px;font-family:'衡山毛筆フォント OTF';-inkscape-font-specification:'衡山毛筆フォント OTF, Normal';font-variant-ligatures:normal;font-variant-caps:normal;font-variant-numeric:normal;font-feature-settings:normal;text-align:start;writing-mode:lr-tb;text-anchor:start;white-space:pre;fill:#ff0000;stroke-width:22.33980751"
     transform="scale(-0.99716955,-1.0028385)"
     aria-label="圭">
    <path
       id="path7"
       style="font-style:normal;font-variant:normal;font-weight:normal;font-stretch:normal;font-size:513.81402588px;font-family:'衡山毛筆フォント OTF';-inkscape-font-specification:'衡山毛筆フォント OTF, Normal';font-variant-ligatures:normal;font-variant-caps:normal;font-variant-numeric:normal;font-feature-settings:normal;text-align:start;writing-mode:lr-tb;text-anchor:start;white-space:pre;fill:#ff0000;stroke-width:22.33980751"
       d="m -396.81386,-19.943367 c 22.094,-6.165768 43.67419,-13.359165 64.74057,-21.580189 21.06637,-7.193397 43.16038,-13.359165 66.28201,-17.983491 l 43.67419,1.541442 7.70721,-1.541442 c 20.03875,-3.082884 38.53605,-1.541442 55.49191,5.13814 16.44205,6.679582 33.91173,10.790095 52.92285,11.817723 l 4.62433,-1.541442 8.734834,1.541442 h 16.442048 l 2.055257,-5.138141 c 4.110512,0 7.70721,-0.513814 11.303908,-1.027628 3.596698,-0.513814 6.165768,-2.055256 8.221024,-5.651954 l -1.541442,-9.762466 c -13.872978,-5.651955 -27.232143,-10.790095 -41.618936,-14.900607 -14.900603,-3.596698 -28.773583,-6.679582 -43.160373,-10.276281 l -3.5967,3.596699 -46.24327,-1.541443 -3.59669,1.541443 -51.38141,-1.541443 -10.27628,1.541443 h -9.76246 c 5.13814,-11.303909 9.24865,-22.607818 11.81772,-35.453168 2.05526,-11.81772 5.13814,-23.63545 9.76247,-34.42554 l 46.24326,-13.87298 2.05525,-4.62432 h 9.76247 l 2.05526,-5.13815 -2.05526,-8.22102 c -9.76247,-4.11051 -20.03875,-6.16577 -31.34265,-5.13814 -11.30391,1.54144 -22.60782,1.02763 -33.39792,-1.54144 l -1.54144,-9.76247 c -6.67958,-2.56907 -13.35916,-4.62432 -20.55256,-7.19339 -7.70721,-1.54145 -13.87298,-6.16577 -19.52493,-12.84536 v -3.59669 c 20.03874,-7.1934 41.61893,-11.30391 65.25438,-10.7901 23.12163,0.51382 44.70182,-3.08288 64.74057,-10.79009 v -11.30391 c -11.30391,-3.5967 -22.09401,-5.65196 -33.39792,-7.1934 -11.3039,-1.02763 -22.60781,-2.56907 -33.39791,-4.62432 l -8.22102,3.08288 -6.67958,-1.54144 h -4.62433 v 3.5967 l -7.1934,1.54144 -1.54144,5.13814 -9.76247,1.54144 h -10.27628 c 3.5967,-7.70721 6.67959,-15.41442 10.27628,-22.60782 3.5967,-7.19339 6.16577,-14.9006 9.76247,-22.094 8.73484,-5.65195 17.98349,-10.79009 28.25977,-15.41442 9.76247,-4.11051 20.55256,-7.1934 31.34266,-9.76247 l 8.73484,-8.73484 1.54144,-6.16576 -1.54144,-10.27628 c -9.76247,0 -19.52494,0.51381 -28.25977,1.02762 -8.73484,0.51382 -17.9835,2.05526 -26.71833,4.11052 l -6.67959,-3.08289 3.5967,-23.63544 -3.5967,-8.22103 -26.71833,-9.76246 c -3.59669,-2.56907 -6.16576,-4.62433 -9.76246,-6.16577 -3.5967,-1.54144 -5.65196,-4.11051 -6.67958,-7.1934 h -1.54145 l -2.05525,11.30391 c 0,4.62433 0.51381,9.24865 1.02763,12.33154 0.51381,4.11051 2.05525,7.70721 4.11051,11.30391 v 41.61893 l -51.38141,12.84535 -4.62432,-1.54144 -31.85647,1.54144 1.54144,5.13814 c 7.70721,6.67958 16.44205,11.81772 26.20452,13.87298 9.24865,3.08288 19.01112,5.65196 28.25977,7.70721 l 7.19339,-1.54144 c 2.05526,0 4.62433,0 7.70721,0 2.56907,0 4.62433,1.02763 6.67959,3.5967 -1.02763,6.67958 -2.56907,12.84535 -3.5967,19.52493 -1.54144,6.67958 -4.11051,13.35916 -7.70721,18.49731 -10.27628,4.62432 -20.03875,7.19339 -30.82884,8.22102 -10.27628,1.54144 -21.06638,2.56907 -32.37029,3.5967 l -1.54144,4.62432 -23.12163,5.13814 c 6.67958,5.65196 13.87298,9.24866 22.60782,11.81773 8.22102,2.56907 15.41442,5.65195 22.094,11.30391 l 43.16038,-14.90061 h 7.19339 l -3.59669,18.4973 v 6.67959 l 6.16576,1.54144 3.5967,11.81772 -2.05525,8.22103 -47.78471,9.76246 -14.9006,-5.13814 h -2.05526 l 3.5967,5.13814 v 3.5967 h -3.5967 l 2.05526,5.13814 c 4.62432,4.62433 8.73483,7.70721 13.35916,11.30391 4.11051,3.5967 9.24865,5.65195 14.90061,6.67958 l 8.22102,-1.54144 28.25977,1.54144 c -1.54144,10.27628 -2.05525,20.03875 -2.05525,30.82884 0,10.276283 -2.56907,20.038749 -7.70721,27.232146 -13.87298,4.624326 -27.23215,8.734838 -40.59131,12.84535 -14.38679,4.110513 -28.25977,6.679583 -42.64657,8.734839 l -10.27628,-3.082884 h -5.13814 l -6.16576,9.762466 -23.12164,3.596698 v 6.165769 h -2.05525 l 18.4973,15.414421 9.76247,-1.541443 h 6.67958 z" />
  </g>
</svg>
