<?xml version="1.0" encoding="UTF-8" standalone="no"?>
<svg
   xmlns:dc="http://purl.org/dc/elements/1.1/"
   xmlns:cc="http://creativecommons.org/ns#"
   xmlns:rdf="http://www.w3.org/1999/02/22-rdf-syntax-ns#"
   xmlns:svg="http://www.w3.org/2000/svg"
   xmlns="http://www.w3.org/2000/svg"
   viewBox="0 0 500 500"
   version="1.1"
   id="svg1257">
  <metadata
     id="metadata1263">
    <rdf:RDF>
      <cc:Work
         rdf:about="">
        <dc:format>image/svg+xml</dc:format>
        <dc:type
           rdf:resource="http://purl.org/dc/dcmitype/StillImage" />
        <dc:title />
      </cc:Work>
    </rdf:RDF>
  </metadata>
  <defs
     id="defs1261" />
  <g
     aria-label="杏"
     transform="matrix(-0.94313616,0,0,-0.94849707,9.4080076,1.0837468)"
     style="font-style:normal;font-variant:normal;font-weight:normal;font-stretch:normal;font-size:535.25170898px;font-family:'衡山毛筆フォント OTF';-inkscape-font-specification:'衡山毛筆フォント OTF, Normal';font-variant-ligatures:normal;font-variant-caps:normal;font-variant-numeric:normal;font-feature-settings:normal;text-align:start;writing-mode:lr-tb;text-anchor:start;white-space:pre;fill:#ff0000;stroke-width:23.27188301"
     id="text1255">
    <path
       d="m -282.64837,-20.144116 c 10.16978,0.535251 20.33956,0 29.43884,-1.605755 9.63453,-1.605755 18.19856,-4.817266 26.76258,-9.099279 l 12.84605,8.564027 13.91654,-7.493524 c 5.88777,-11.240286 10.16978,-24.086327 12.84604,-37.46762 2.67626,-13.916544 4.81727,-26.762585 6.95827,-40.143873 l 7.49353,-8.02878 2.67626,-3.21151 c 4.28201,-6.95827 8.02877,-13.91655 11.24028,-20.87482 3.21151,-6.95827 6.42302,-13.91654 9.63453,-20.87481 l -2.67626,-10.16979 c -6.95827,-3.74676 -14.45179,-5.88777 -21.94532,-8.56402 -8.02877,-2.67626 -14.98704,-6.42302 -20.87481,-11.24029 l -2.14101,3.21151 -5.35252,-3.21151 -7.49352,4.28201 -4.28201,-1.0705 h -2.14101 v 2.14101 l -29.43884,6.42302 c -2.67626,0.53525 -4.81727,0 -5.88777,-1.60576 -1.07051,-1.60575 -2.67626,-3.21151 -4.81727,-3.74676 v -2.14101 h -2.14101 v -2.141 l -3.74676,-3.21151 -6.42302,-3.21151 c 2.14101,-10.70504 4.28202,-21.94532 6.42302,-32.65036 1.60576,-10.70503 3.21151,-21.41007 4.81727,-32.65035 l 13.91654,13.91654 h 2.14101 l 18.73381,21.41007 c 24.62158,26.76259 52.98992,44.96114 86.17552,55.66618 32.11511,11.24028 65.300712,20.33956 98.486318,28.36834 h 13.381293 l 3.21151,-15.5223 -4.282013,-9.63453 -7.493524,-2.67626 -1.070504,-3.21151 c -21.410068,-8.56403 -43.89064,-15.5223 -66.90646,-19.80431 -23.55108,-4.28202 -45.4964,-11.77554 -65.83596,-23.01583 -5.88777,-4.81726 -12.31079,-9.09928 -18.73381,-13.38129 -6.42302,-3.74676 -11.77554,-8.56403 -16.59281,-13.91654 l -3.21151,-3.21151 -7.49352,-4.28202 -16.05755,-24.08632 -7.49353,-4.28202 v -2.14101 l -6.95827,-6.42302 -11.77554,-8.02877 8.56403,-14.4518 39.07338,1.07051 4.28201,-1.07051 21.94532,3.21151 31.57985,-1.0705 2.14101,1.0705 11.77554,-3.21151 7.49352,1.07051 c 3.21151,0 6.42302,0 10.16978,0 3.74676,0 6.95827,-1.07051 9.63453,-2.67626 l 2.14101,-4.28202 h 1.60575 v -4.28201 l -4.81726,-4.28201 v -2.14101 h 2.14101 v -4.28201 h 2.67625 l -2.67625,-1.60576 -2.14101,-5.35252 -9.63453,-4.28201 -3.21151,-4.28201 c -5.35252,-1.60576 -10.70504,-2.67626 -16.5928,-3.21151 -5.88777,-0.53526 -10.70504,-1.60576 -16.05756,-3.21151 l -5.35251,1.0705 c -4.28202,-0.53525 -8.56403,-1.60576 -12.31079,-2.67626 -4.28202,-0.53525 -8.02878,-1.60575 -11.77554,-3.21151 l -5.35252,1.0705 v 2.67626 h 1.07051 v 2.14101 l -13.3813,3.21151 v 7.49352 l -4.28201,2.14101 -3.21151,2.14101 -35.86186,4.81726 h -6.42303 c -1.60575,-3.21151 -2.141,-6.95827 -2.141,-11.77554 0,-4.81726 -0.53525,-9.09927 -1.07051,-12.84604 l 1.07051,-4.28201 -3.21151,-39.07337 c -3.74676,-2.14101 -6.95827,-4.28202 -10.70504,-5.88777 -3.74676,-1.60576 -8.56402,-2.14101 -13.38129,-1.60576 l -16.05755,-16.5928 h -2.14101 v -2.14101 h -2.141 l 2.141,13.38129 -1.0705,8.56403 1.0705,5.35252 -2.141,11.24028 h -1.07051 l 1.07051,6.42303 h 1.0705 c 3.74676,6.42302 6.95827,13.91654 10.16978,20.87481 3.21151,6.95827 5.35252,14.4518 5.88777,22.48057 v 11.24029 c -13.38129,3.74676 -26.76259,7.49352 -40.14388,11.77554 -12.84604,4.28201 -25.69208,8.02877 -39.07337,12.31079 l -16.59281,-1.07051 -9.63453,1.07051 v 1.60575 c -5.88777,2.67626 -12.84604,4.81727 -19.80431,5.35252 -6.95827,0.53525 -13.91654,2.14101 -20.33956,4.28201 v 2.14101 l 41.21438,12.31079 c 8.56402,0 16.5928,-0.53525 24.08632,-1.60576 8.02878,-1.0705 14.98705,-2.141 22.48058,-3.74676 h 2.141 c -6.42302,18.73381 -14.98705,36.39712 -26.76258,52.45467 -11.77554,16.05755 -24.08633,32.1151 -36.39712,48.7079 h -2.14101 l -16.05755,20.33957 h -2.141 l -21.94532,23.01582 -39.07338,36.932371 1.0705,3.21151 19.26907,-3.21151 4.81726,1.070503 c 5.88777,-0.535251 10.70504,-2.676254 15.5223,-6.423024 4.81727,-3.21151 9.09928,-5.88777 13.91655,-8.56402 v -2.14101 l 9.63453,-6.42302 8.56402,-12.31079 3.21151,-1.0705 12.84604,-17.12806 2.67626,-0.53525 c 3.74677,-4.81727 7.49353,-9.63453 11.24029,-14.4518 3.74676,-4.28201 7.49352,-8.56402 9.63453,-13.38129 h 2.14101 l 29.97409,-39.60863 h 2.14101 l 7.49352,-7.49352 8.02878,-9.09928 5.35252,-5.88777 3.21151,-3.21151 2.141,-3.21151 2.14101,-3.21151 h 2.14101 c 2.141,-3.74676 3.74676,-6.95827 6.42302,-10.16978 2.67626,-2.67626 4.28201,-5.88777 5.88777,-9.63453 l 6.42302,-4.28201 h 3.21151 c -0.53525,14.98704 -1.07051,30.50934 -1.60576,45.49639 -0.53525,14.98705 -2.14101,29.9741 -4.81726,43.89064 l -8.56403,8.56403 -1.0705,2.141 1.0705,2.67626 v 3.21151 h -1.0705 c 1.60575,2.67626 2.141,5.88777 2.141,8.56403 0,3.21151 0.53525,6.42302 2.14101,9.09928 l 5.35252,2.67626 9.09928,16.05755 2.67625,3.21151 h 2.14101 l 1.0705,-2.14101 c 8.56403,-2.141 16.59281,-5.35251 24.62158,-9.09928 8.02878,-3.74676 15.5223,-7.49352 23.55108,-10.70503 h 6.42302 c -0.53525,2.14101 0,4.81727 1.60575,6.95827 1.60576,2.14101 3.21151,4.28202 3.74677,6.42302 v 52.989922 c 0,7.493524 -1.07051,14.451796 -2.67626,20.874817 -1.60576,5.887768 -4.28202,12.310789 -6.95828,18.733809 l -38.53812,5.352517 c -4.28201,0 -8.56403,0 -12.31079,0 -3.74676,0 -6.95827,-0.535251 -10.16978,-2.141006 -1.60576,-8.028776 -2.14101,-16.057552 -2.67626,-24.086327 -0.53525,-8.564028 -2.67626,-16.592803 -6.95827,-23.015824 h -2.14101 l -18.73381,-24.621578 -9.63453,-6.42302 v -2.14101 c -6.42302,-4.81726 -14.45179,-8.02877 -21.94532,-10.16978 -8.56403,-2.14101 -17.6633,-3.74676 -26.22733,-4.28201 h -2.14101 v 1.0705 l 5.35252,2.14101 c 2.14101,3.74676 5.35252,6.95827 8.02877,10.70503 2.67626,3.74676 4.81727,8.02878 6.42302,12.31079 l 2.14101,1.0705 7.49353,13.916548 7.49352,9.63453 h 2.14101 l 2.141,5.887769 7.49353,3.211511 c 2.141,2.141006 4.28201,4.282013 5.35251,6.42302 1.07051,2.141007 2.14101,4.817265 2.67626,7.493524 l -1.0705,2.676258 c 2.67626,6.423021 5.88777,12.31079 9.09928,18.198559 3.21151,5.352517 7.49352,10.169782 11.77554,14.987047 2.141,3.746762 4.81726,5.352518 8.56402,5.887769 3.74676,0.535252 6.95828,1.070504 10.16979,2.676259 z"
       style="font-style:normal;font-variant:normal;font-weight:normal;font-stretch:normal;font-size:535.25170898px;font-family:'衡山毛筆フォント OTF';-inkscape-font-specification:'衡山毛筆フォント OTF, Normal';font-variant-ligatures:normal;font-variant-caps:normal;font-variant-numeric:normal;font-feature-settings:normal;text-align:start;writing-mode:lr-tb;text-anchor:start;white-space:pre;fill:#ff0000;stroke-width:23.27188301"
       id="path7" />
  </g>
</svg>
