<?xml version="1.0" encoding="UTF-8" standalone="no"?>
<svg
   xmlns:dc="http://purl.org/dc/elements/1.1/"
   xmlns:cc="http://creativecommons.org/ns#"
   xmlns:rdf="http://www.w3.org/1999/02/22-rdf-syntax-ns#"
   xmlns:svg="http://www.w3.org/2000/svg"
   xmlns="http://www.w3.org/2000/svg"
   id="svg1164"
   version="1.1"
   viewBox="0 0 500 500">
  <metadata
     id="metadata1170">
    <rdf:RDF>
      <cc:Work
         rdf:about="">
        <dc:format>image/svg+xml</dc:format>
        <dc:type
           rdf:resource="http://purl.org/dc/dcmitype/StillImage" />
        <dc:title />
      </cc:Work>
    </rdf:RDF>
  </metadata>
  <defs
     id="defs1168" />
  <g
     id="text1162"
     style="font-style:normal;font-variant:normal;font-weight:normal;font-stretch:normal;font-size:547.96557617px;font-family:'衡山毛筆フォント OTF';-inkscape-font-specification:'衡山毛筆フォント OTF, Normal';font-variant-ligatures:normal;font-variant-caps:normal;font-variant-numeric:normal;font-feature-settings:normal;text-align:start;writing-mode:lr-tb;text-anchor:start;white-space:pre;fill:#333333;stroke-width:23.82466316"
     transform="scale(-0.99717043,-1.0028376)"
     aria-label="王">
    <path
       id="path7"
       style="font-style:normal;font-variant:normal;font-weight:normal;font-stretch:normal;font-size:547.96557617px;font-family:'衡山毛筆フォント OTF';-inkscape-font-specification:'衡山毛筆フォント OTF, Normal';font-variant-ligatures:normal;font-variant-caps:normal;font-variant-numeric:normal;font-feature-settings:normal;text-align:start;writing-mode:lr-tb;text-anchor:start;white-space:pre;fill:#333333;stroke-width:23.82466316"
       d="m -401.50126,-19.943403 c 8.76745,-3.835759 16.98693,-7.123552 26.30235,-10.411346 8.21948,-2.191862 17.5349,-4.93169 26.85031,-7.671518 l 9.86338,-9.315415 3.83576,1.643897 c 5.47966,-3.287793 10.41135,-5.479656 15.891,-6.575587 4.93169,-1.095931 10.41135,-2.191862 15.34304,-4.93169 l 1.09593,-3.835759 c 4.93169,-1.095931 9.86338,-2.191862 14.79507,-2.739828 4.93169,-0.547966 8.76745,-2.191862 12.05524,-5.479656 l 14.79507,2.191863 7.67152,-1.095932 h 48.76894 l 1.09593,1.095932 20.27472,-1.095932 c 19.1788,2.739828 38.35759,6.027622 56.98842,9.863381 18.08287,4.383724 35.617766,9.86338 52.604699,17.534898 l 10.411346,-1.095931 13.151174,1.095931 h 6.027621 l -4.93169,-3.835759 v -6.027621 h 1.095931 v -1.643897 h -1.095931 l 1.095931,-6.575587 v -8.219483 l -7.123552,-6.575587 c -13.69914,-3.287794 -26.850314,-6.027622 -40.001487,-9.863381 -12.603212,-3.287793 -25.754382,-6.027621 -39.453522,-7.671518 h -6.02762 v 3.835759 l -16.98693,-2.739828 c -17.5349,0 -35.0698,0.547966 -52.6047,1.643897 -16.98693,1.643897 -33.97387,3.287793 -50.9608,5.479656 h -24.11048 c -2.19187,-20.822696 0,-39.453526 6.02762,-56.440456 6.02762,-16.43897 11.50728,-33.97386 15.34303,-52.60469 13.69914,-5.47966 28.49421,-9.31542 43.28928,-12.05525 14.79508,-2.73982 30.13811,-6.57558 44.38522,-10.95931 v -1.09593 h -2.19187 v -2.73983 l -3.28779,-0.54796 -6.02762,-19.72676 -8.76745,-1.6439 -10.95931,0.54797 -7.12355,-0.54797 -3.2878,0.54797 -4.38372,-0.54797 c -1.6439,0 -2.73983,0 -4.38373,0 -1.64389,0 -2.73982,0.54797 -2.73982,1.6439 h -3.2878 l -0.54796,3.28779 -19.1788,4.38372 -8.76745,-2.73982 v -2.73983 l 3.83576,-1.09593 c 0,-3.83576 0,-7.12355 -0.54796,-10.41135 -0.54797,-2.73983 -1.6439,-6.02762 -3.2878,-9.86338 0.54797,-7.12355 1.6439,-15.34303 2.73983,-23.56252 0.54797,-7.67152 2.73983,-14.79507 7.12355,-20.82269 v -4.38372 l -4.93169,-4.9317 v -4.93169 c 11.50728,-2.73982 23.01456,-5.47965 35.0698,-9.31541 11.50728,-3.28779 23.56252,-6.57559 35.0698,-9.86338 l -2.73983,-3.83576 -7.67152,-7.67152 v -6.02762 h 1.09593 v -3.83576 c -5.47965,-1.09593 -10.95931,-1.64389 -15.34303,-2.19186 -5.47966,-0.54797 -10.95932,-1.6439 -15.89101,-3.28779 l -10.95931,2.73982 -1.09593,3.83576 c -10.41135,6.57559 -21.37066,11.50728 -33.97387,13.15118 -12.05524,2.19186 -24.65845,3.83576 -37.80962,4.93169 l -12.60321,-1.6439 -1.64389,-4.93169 -6.02763,-1.09593 -47.12504,2.73983 1.09594,8.76745 c 8.76744,9.86338 19.72676,16.98693 31.782,21.91862 12.05524,4.93169 23.56252,8.21948 36.16573,9.86338 l -1.09593,9.31541 h -0.54797 c 0.54797,4.93169 1.09593,9.86338 1.6439,14.24711 0.54796,4.93169 2.19186,10.41135 4.93169,15.34304 l 3.83576,1.64389 c 4.93169,2.73983 7.12355,6.57559 7.67151,12.60321 0.54797,6.02762 1.09594,10.95931 1.6439,14.24711 l -1.09593,12.05524 -15.891,6.02762 -3.83576,-2.19186 c -8.21948,-0.54797 -15.891,0 -23.01456,2.73983 -7.67151,2.73982 -15.34303,3.83575 -23.56251,3.83575 l -4.9317,-1.09593 h -1.09593 v 4.93169 l -14.79507,6.02762 v 2.73983 c 8.76745,3.83576 17.5349,7.67152 26.85032,10.41135 8.76745,3.83576 17.53489,8.21948 26.30234,13.69914 h 2.73983 v -2.19186 l 7.12355,-2.19187 13.15118,0.54797 5.47965,-1.6439 6.57559,1.09593 -9.31541,53.15266 -6.57559,3.2878 1.6439,4.38372 -2.73983,9.31542 1.09593,3.28779 -1.09593,7.123553 6.02762,16.986933 v 4.93169 c -20.27473,2.739828 -40.00149,6.027621 -58.63232,9.86338 -19.17879,3.835759 -38.90555,7.123553 -58.63231,10.959312 l -3.2878,-1.643897 c -2.73983,1.643897 -6.02762,3.287794 -8.76745,3.835759 -2.73982,1.095931 -6.02762,1.095931 -8.76745,1.095931 v 3.287794 l -18.63083,6.027621 v 2.739828 c 8.21949,6.027621 17.5349,10.411346 26.85032,12.603208 9.86338,3.287794 19.17879,6.575587 29.59014,9.315415 z" />
  </g>
</svg>
