<?xml version="1.0" encoding="UTF-8" standalone="no"?>
<svg
   xmlns:dc="http://purl.org/dc/elements/1.1/"
   xmlns:cc="http://creativecommons.org/ns#"
   xmlns:rdf="http://www.w3.org/1999/02/22-rdf-syntax-ns#"
   xmlns:svg="http://www.w3.org/2000/svg"
   xmlns="http://www.w3.org/2000/svg"
   id="svg1081"
   version="1.1"
   viewBox="0 0 500 500">
  <metadata
     id="metadata1087">
    <rdf:RDF>
      <cc:Work
         rdf:about="">
        <dc:format>image/svg+xml</dc:format>
        <dc:type
           rdf:resource="http://purl.org/dc/dcmitype/StillImage" />
        <dc:title />
      </cc:Work>
    </rdf:RDF>
  </metadata>
  <defs
     id="defs1085" />
  <g
     id="text1079"
     style="font-style:normal;font-variant:normal;font-weight:normal;font-stretch:normal;font-size:523.06329346px;font-family:'衡山毛筆フォント OTF';-inkscape-font-specification:'衡山毛筆フォント OTF, Normal';font-variant-ligatures:normal;font-variant-caps:normal;font-variant-numeric:normal;font-feature-settings:normal;text-align:start;writing-mode:lr-tb;text-anchor:start;white-space:pre;fill:#ff0000;stroke-width:22.7419529"
     transform="scale(-0.99717014,-1.0028379)"
     aria-label="竜">
    <path
       id="path7"
       style="font-style:normal;font-variant:normal;font-weight:normal;font-stretch:normal;font-size:523.06329346px;font-family:'衡山毛筆フォント OTF';-inkscape-font-specification:'衡山毛筆フォント OTF, Normal';font-variant-ligatures:normal;font-variant-caps:normal;font-variant-numeric:normal;font-feature-settings:normal;text-align:start;writing-mode:lr-tb;text-anchor:start;white-space:pre;fill:#ff0000;stroke-width:22.7419529"
       d="m -207.59932,-19.943405 c 23.53784,0 46.55263,-2.092253 68.52129,-6.276759 21.96866,-4.70757 43.414252,-10.461266 64.859847,-17.261089 l 3.138379,-13.076582 3.13838,-5.230633 h 8.892076 c -6.799823,-3.661443 -13.599646,-6.27676 -20.922532,-8.369013 -7.845949,-2.092253 -14.645772,-4.707569 -21.44559,-8.369012 l -3.66145,-8.892076 h -1.56919 l -11.50739,25.630101 c -14.12271,7.845949 -28.24542,13.076582 -43.93732,14.645772 -16.21496,1.046127 -31.38379,2.615317 -47.07569,3.661443 -8.36902,-1.046126 -16.21497,-1.56919 -24.06091,-1.56919 -7.84595,0 -15.16884,-1.56919 -21.96866,-4.707569 l -6.79983,-27.199292 1.56919,-40.275876 32.42993,-16.73802 h 3.66144 v 2.61531 l 4.70757,2.09226 1.56919,8.36901 h 1.56919 v -1.56919 l 8.89208,1.56919 6.27676,-1.56919 v -3.66144 l 10.46126,-1.56919 c 4.70757,-15.6919 7.84595,-31.90686 10.46127,-49.69102 1.56919,-17.78415 7.32288,-33.47605 16.73802,-48.12182 l 14.64578,-6.79982 3.66144,-6.79982 v -4.70757 c -7.84595,-2.61532 -15.16884,-4.18451 -22.49172,-5.23064 -7.84595,-1.04612 -14.64578,-3.13838 -21.4456,-6.79982 -17.78415,1.04613 -34.52218,5.23063 -50.73714,12.03046 -15.6919,6.27676 -31.90686,12.03045 -49.16795,16.73802 l -4.70757,-1.56919 h -6.79982 l -1.56919,6.79982 h -5.23063 v 6.27676 l -31.90686,30.86074 -6.79983,-2.09226 -6.79982,2.09226 -18.83028,-5.23063 h -3.13838 l 12.03046,13.07658 c 5.75369,5.75369 10.46126,11.50739 15.16883,17.26109 4.70757,5.23063 7.32289,11.50739 8.36902,18.30721 h 3.66144 l 4.70757,9.9382 18.83028,14.12271 4.70757,6.27676 3.66144,1.56919 1.56919,5.23064 10.46127,-3.66145 4.70757,2.09226 c 3.66144,9.938198 5.23063,20.399464 5.23063,31.906856 0,11.507393 1.56919,21.968659 4.70757,30.337671 9.9382,8.892076 21.44559,15.168836 32.95299,17.784152 12.03045,2.615317 24.06091,4.70757 36.61443,5.753696 z m -77.93643,-107.751035 -4.70757,1.56919 -5.23064,-1.56919 -8.36901,-13.59965 v -6.79982 l 8.36901,-3.13838 9.93821,1.56919 z m 55.96777,-20.39947 -25.6301,10.46126 h -5.23064 l 7.32289,-28.76848 28.76848,-15.16883 h 2.61532 c -1.04613,4.1845 -1.56919,8.36901 -1.56919,13.07658 0,4.70757 -1.56919,8.36901 -6.27676,10.46127 l 1.56919,8.36901 z m -54.39858,-25.10704 -21.96866,8.36901 c -3.66145,0 -6.27676,0 -9.41514,0 -3.66144,0 -6.27676,-1.56919 -8.89208,-5.23063 v -3.13838 l 5.23064,-2.09225 3.13838,-6.27676 -1.56919,-10.46127 v -7.84595 l 16.73802,-19.35334 20.39947,12.55352 c 7.84595,0 15.16883,-2.09225 21.96866,-6.27676 6.79982,-4.18451 14.12271,-7.32289 21.96866,-8.89208 h 5.23063 l 9.41514,11.5074 v 27.19929 l -4.18451,1.56919 -29.29154,-1.56919 -8.36902,-16.73803 c -3.66144,0 -6.79982,0 -11.50739,0 -4.70757,0 -7.84595,1.04613 -10.46126,4.70757 l 1.56919,10.46127 z m -102.52041,-35.5683 c 46.02957,-27.19929 94.67446,-44.98345 145.93466,-54.92165 51.2602,-9.41514 103.56653,-15.16883 155.872861,-17.78415 v -6.27676 l 5.230633,-3.66144 v -3.13838 l -59.106154,-6.79983 c -46.02957,8.89208 -92.05914,17.78416 -138.08871,27.72236 -46.55263,9.41514 -91.01301,24.06091 -133.9042,42.89119 -2.09225,1.56919 -4.70757,2.09225 -7.32289,2.09225 -2.61531,0 -4.70757,1.04613 -5.75369,3.13838 l -15.6919,6.27676 v 2.09225 l 19.35334,5.23064 7.84595,-2.09226 z m 60.67534,-58.58309 18.30722,-5.23064 6.79982,-16.73802 -1.56919,-8.89208 -43.93732,-15.16883 h -5.23063 l 6.79982,24.06091 15.16884,19.8764 z m 63.81372,-15.6919 c 6.79983,-3.13838 14.12271,-5.7537 20.39947,-7.32289 6.79983,-1.56919 14.64577,-2.61531 21.96866,-2.61531 4.70757,-3.66145 8.36901,-7.32289 10.98433,-11.5074 2.61532,-3.66144 5.23063,-7.32288 7.32289,-12.03045 l -1.04613,-8.89208 -33.99911,-16.73802 -7.32289,2.09225 c -1.04613,8.89208 -2.61532,17.26109 -6.27676,25.10704 -3.66144,7.32288 -7.32289,15.6919 -12.03046,23.53785 v 2.09225 h 1.56919 l -1.56919,4.70757 z m -58.58308,-48.64489 c 18.83027,-5.75369 38.18362,-12.03045 58.06002,-18.83028 19.35334,-6.27676 39.22975,-12.03045 60.15228,-16.73802 l 2.61532,-6.27676 -1.56919,-10.46127 -3.13838,-2.09225 h -48.64489 v 3.66144 h -3.66144 l -1.56919,3.66145 -37.1375,14.64577 -10.46126,-1.56919 c -10.98433,0 -21.4456,2.09225 -29.81461,6.79982 -9.41514,4.70757 -18.83028,7.32289 -28.76848,8.36901 v 3.13838 h -2.09225 c 6.79982,3.66145 14.1227,6.27676 23.01478,7.84595 8.89208,1.56919 16.21496,4.18451 23.01479,7.84595 z m 40.27587,-50.73714 5.23063,-1.56919 v -5.23063 h 9.9382 l -3.13838,-11.50739 c -8.89207,-5.7537 -18.83027,-10.46127 -29.29154,-14.12271 -10.98433,-3.13838 -21.44559,-6.27676 -31.90686,-9.9382 h -4.70757 l -1.56919,5.23063 h -3.66144 c 7.32288,7.32289 17.26109,14.64577 28.24541,20.39947 10.46127,5.23063 20.92254,10.98433 30.86074,16.73802 z" />
  </g>
</svg>
