<?xml version="1.0" encoding="UTF-8" standalone="no"?>
<svg
   xmlns:dc="http://purl.org/dc/elements/1.1/"
   xmlns:cc="http://creativecommons.org/ns#"
   xmlns:rdf="http://www.w3.org/1999/02/22-rdf-syntax-ns#"
   xmlns:svg="http://www.w3.org/2000/svg"
   xmlns="http://www.w3.org/2000/svg"
   id="svg998"
   version="1.1"
   viewBox="0 0 500 500">
  <metadata
     id="metadata1004">
    <rdf:RDF>
      <cc:Work
         rdf:about="">
        <dc:format>image/svg+xml</dc:format>
        <dc:type
           rdf:resource="http://purl.org/dc/dcmitype/StillImage" />
        <dc:title />
      </cc:Work>
    </rdf:RDF>
  </metadata>
  <defs
     id="defs1002" />
  <g
     id="text996"
     style="font-style:normal;font-variant:normal;font-weight:normal;font-stretch:normal;font-size:557.35388184px;font-family:'衡山毛筆フォント OTF';-inkscape-font-specification:'衡山毛筆フォント OTF, Normal';font-variant-ligatures:normal;font-variant-caps:normal;font-variant-numeric:normal;font-feature-settings:normal;text-align:start;writing-mode:lr-tb;text-anchor:start;white-space:pre;fill:#ff0000;stroke-width:24.23285103"
     transform="scale(-0.99716994,-1.0028381)"
     aria-label="と">
    <path
       id="path7"
       style="font-style:normal;font-variant:normal;font-weight:normal;font-stretch:normal;font-size:557.35388184px;font-family:'衡山毛筆フォント OTF';-inkscape-font-specification:'衡山毛筆フォント OTF, Normal';font-variant-ligatures:normal;font-variant-caps:normal;font-variant-numeric:normal;font-feature-settings:normal;text-align:start;writing-mode:lr-tb;text-anchor:start;white-space:pre;fill:#ff0000;stroke-width:24.23285103"
       d="m -280.522,-20.606713 c 21.17945,2.229415 39.57213,-1.114708 55.73539,-10.589724 15.60591,-9.475016 31.21182,-20.622093 46.26037,-34.55594 v -1.114708 c -8.36031,3.344123 -16.72062,6.130892 -23.96622,7.802954 -8.3603,1.672062 -17.27797,3.344123 -26.19563,4.458831 -12.26178,0 -23.96622,0 -36.228,0 -11.70443,0 -22.29416,-2.786769 -31.21182,-8.917662 l -10.03237,-15.048555 v -5.573539 h 3.90148 l -2.22942,-11.147077 c 1.67207,-15.048557 3.90148,-29.539757 7.80296,-44.030957 3.34412,-14.4912 8.91766,-27.86769 18.39268,-40.68683 h 3.90147 l 5.57354,19.50738 22.29416,16.16327 13.93384,-3.90148 c 3.90148,-6.13089 5.57354,-12.26179 5.57354,-20.06474 0,-7.80296 0.55736,-15.04856 2.22942,-22.29416 l -2.22942,-18.95003 c 1.67206,-10.58972 2.22942,-20.62209 2.22942,-31.21182 0,-10.58972 1.67206,-20.06474 5.57354,-28.9824 l -3.90148,-16.72061 h -13.37649 v 3.90147 l -10.03237,2.22942 c -6.1309,2.22941 -11.70443,5.57354 -16.72062,10.58972 -5.01618,5.01619 -8.91766,11.14708 -13.37649,17.27797 h -3.90148 c -6.68825,-20.62209 -12.26178,-40.68683 -15.60591,-61.30892 -3.90148,-20.6221 -12.81914,-39.01478 -25.63828,-55.17804 h -2.22941 c 5.57354,23.96622 8.91766,47.93243 11.70443,73.01336 2.78677,25.08092 7.80295,48.48979 16.16326,70.78394 -3.90148,19.50739 -9.47501,37.90007 -16.16326,55.73539 -6.13089,17.83532 -10.58972,36.228 -13.37649,55.73539 0,12.26178 0,24.523569 0,37.900063 0,12.819139 3.90147,24.52357 11.70443,34.55594 z m 22.29416,-190.615027 -2.22942,1.67206 -2.22942,-1.67206 6.68825,-11.70443 h 3.34412 z" />
  </g>
</svg>
