<?xml version="1.0" encoding="UTF-8" standalone="no"?>
<svg
   xmlns:dc="http://purl.org/dc/elements/1.1/"
   xmlns:cc="http://creativecommons.org/ns#"
   xmlns:rdf="http://www.w3.org/1999/02/22-rdf-syntax-ns#"
   xmlns:svg="http://www.w3.org/2000/svg"
   xmlns="http://www.w3.org/2000/svg"
   id="svg925"
   version="1.1"
   viewBox="0 0 500 500">
  <metadata
     id="metadata931">
    <rdf:RDF>
      <cc:Work
         rdf:about="">
        <dc:format>image/svg+xml</dc:format>
        <dc:type
           rdf:resource="http://purl.org/dc/dcmitype/StillImage" />
        <dc:title />
      </cc:Work>
    </rdf:RDF>
  </metadata>
  <defs
     id="defs929" />
  <g
     id="text923"
     style="font-style:normal;font-variant:normal;font-weight:normal;font-stretch:normal;font-size:477.44796753px;font-family:'衡山毛筆フォント OTF';-inkscape-font-specification:'衡山毛筆フォント OTF, Normal';font-variant-ligatures:normal;font-variant-caps:normal;font-variant-numeric:normal;font-feature-settings:normal;text-align:start;writing-mode:lr-tb;text-anchor:start;white-space:pre;fill:#ff0000;stroke-width:20.7586689"
     transform="scale(-0.99716994,-1.0028381)"
     aria-label="馬">
    <path
       id="path7"
       style="font-style:normal;font-variant:normal;font-weight:normal;font-stretch:normal;font-size:477.44796753px;font-family:'衡山毛筆フォント OTF';-inkscape-font-specification:'衡山毛筆フォント OTF, Normal';font-variant-ligatures:normal;font-variant-caps:normal;font-variant-numeric:normal;font-feature-settings:normal;text-align:start;writing-mode:lr-tb;text-anchor:start;white-space:pre;fill:#ff0000;stroke-width:20.7586689"
       d="m -182.63933,-17.949043 4.77448,-1.432344 v -3.342135 l 9.07151,-2.864688 c 16.71068,-27.214534 29.12433,-56.33886 36.28605,-86.41808 7.63916,-30.55667 16.71068,-60.15845 26.73708,-88.80532 l 19.097922,-7.63917 1.432344,-4.77448 v -12.8911 c -6.206823,-3.81958 -12.891095,-6.68427 -20.052816,-8.11661 -7.63917,-1.43235 -14.32344,-5.25193 -21.00771,-10.50386 -16.71068,0 -32.94391,0.9549 -49.17714,2.38724 -16.71068,1.43235 -31.98901,4.29703 -46.7899,8.59407 h -8.11662 l 3.34214,-34.37626 47.7448,-19.09792 v -9.54896 l -6.68427,-1.43234 c -6.20683,0 -11.9362,0 -17.66558,0.47745 -6.20682,0.47745 -11.45875,1.90979 -16.71068,4.29703 h -3.34213 l 3.34213,-21.96261 c 6.68427,-4.29703 14.80089,-7.63916 23.39495,-9.07151 8.11662,-1.43234 16.23323,-3.81958 23.39495,-8.11661 V -344.046 h -1.43234 v -2.86469 l -26.73709,-3.34214 -12.89109,1.90979 h -4.29703 v -16.23323 l 52.04182,-12.41364 2.86469,-8.11662 -1.43234,-9.07151 -30.07922,-6.68427 c -9.54896,3.34213 -18.62047,6.20682 -26.73709,9.54896 -8.59406,3.34213 -17.18813,5.72937 -26.73709,7.63916 -4.29703,0 -8.11661,-0.47744 -12.41364,-0.95489 -4.29704,-0.47745 -8.11662,-1.90979 -11.45875,-4.77448 h -5.72938 v 2.86469 h -3.34214 v 6.20682 c -8.59406,0.9549 -16.23323,3.81958 -23.39495,8.59406 -7.63916,4.77448 -14.80088,9.07151 -22.44005,13.36855 -7.16172,0 -13.84599,-1.9098 -19.57537,-5.72938 -6.20682,-2.86469 -11.45875,-6.20682 -16.71068,-9.54896 h -1.43234 c 7.16172,13.36854 13.36854,27.69198 18.62047,43.44777 5.25193,15.27833 8.11662,31.03411 8.11662,47.74479 0,7.16172 0,14.80089 -0.47745,21.96261 -0.47745,7.63917 -1.90979,14.32344 -4.29703,20.53026 2.38724,9.54896 3.81958,18.62047 4.29703,28.16943 0.47745,9.54896 4.29703,18.14303 11.45875,25.30474 l 20.53026,6.20683 c 17.66558,0 33.89881,-3.34214 49.17714,-10.02641 14.32344,-7.16172 29.60178,-13.36854 45.35756,-18.14302 l 1.43234,-4.77448 39.15074,-9.54896 19.09791,1.43234 4.77448,12.8911 c -3.34213,23.8724 -6.20682,48.22224 -9.07151,73.04954 -3.34213,24.82729 -11.45875,47.744794 -23.8724,68.752505 l -6.20682,1.432344 -3.34213,14.323439 h -3.34214 c 0,2.387239 0,4.297031 0,6.684271 0,2.864688 -0.9549,5.251928 -2.86469,7.639168 l 1.43235,8.116615 h 3.34213 v 2.864688 l 4.77448,1.432344 v 3.342136 h 2.86469 z m -171.88127,-47.267348 4.77448,-5.729376 9.54896,-1.909792 3.34214,-9.548959 c 0.95489,-5.251928 0.47745,-10.026408 -1.43235,-14.323439 -2.38724,-4.297033 -5.25192,-8.594063 -8.59406,-12.413643 -10.02641,-5.25193 -20.53026,-10.50386 -30.07922,-15.27834 -10.50386,-4.29703 -21.00771,-7.63917 -32.94391,-10.02641 h -5.72938 l 1.43235,4.77448 v 2.86469 h -1.43235 c 11.45875,10.02641 22.44006,19.09792 33.89881,28.646879 10.50385,9.548959 20.05281,20.530262 27.21453,32.94391 z m 59.681,-26.259639 1.43234,-1.909792 4.77448,1.909792 h 3.34214 v -6.684271 l 4.77448,-1.432344 c 1.43234,-6.684275 0.95489,-11.936195 -1.43235,-16.710675 -2.38724,-4.77448 -4.77448,-9.54896 -8.11661,-13.36855 -4.77448,-5.25192 -10.98131,-9.07151 -17.18813,-11.9362 -6.20682,-2.38724 -12.89109,-4.29703 -20.53026,-5.72937 h -6.68427 c 5.25192,8.59406 10.9813,16.71068 16.23323,24.34984 4.77448,8.11662 10.02641,16.23324 14.32344,24.827299 z m 47.26735,-16.23323 h 1.90979 v -2.86469 l 9.54896,-1.43234 0.95489,-5.25193 c 1.43235,-5.25193 0.47745,-10.02641 -1.43234,-13.84599 -2.86469,-4.29703 -5.25193,-8.59406 -7.63917,-12.8911 l -28.64687,-12.41364 h -9.07152 c 4.29704,9.07151 8.59407,17.66557 13.84599,25.78219 5.25193,7.63916 12.41365,15.75578 20.53027,22.9175 z m 45.835,-28.16943 7.63917,-1.43234 v -1.9098 l 6.68427,-6.20682 -1.90979,-9.54896 -31.03412,-12.89109 h -10.02641 l 15.75579,28.64687 z m -108.85813,-75.43678 h 1.43234 l 3.34214,-45.835 10.0264,2.86468 34.37626,-4.77448 h 6.20682 v 4.77448 h -2.86469 l 2.86469,19.09792 6.20682,4.77448 v 4.29703 l -56.8163,19.09792 -12.41365,-2.86469 v -6.20682 z m 56.8163,-71.13975 -39.62818,14.32344 -12.41364,-1.43234 1.90979,-4.77448 -1.90979,-28.64688 v -4.29703 l 27.21453,4.29703 24.82729,-3.34214 h 3.34214 z m 0,-50.13203 -52.04182,15.27833 h -4.77448 l -5.72938,-12.41365 2.38724,-10.9813 -0.9549,-6.20682 2.86469,-12.8911 20.53026,-12.41364 h 15.75579 l 10.9813,13.84599 6.68427,3.34213 5.72938,14.32344 z" />
  </g>
</svg>
